<svg width="26" height="18" viewBox="0 0 26 18" fill="none" xmlns="http://www.w3.org/2000/svg">
<path d="M12.9439 11.7933C16.7182 11.7933 19.941 12.3917 19.941 14.7861C19.941 17.1796 16.7389 17.7997 12.9439 17.7997C9.16964 17.7997 5.94691 17.2013 5.94691 14.8079C5.94691 12.4134 9.14896 11.7933 12.9439 11.7933ZM18.9786 10.3515C20.4215 10.3247 21.9728 10.5229 22.5461 10.6635C23.7605 10.9023 24.5593 11.3897 24.8902 12.098C25.1699 12.6795 25.1699 13.3542 24.8902 13.9347C24.384 15.0334 22.7519 15.386 22.1176 15.4772C21.9866 15.497 21.8812 15.3831 21.895 15.2513C22.219 12.207 19.6415 10.7636 18.9746 10.4317C18.9461 10.4169 18.9402 10.3941 18.9431 10.3802C18.9451 10.3703 18.9569 10.3544 18.9786 10.3515ZM6.75045 10.3494L7.02217 10.3519C7.04384 10.3548 7.05467 10.3707 7.05664 10.3796C7.0596 10.3945 7.05369 10.4163 7.02611 10.4321C6.35832 10.764 3.78072 12.2074 4.10477 15.2507C4.11856 15.3835 4.01415 15.4964 3.88316 15.4776C3.24885 15.3864 1.6168 15.0338 1.11054 13.9351C0.829832 13.3536 0.829832 12.6799 1.11054 12.0984C1.44148 11.3901 2.23929 10.9027 3.45372 10.6629C4.02794 10.5233 5.57824 10.3251 7.02217 10.3519L6.75045 10.3494ZM12.9439 0.199707C15.5137 0.199707 17.5742 2.2702 17.5742 4.85584C17.5742 7.4405 15.5137 9.51297 12.9439 9.51297C10.3742 9.51297 8.31372 7.4405 8.31372 4.85584C8.31372 2.2702 10.3742 0.199707 12.9439 0.199707ZM19.2297 0.976192C21.7118 0.976192 23.661 3.32506 22.9972 5.94142C22.549 7.70282 20.9268 8.8728 19.1194 8.82525C18.9382 8.8203 18.7599 8.80346 18.5876 8.77374C18.4625 8.75194 18.3994 8.61028 18.4704 8.50527C19.1598 7.48488 19.5528 6.25744 19.5528 4.93985C19.5528 3.56481 19.1234 2.28288 18.3778 1.23178C18.3541 1.19909 18.3364 1.14857 18.36 1.11092C18.3797 1.08021 18.4162 1.06436 18.4507 1.05644C18.7018 1.00492 18.9599 0.976192 19.2297 0.976192ZM6.76953 0.976093C7.0394 0.976093 7.29746 1.00482 7.54961 1.05634C7.58309 1.06426 7.62052 1.0811 7.64022 1.11082C7.66287 1.14847 7.64613 1.19899 7.62249 1.23169C6.87689 2.28278 6.44745 3.56471 6.44745 4.93975C6.44745 6.25734 6.84045 7.48478 7.52991 8.50517C7.60082 8.61018 7.53779 8.75184 7.4127 8.77364C7.23935 8.80435 7.06206 8.8202 6.88083 8.82515C5.07346 8.8727 3.45126 7.70273 3.00311 5.94132C2.33827 3.32497 4.28747 0.976093 6.76953 0.976093Z" fill="#373B5C"/>
</svg>
