<svg width="19" height="22" viewBox="0 0 19 22" fill="none" xmlns="http://www.w3.org/2000/svg">
<path fill-rule="evenodd" clip-rule="evenodd" d="M7.32429 19.106C7.84229 19.683 8.50729 20 9.19729 20H9.19829C9.89129 20 10.5593 19.683 11.0783 19.105C11.3563 18.798 11.8303 18.773 12.1373 19.05C12.4453 19.327 12.4703 19.802 12.1933 20.109C11.3853 21.006 10.3223 21.5 9.19829 21.5H9.19629C8.07529 21.499 7.01429 21.005 6.20929 20.108C5.93229 19.801 5.95729 19.326 6.26529 19.05C6.57329 18.772 7.04729 18.797 7.32429 19.106ZM9.24709 0C13.6921 0 16.6781 3.462 16.6781 6.695C16.6781 8.358 17.1011 9.063 17.5501 9.811C17.9941 10.549 18.4971 11.387 18.4971 12.971C18.1481 17.018 13.9231 17.348 9.24709 17.348C4.57109 17.348 0.345088 17.018 7.42715e-05 13.035C-0.00291237 11.387 0.500088 10.549 0.944088 9.811L1.10083 9.54715C1.48676 8.88386 1.81609 8.16235 1.81609 6.695C1.81609 3.462 4.80209 0 9.24709 0ZM9.24709 1.5C5.75209 1.5 3.31609 4.238 3.31609 6.695C3.31609 8.774 2.73909 9.735 2.22909 10.583C1.82009 11.264 1.49709 11.802 1.49709 12.971C1.66409 14.857 2.90909 15.848 9.24709 15.848C15.5501 15.848 16.8341 14.813 17.0001 12.906C16.9971 11.802 16.6741 11.264 16.2651 10.583C15.7551 9.735 15.1781 8.774 15.1781 6.695C15.1781 4.238 12.7421 1.5 9.24709 1.5Z" fill="#1E2875"/>
</svg>
