<svg width="25" height="25" viewBox="0 0 25 25" fill="none" xmlns="http://www.w3.org/2000/svg">
<path fill-rule="evenodd" clip-rule="evenodd" d="M16.3167 1.68115C16.7313 1.68115 17.0678 2.01765 17.0678 2.43225L17.0682 3.28131C18.5305 3.38156 19.7449 3.88242 20.6044 4.74374C21.5428 5.68612 22.0365 7.0411 22.0316 8.66648V17.8029C22.0316 21.1398 19.9124 23.2128 16.5024 23.2128H8.03203C4.62203 23.2128 2.50293 21.1107 2.50293 17.7268V8.66448C2.50293 5.51706 4.39275 3.49675 7.4749 3.28165L7.47551 2.43225C7.47551 2.01765 7.81201 1.68115 8.22661 1.68115C8.64122 1.68115 8.97771 2.01765 8.97771 2.43225L8.97741 3.26247H15.5651L15.5656 2.43225C15.5656 2.01765 15.9021 1.68115 16.3167 1.68115ZM20.5293 10.5982H4.00513V17.7268C4.00513 20.2965 5.43523 21.7106 8.03203 21.7106H16.5024C19.0992 21.7106 20.5294 20.3226 20.5294 17.8029L20.5293 10.5982ZM16.725 16.8997C17.1396 16.8997 17.4761 17.2362 17.4761 17.6508C17.4761 18.0655 17.1396 18.4019 16.725 18.4019C16.3104 18.4019 15.9699 18.0655 15.9699 17.6508C15.9699 17.2362 16.3013 16.8997 16.7159 16.8997H16.725ZM12.281 16.8997C12.6956 16.8997 13.0321 17.2362 13.0321 17.6508C13.0321 18.0655 12.6956 18.4019 12.281 18.4019C11.8663 18.4019 11.5258 18.0655 11.5258 17.6508C11.5258 17.2362 11.8573 16.8997 12.2719 16.8997H12.281ZM7.82763 16.8997C8.24224 16.8997 8.57873 17.2362 8.57873 17.6508C8.57873 18.0655 8.24224 18.4019 7.82763 18.4019C7.41302 18.4019 7.07152 18.0655 7.07152 17.6508C7.07152 17.2362 7.40401 16.8997 7.81862 16.8997H7.82763ZM16.725 13.0073C17.1396 13.0073 17.4761 13.3438 17.4761 13.7584C17.4761 14.1731 17.1396 14.5095 16.725 14.5095C16.3104 14.5095 15.9699 14.1731 15.9699 13.7584C15.9699 13.3438 16.3013 13.0073 16.7159 13.0073H16.725ZM12.281 13.0073C12.6956 13.0073 13.0321 13.3438 13.0321 13.7584C13.0321 14.1731 12.6956 14.5095 12.281 14.5095C11.8663 14.5095 11.5258 14.1731 11.5258 13.7584C11.5258 13.3438 11.8573 13.0073 12.2719 13.0073H12.281ZM7.82763 13.0073C8.24224 13.0073 8.57873 13.3438 8.57873 13.7584C8.57873 14.1731 8.24224 14.5095 7.82763 14.5095C7.41302 14.5095 7.07152 14.1731 7.07152 13.7584C7.07152 13.3438 7.40401 13.0073 7.81862 13.0073H7.82763ZM15.5651 4.76467H8.97741L8.97771 5.72808C8.97771 6.14269 8.64122 6.47918 8.22661 6.47918C7.81201 6.47918 7.47551 6.14269 7.47551 5.72808L7.47498 4.7874C5.23146 4.97587 4.00513 6.33583 4.00513 8.66448V9.09601H20.5293L20.5294 8.66448C20.5333 7.42767 20.2009 6.46626 19.5409 5.80529C18.9616 5.22425 18.1147 4.87723 17.0686 4.78789L17.0678 5.72808C17.0678 6.14269 16.7313 6.47918 16.3167 6.47918C15.9021 6.47918 15.5656 6.14269 15.5656 5.72808L15.5651 4.76467Z" fill="#373B5C"/>
</svg>
