<svg width="28" height="24" viewBox="0 0 28 24" fill="none" xmlns="http://www.w3.org/2000/svg">
<path fill-rule="evenodd" clip-rule="evenodd" d="M1.5 7.3125C1.5 5.58661 2.89911 4.1875 4.625 4.1875H7.75L8.44877 2.78995C8.97812 1.73125 10.0602 1.0625 11.2439 1.0625H16.7561C17.9398 1.0625 19.0219 1.73125 19.5512 2.78995L20.25 4.1875H23.375C25.1009 4.1875 26.5 5.58661 26.5 7.3125V19.8125C26.5 21.5384 25.1009 22.9375 23.375 22.9375H4.625C2.89911 22.9375 1.5 21.5384 1.5 19.8125V7.3125Z" stroke="#1E2875" stroke-width="2" stroke-linecap="round"/>
<path fill-rule="evenodd" clip-rule="evenodd" d="M18.6875 13.5625C18.6875 16.1514 16.5889 18.25 14 18.25C11.4111 18.25 9.3125 16.1514 9.3125 13.5625C9.3125 10.9736 11.4111 8.875 14 8.875C16.5889 8.875 18.6875 10.9736 18.6875 13.5625Z" stroke="#1E2875" stroke-width="2" stroke-linecap="round"/>
</svg>
