<svg width="21" height="23" viewBox="0 0 21 23" fill="none" xmlns="http://www.w3.org/2000/svg">
<path fill-rule="evenodd" clip-rule="evenodd" d="M14.3167 0.681152C14.7313 0.681152 15.0678 1.01765 15.0678 1.43225L15.0682 2.28131C16.5305 2.38156 17.7449 2.88242 18.6044 3.74374C19.5428 4.68612 20.0365 6.0411 20.0316 7.66648V16.8029C20.0316 20.1398 17.9124 22.2128 14.5024 22.2128H6.03203C2.62203 22.2128 0.50293 20.1107 0.50293 16.7268V7.66448C0.50293 4.51706 2.39275 2.49675 5.4749 2.28165L5.47551 1.43225C5.47551 1.01765 5.81201 0.681152 6.22661 0.681152C6.64122 0.681152 6.97771 1.01765 6.97771 1.43225L6.97741 2.26247H13.5651L13.5656 1.43225C13.5656 1.01765 13.9021 0.681152 14.3167 0.681152ZM18.5293 9.59822H2.00513V16.7268C2.00513 19.2965 3.43523 20.7106 6.03203 20.7106H14.5024C17.0992 20.7106 18.5294 19.3226 18.5294 16.8029L18.5293 9.59822ZM14.725 15.8997C15.1396 15.8997 15.4761 16.2362 15.4761 16.6508C15.4761 17.0655 15.1396 17.4019 14.725 17.4019C14.3104 17.4019 13.9699 17.0655 13.9699 16.6508C13.9699 16.2362 14.3013 15.8997 14.7159 15.8997H14.725ZM10.281 15.8997C10.6956 15.8997 11.0321 16.2362 11.0321 16.6508C11.0321 17.0655 10.6956 17.4019 10.281 17.4019C9.86635 17.4019 9.52585 17.0655 9.52585 16.6508C9.52585 16.2362 9.85733 15.8997 10.2719 15.8997H10.281ZM5.82763 15.8997C6.24224 15.8997 6.57873 16.2362 6.57873 16.6508C6.57873 17.0655 6.24224 17.4019 5.82763 17.4019C5.41302 17.4019 5.07152 17.0655 5.07152 16.6508C5.07152 16.2362 5.40401 15.8997 5.81862 15.8997H5.82763ZM14.725 12.0073C15.1396 12.0073 15.4761 12.3438 15.4761 12.7584C15.4761 13.1731 15.1396 13.5095 14.725 13.5095C14.3104 13.5095 13.9699 13.1731 13.9699 12.7584C13.9699 12.3438 14.3013 12.0073 14.7159 12.0073H14.725ZM10.281 12.0073C10.6956 12.0073 11.0321 12.3438 11.0321 12.7584C11.0321 13.1731 10.6956 13.5095 10.281 13.5095C9.86635 13.5095 9.52585 13.1731 9.52585 12.7584C9.52585 12.3438 9.85733 12.0073 10.2719 12.0073H10.281ZM5.82763 12.0073C6.24224 12.0073 6.57873 12.3438 6.57873 12.7584C6.57873 13.1731 6.24224 13.5095 5.82763 13.5095C5.41302 13.5095 5.07152 13.1731 5.07152 12.7584C5.07152 12.3438 5.40401 12.0073 5.81862 12.0073H5.82763ZM13.5651 3.76467H6.97741L6.97771 4.72808C6.97771 5.14269 6.64122 5.47918 6.22661 5.47918C5.81201 5.47918 5.47551 5.14269 5.47551 4.72808L5.47498 3.78741C3.23146 3.97587 2.00513 5.33583 2.00513 7.66448V8.09601H18.5293L18.5294 7.66448C18.5333 6.42767 18.2009 5.46626 17.5409 4.80529C16.9616 4.22425 16.1147 3.87723 15.0686 3.78789L15.0678 4.72808C15.0678 5.14269 14.7313 5.47918 14.3167 5.47918C13.9021 5.47918 13.5656 5.14269 13.5656 4.72808L13.5651 3.76467Z" fill="#373B5C"/>
</svg>
