<svg width="20" height="21" viewBox="0 0 20 21" fill="none" xmlns="http://www.w3.org/2000/svg">
<path d="M7.7046 18.8072L7.7044 18.8075C7.45497 19.1273 7.09075 19.3415 6.56696 19.4755C6.03424 19.6118 5.36986 19.6565 4.56222 19.6565C3.75458 19.6565 3.0902 19.6118 2.55749 19.4755C2.03369 19.3415 1.66948 19.1273 1.42004 18.8075L1.41984 18.8072C1.19949 18.5251 1.07444 18.1759 1.00841 17.701C0.95679 17.3298 0.944079 16.9079 0.940956 16.4084L1.1846 16.4L1.1674 15.4003H0.942668C0.9491 14.8995 0.969029 14.4691 1.02377 14.0951C1.09542 13.6056 1.22128 13.2565 1.41871 12.9975C1.80013 12.4971 2.60382 12.1441 4.56222 12.1441C6.52063 12.1441 7.32432 12.4971 7.70573 12.9975C7.90317 13.2565 8.02902 13.6056 8.10067 14.0951C8.17284 14.5881 8.1845 15.1792 8.1845 15.9003C8.1845 16.6311 8.18351 17.2093 8.11598 17.698C8.04989 18.1761 7.92477 18.5253 7.7046 18.8072ZM18.374 18.8072L18.3738 18.8075C18.1244 19.1273 17.7602 19.3415 17.2364 19.4755C16.7037 19.6118 16.0393 19.6565 15.2317 19.6565C14.424 19.6565 13.7596 19.6118 13.2269 19.4755C12.7031 19.3415 12.3389 19.1273 12.0895 18.8075L12.0893 18.8072C11.8689 18.5251 11.7439 18.1759 11.6778 17.701C11.6262 17.3298 11.6135 16.9079 11.6104 16.4084L11.854 16.4L11.8368 15.4003H11.6121C11.6185 14.8995 11.6385 14.4691 11.6932 14.0951C11.7649 13.6056 11.8907 13.2565 12.0881 12.9975C12.4696 12.4971 13.2732 12.1441 15.2317 12.1441C17.1901 12.1441 17.9937 12.4971 18.3752 12.9975C18.5726 13.2565 18.6985 13.6056 18.7701 14.0951C18.8423 14.5881 18.8539 15.1792 18.8539 15.9003C18.8539 16.6311 18.8529 17.2093 18.7854 17.698C18.7193 18.1761 18.5942 18.5253 18.374 18.8072ZM4.76458 12.6467L4.7633 12.6467L4.56334 12.6463H4.56222C3.93221 12.6463 3.41658 12.6573 3.00913 12.7147C2.60357 12.7718 2.22947 12.8838 1.94408 13.1458C1.65127 13.4147 1.52632 13.772 1.46528 14.1499C1.40533 14.5212 1.39687 14.9835 1.39522 15.5253L1.39522 15.527L1.39562 16.3814L1.39564 16.3838C1.39793 16.8194 1.40689 17.2212 1.44756 17.556C1.48617 17.8738 1.56184 18.2215 1.7628 18.4803L1.76395 18.4818C2.0085 18.7943 2.41832 18.9434 2.83935 19.0275C3.28287 19.1161 3.85775 19.1543 4.56222 19.1543C5.26683 19.1543 5.84179 19.1158 6.28539 19.0269C6.70658 18.9425 7.11611 18.7931 7.3605 18.4808L7.3612 18.4799C7.59163 18.184 7.66195 17.763 7.69488 17.381C7.72959 16.9783 7.72958 16.4829 7.72958 15.9433V15.9243V15.8981C7.72959 15.2941 7.7296 14.7872 7.68843 14.3848C7.64702 13.98 7.55746 13.5915 7.30935 13.2859C7.05014 12.9665 6.68609 12.8185 6.28118 12.7422C5.88407 12.6674 5.37931 12.6497 4.76458 12.6467ZM15.434 12.6467L15.4327 12.6467L15.2328 12.6463H15.2317C14.6016 12.6463 14.086 12.6573 13.6786 12.7147C13.273 12.7718 12.8989 12.8838 12.6135 13.1458C12.3207 13.4147 12.1958 13.772 12.1347 14.1499C12.0748 14.5212 12.0663 14.9835 12.0647 15.5253L12.0647 15.527L12.0651 16.3814L12.0651 16.3838C12.0674 16.8194 12.0763 17.2212 12.117 17.556C12.1556 17.8738 12.2313 18.2215 12.4322 18.4803L12.4334 18.4818C12.6779 18.7943 13.0878 18.9434 13.5088 19.0275C13.9523 19.1161 14.5272 19.1543 15.2317 19.1543C15.9363 19.1543 16.5112 19.1158 16.9548 19.0269C17.376 18.9425 17.7855 18.7931 18.0299 18.4808L18.0306 18.4799C18.2611 18.184 18.3314 17.763 18.3643 17.381C18.399 16.9783 18.399 16.4829 18.399 15.9433V15.9243V15.8981C18.399 15.2942 18.399 14.7872 18.3579 14.3848C18.3165 13.98 18.2269 13.5915 17.9788 13.2859C17.7196 12.9665 17.3555 12.8185 16.9506 12.7422C16.5535 12.6674 16.0487 12.6497 15.434 12.6467ZM7.7046 7.79111L7.7044 7.79136C7.45497 8.11115 7.09075 8.32532 6.56696 8.45934C6.03424 8.59564 5.36986 8.6404 4.56222 8.6404C3.75458 8.6404 3.0902 8.59564 2.55749 8.45934C2.03369 8.32532 1.66948 8.11115 1.42004 7.79136L1.41984 7.79111C1.19949 7.50897 1.07444 7.15978 1.00841 6.68492C0.95679 6.3137 0.944079 5.89181 0.940956 5.39225L1.1846 5.38387L1.1674 4.38416H0.942668C0.9491 3.88338 0.969029 3.45296 1.02377 3.07898C1.09542 2.58948 1.22128 2.24034 1.41871 1.98133C1.80013 1.48095 2.60382 1.12793 4.56222 1.12793C6.52063 1.12793 7.32432 1.48095 7.70573 1.98133C7.90317 2.24034 8.02902 2.58948 8.10067 3.07898C8.17284 3.57199 8.1845 4.16307 8.1845 4.88416C8.1845 5.61494 8.18351 6.19314 8.11598 6.68182C8.04989 7.16001 7.92477 7.5092 7.7046 7.79111ZM18.374 7.79111L18.3738 7.79136C18.1244 8.11115 17.7602 8.32532 17.2364 8.45934C16.7037 8.59564 16.0393 8.6404 15.2317 8.6404C14.424 8.6404 13.7596 8.59564 13.2269 8.45934C12.7031 8.32532 12.3389 8.11115 12.0895 7.79136L12.0893 7.79111C11.8689 7.50897 11.7439 7.15978 11.6778 6.68492C11.6262 6.3137 11.6135 5.89181 11.6104 5.39225L11.854 5.38387L11.8368 4.38416H11.6121C11.6185 3.88338 11.6385 3.45296 11.6932 3.07898C11.7649 2.58948 11.8907 2.24034 12.0881 1.98133C12.4696 1.48095 13.2732 1.12793 15.2317 1.12793C17.1901 1.12793 17.9937 1.48095 18.3752 1.98133C18.5726 2.24034 18.6985 2.58948 18.7701 3.07898C18.8423 3.57199 18.8539 4.16307 18.8539 4.88416C18.8539 5.61494 18.8529 6.19314 18.7854 6.68182C18.7193 7.16001 18.5942 7.5092 18.374 7.79111ZM4.76458 1.63058L4.7633 1.63058L4.56334 1.63013H4.56222C3.93221 1.63013 3.41658 1.6412 3.00913 1.69858C2.60357 1.75569 2.22947 1.86766 1.94408 2.12971C1.65127 2.39858 1.52632 2.75583 1.46528 3.1338C1.40533 3.50504 1.39687 3.96737 1.39523 4.50915H1.39522L1.39522 4.51091L1.39562 5.36529L1.39564 5.36769C1.39793 5.80323 1.40689 6.2051 1.44756 6.53985C1.48617 6.8577 1.56184 7.20536 1.76281 7.46416L1.7628 7.46416L1.76395 7.46562C2.0085 7.77815 2.41832 7.92722 2.83935 8.01134C3.28287 8.09995 3.85775 8.1382 4.56222 8.1382C5.26683 8.1382 5.84179 8.09969 6.28539 8.01078C6.70658 7.92636 7.11611 7.77694 7.3605 7.46462L7.3612 7.46373C7.59163 7.16786 7.66195 6.74682 7.69488 6.36484C7.72959 5.96211 7.72958 5.46674 7.72958 4.92711V4.9082V4.88194C7.72959 4.27801 7.7296 3.77103 7.68843 3.36865C7.64702 2.96388 7.55746 2.57537 7.30935 2.26973C7.05014 1.95041 6.68609 1.80233 6.28118 1.72608C5.88407 1.6513 5.37931 1.63352 4.76458 1.63058ZM15.434 1.63058L15.4327 1.63058L15.2328 1.63013H15.2317C14.6016 1.63013 14.086 1.6412 13.6786 1.69858C13.273 1.75569 12.8989 1.86766 12.6135 2.12971C12.3207 2.39858 12.1958 2.75583 12.1347 3.1338C12.0748 3.50504 12.0663 3.96737 12.0647 4.50915L12.0647 4.51091L12.0651 5.36529L12.0651 5.36769C12.0674 5.80323 12.0763 6.2051 12.117 6.53985C12.1556 6.8577 12.2313 7.20536 12.4322 7.46416L12.4334 7.46562C12.6779 7.77815 13.0878 7.92722 13.5088 8.01134C13.9523 8.09995 14.5272 8.1382 15.2317 8.1382C15.9363 8.1382 16.5112 8.09969 16.9548 8.01078C17.376 7.92636 17.7855 7.77694 18.0299 7.46462L18.0306 7.46373C18.2611 7.16786 18.3314 6.74682 18.3643 6.36483C18.399 5.96213 18.399 5.46677 18.399 4.92718V4.9082V4.88198C18.399 4.27804 18.399 3.77104 18.3579 3.36865C18.3165 2.96388 18.2269 2.57537 17.9788 2.26973C17.7196 1.95041 17.3555 1.80233 16.9506 1.72608C16.5535 1.6513 16.0487 1.63352 15.434 1.63058ZM4.56153 13.6463C4.56176 13.6463 4.56199 13.6463 4.56222 13.6463L4.7598 13.6467C4.76005 13.6467 4.7603 13.6467 4.76055 13.6467C5.3791 13.6497 5.79939 13.6691 6.09612 13.7249C6.38516 13.7794 6.48375 13.8555 6.53296 13.9161C6.59328 13.9904 6.65793 14.1376 6.69362 14.4866C6.72897 14.8321 6.72958 15.2879 6.72958 15.9243C6.72958 16.487 6.72917 16.9401 6.69857 17.2951C6.66592 17.6739 6.6052 17.8225 6.57267 17.8649C6.55886 17.882 6.45701 17.9726 6.08887 18.0464C5.7405 18.1162 5.24173 18.1543 4.56222 18.1543C3.88257 18.1543 3.38373 18.1165 3.03528 18.0469C2.66844 17.9736 2.56623 17.8835 2.55194 17.8661C2.5273 17.8335 2.47489 17.7205 2.44026 17.4354C2.40739 17.1648 2.39794 16.8159 2.39563 16.3798C2.39563 16.3794 2.39563 16.379 2.39562 16.3786L2.39522 15.5274C2.39692 14.9732 2.40719 14.5899 2.45249 14.3094C2.49674 14.0354 2.56365 13.9346 2.62043 13.8824C2.68463 13.8235 2.81787 13.7515 3.14858 13.7049C3.47727 13.6587 3.92663 13.6463 4.56153 13.6463ZM15.231 13.6463C15.2312 13.6463 15.2314 13.6463 15.2317 13.6463L15.4292 13.6467C15.4295 13.6467 15.4297 13.6467 15.43 13.6467C16.0485 13.6497 16.4688 13.6691 16.7655 13.7249C17.0546 13.7794 17.1532 13.8555 17.2024 13.9161C17.2627 13.9904 17.3274 14.1376 17.3631 14.4866C17.3984 14.8321 17.399 15.2879 17.399 15.9243C17.399 16.487 17.3986 16.9401 17.368 17.2951C17.3354 17.6737 17.2747 17.8224 17.2421 17.8648C17.2284 17.8818 17.1267 17.9726 16.7583 18.0464C16.4099 18.1162 15.9112 18.1543 15.2317 18.1543C14.552 18.1543 14.0532 18.1165 13.7047 18.0469C13.3378 17.9735 13.2356 17.8834 13.2214 17.866C13.1967 17.8335 13.1443 17.7204 13.1097 17.4354C13.0768 17.1648 13.0674 16.8159 13.0651 16.3797C13.0651 16.3793 13.0651 16.3789 13.0651 16.3786L13.0647 15.5275C13.0663 14.9732 13.0766 14.5899 13.1219 14.3094C13.1662 14.0354 13.2331 13.9346 13.2899 13.8824C13.3541 13.8235 13.4873 13.7515 13.818 13.7049C14.1467 13.6587 14.5961 13.6463 15.231 13.6463ZM4.56174 2.63013C4.5619 2.63013 4.56206 2.63013 4.56222 2.63013L4.7598 2.63057C4.76002 2.63057 4.76024 2.63057 4.76046 2.63057C5.37906 2.63354 5.79938 2.65293 6.09612 2.70881C6.38516 2.76324 6.48375 2.83936 6.53296 2.89998C6.59328 2.97429 6.65793 3.12148 6.69362 3.47042C6.72897 3.81592 6.72958 4.27176 6.72958 4.9082C6.72958 5.47087 6.72917 5.92401 6.69857 6.27896C6.66593 6.65764 6.60522 6.8063 6.57269 6.8487C6.55896 6.86574 6.45719 6.95645 6.08887 7.03028C5.7405 7.1001 5.24173 7.1382 4.56222 7.1382C3.88257 7.1382 3.38373 7.10034 3.03528 7.03072C2.66838 6.95741 2.56619 6.8673 2.55193 6.84991C2.52729 6.81734 2.47489 6.70432 2.44026 6.41927C2.40739 6.14864 2.39794 5.79974 2.39563 5.36361C2.39563 5.36321 2.39563 5.36281 2.39562 5.36241L2.39522 4.5113C2.39692 3.95703 2.40719 3.57379 2.45249 3.29323C2.49674 3.01925 2.56365 2.91843 2.62043 2.8663C2.68463 2.80734 2.81787 2.73538 3.14858 2.68881C3.47731 2.64251 3.92673 2.63014 4.56174 2.63013ZM15.2312 2.63013C15.2313 2.63013 15.2315 2.63013 15.2317 2.63013L15.4292 2.63057C15.4294 2.63057 15.4297 2.63057 15.4299 2.63057C16.0485 2.63354 16.4688 2.65293 16.7655 2.70881C17.0546 2.76324 17.1532 2.83936 17.2024 2.89998C17.2627 2.97429 17.3274 3.12148 17.3631 3.47042C17.3984 3.81592 17.399 4.27176 17.399 4.9082C17.399 5.47087 17.3986 5.92401 17.368 6.27896C17.3354 6.65757 17.2747 6.80625 17.2421 6.84867C17.2285 6.86566 17.1268 6.95642 16.7583 7.03028C16.4099 7.1001 15.9112 7.1382 15.2317 7.1382C14.552 7.1382 14.0532 7.10034 13.7047 7.03072C13.3379 6.95742 13.2357 6.86734 13.2214 6.84992C13.1967 6.81736 13.1443 6.70434 13.1097 6.41926C13.0768 6.14863 13.0674 5.79972 13.0651 5.36356C13.0651 5.36318 13.0651 5.3628 13.0651 5.36241L13.0647 4.51141C13.0663 3.95708 13.0766 3.57381 13.1219 3.29323C13.1662 3.01925 13.2331 2.91843 13.2899 2.8663C13.3541 2.80734 13.4873 2.73538 13.818 2.68881C14.1467 2.64251 14.5962 2.63014 15.2312 2.63013Z" stroke="black"/>
</svg>
