<svg width="16" height="15" viewBox="0 0 16 15" fill="none" xmlns="http://www.w3.org/2000/svg">
<path d="M13.25 0H2.75C2.15326 0 1.58097 0.237053 1.15901 0.65901C0.737053 1.08097 0.5 1.65326 0.5 2.25V3.1275C0.499893 3.43721 0.563725 3.7436 0.6875 4.0275V4.0725C0.79346 4.31323 0.943544 4.532 1.13 4.7175L5.75 9.3075V14.25C5.74974 14.3775 5.78198 14.5029 5.84365 14.6144C5.90533 14.726 5.99442 14.8199 6.1025 14.8875C6.22186 14.9615 6.35958 15.0005 6.5 15C6.61741 14.9993 6.73301 14.971 6.8375 14.9175L9.8375 13.4175C9.96119 13.3552 10.0652 13.2598 10.138 13.142C10.2108 13.0242 10.2496 12.8885 10.25 12.75V9.3075L14.84 4.7175C15.0265 4.532 15.1765 4.31323 15.2825 4.0725V4.0275C15.4166 3.74582 15.4907 3.43933 15.5 3.1275V2.25C15.5 1.65326 15.2629 1.08097 14.841 0.65901C14.419 0.237053 13.8467 0 13.25 0ZM8.9675 8.4675C8.89799 8.53758 8.843 8.62069 8.80567 8.71207C8.76835 8.80345 8.74943 8.90129 8.75 9V12.285L7.25 13.035V9C7.25057 8.90129 7.23165 8.80345 7.19433 8.71207C7.157 8.62069 7.10201 8.53758 7.0325 8.4675L3.0575 4.5H12.9425L8.9675 8.4675ZM14 3H2V2.25C2 2.05109 2.07902 1.86032 2.21967 1.71967C2.36032 1.57902 2.55109 1.5 2.75 1.5H13.25C13.4489 1.5 13.6397 1.57902 13.7803 1.71967C13.921 1.86032 14 2.05109 14 2.25V3Z" fill="#373B5C"/>
</svg>
