<svg width="21" height="21" viewBox="0 0 21 21" fill="none" xmlns="http://www.w3.org/2000/svg">
<g clip-path="url(#clip0_137_33938)">
<path d="M4.60792 8.54396C5.42394 6.0713 7.74764 4.29545 10.5 4.29545C11.9795 4.29545 13.3159 4.82045 14.3659 5.67954L17.4205 2.625C15.5591 1.00227 13.1727 0 10.5 0C6.36131 0 2.79803 2.36101 1.08499 5.81877L4.60792 8.54396Z" fill="#EA4335"/>
<path d="M14.0357 15.761C13.0821 16.3767 11.8703 16.7045 10.5 16.7045C7.75819 16.7045 5.44174 14.9422 4.61737 12.4844L1.08279 15.1681C2.79371 18.6319 6.35689 21 10.5 21C13.0662 21 15.5184 20.0877 17.3549 18.3746L14.0357 15.761Z" fill="#34A853"/>
<path d="M17.3549 18.3745C19.2755 16.583 20.5227 13.9156 20.5227 10.4999C20.5227 9.87946 20.4273 9.21127 20.2841 8.59082H10.5V12.6476H16.1318C15.8539 14.0118 15.108 15.0685 14.0356 15.7609L17.3549 18.3745Z" fill="#4A90E2"/>
<path d="M4.61736 12.4845C4.40854 11.8619 4.29545 11.1946 4.29545 10.5001C4.29545 9.81607 4.40513 9.15854 4.60792 8.54404L1.08499 5.81885C0.382014 7.22795 0 8.81604 0 10.5001C0 12.1797 0.389183 13.764 1.08278 15.1682L4.61736 12.4845Z" fill="#FBBC05"/>
</g>
<defs>
<clipPath id="clip0_137_33938">
<rect width="21" height="21" rx="10" fill="white"/>
</clipPath>
</defs>
</svg>
