<svg width="22" height="21" viewBox="0 0 22 21" fill="none" xmlns="http://www.w3.org/2000/svg">
<path fill-rule="evenodd" clip-rule="evenodd" d="M9.78967 0.681641C12.2393 0.681641 14.2322 2.67456 14.2322 5.12415V6.05752C14.2322 6.47212 13.8957 6.80862 13.4811 6.80862C13.0665 6.80862 12.73 6.47212 12.73 6.05752V5.12415C12.73 3.50177 11.411 2.18384 9.78967 2.18384H4.90752C3.28815 2.18384 1.97022 3.50177 1.97022 5.12415V16.2695C1.97022 17.8908 3.28815 19.2088 4.90752 19.2088H9.80069C11.4151 19.2088 12.73 17.8949 12.73 16.2805V15.3361C12.73 14.9215 13.0665 14.585 13.4811 14.585C13.8957 14.585 14.2322 14.9215 14.2322 15.3361V16.2805C14.2322 18.7241 12.2433 20.711 9.80069 20.711H4.90752C2.45994 20.711 0.468018 18.7191 0.468018 16.2695V5.12415C0.468018 2.67456 2.45994 0.681641 4.90752 0.681641H9.78967ZM17.8816 7.24525L20.8139 10.1645C20.8401 10.1905 20.8635 10.2175 20.8849 10.246L20.8139 10.1645C20.8494 10.1995 20.881 10.2377 20.9083 10.2785C20.9204 10.297 20.932 10.3161 20.9428 10.3357C20.9515 10.351 20.9596 10.367 20.967 10.3833C20.9733 10.3977 20.9794 10.4121 20.985 10.4267C20.9926 10.4457 20.9992 10.4653 21.005 10.4851C21.0094 10.5007 21.0134 10.5163 21.0169 10.5321C21.0214 10.5512 21.0249 10.5704 21.0277 10.5898C21.0292 10.6024 21.0308 10.6157 21.032 10.629C21.0343 10.6518 21.0352 10.674 21.0352 10.6963L21.0301 10.7584L21.0281 10.7982C21.0279 10.7999 21.0276 10.8016 21.0274 10.8033L21.0352 10.6963C21.0352 10.7519 21.0291 10.8069 21.0171 10.8605C21.0134 10.8763 21.0094 10.8919 21.0049 10.9073C20.9992 10.9273 20.9926 10.9469 20.9852 10.9662C20.9794 10.9805 20.9733 10.9949 20.9669 11.0091C20.9596 11.0256 20.9515 11.0416 20.9429 11.0573C20.932 11.0766 20.9204 11.0956 20.908 11.1142C20.9009 11.1251 20.8932 11.136 20.8852 11.1466C20.8614 11.178 20.8354 11.2075 20.8073 11.2348L17.8816 14.1484C17.7354 14.2946 17.5431 14.3677 17.3519 14.3677C17.1596 14.3677 16.9663 14.2946 16.8201 14.1464C16.5276 13.8519 16.5286 13.3772 16.8221 13.0848L18.4644 11.4474H8.22518C7.81057 11.4474 7.47408 11.1109 7.47408 10.6963C7.47408 10.2817 7.81057 9.94521 8.22518 9.94521H18.4664L16.8221 8.30881C16.5286 8.01639 16.5266 7.54169 16.8201 7.24726C17.1125 6.95283 17.5872 6.95283 17.8816 7.24525Z" fill="#15182E"/>
</svg>
