<svg width="20" height="22" viewBox="0 0 20 22" fill="none" xmlns="http://www.w3.org/2000/svg">
<g clip-path="url(#clip0_152_34475)">
<path d="M5.48904 7.87194C6.04588 7.61679 6.5215 7.18522 6.8557 6.63188C7.18989 6.07853 7.36761 5.42831 7.36637 4.76354C7.37789 4.08953 7.20495 3.42733 6.87008 2.86327C6.53521 2.2992 6.05395 1.85944 5.48904 1.60132C5.1031 1.42523 4.6885 1.33822 4.27086 1.34565C3.66776 1.34456 3.078 1.5413 2.57663 1.91082C2.07356 2.27924 1.6816 2.80471 1.4509 3.42004C1.2202 4.03536 1.16123 4.71257 1.28155 5.36504C1.39751 6.01901 1.68558 6.61916 2.11157 7.09147C2.53948 7.55114 3.07639 7.8683 3.66055 8.0065V14.853C3.07465 14.9889 2.53757 15.3065 2.11157 15.7681C1.68558 16.239 1.39751 16.8405 1.28155 17.4945C1.16171 18.1467 1.22104 18.8235 1.45196 19.4383C1.68287 20.0532 2.07488 20.5781 2.57785 20.946C3.07904 21.3158 3.669 21.5121 4.27208 21.5098C4.69074 21.5202 5.10666 21.4331 5.49271 21.2542C6.05821 20.9974 6.54009 20.5581 6.87511 19.994C7.21014 19.43 7.38265 18.7674 7.37003 18.0933C7.368 17.3188 7.1246 16.5686 6.6806 15.9684C6.2366 15.3682 5.61898 14.9545 4.93122 14.7965V8.05898C4.93122 8.05898 5.30961 7.95402 5.49027 7.87328L5.48904 7.87194ZM5.25835 16.4301C5.47147 16.5702 5.65653 16.7566 5.80229 16.978C5.94805 17.1994 6.05147 17.4511 6.10627 17.718C6.16107 17.9848 6.1661 18.2611 6.12105 18.5301C6.07601 18.7991 5.98183 19.0552 5.84425 19.2828C5.63928 19.6167 5.35099 19.8779 5.01422 20.035C4.68159 20.1842 4.31637 20.2217 3.96448 20.1427C3.60787 20.0672 3.27999 19.8756 3.02322 19.5925C2.76645 19.3094 2.5926 18.948 2.52415 18.5549C2.45234 18.1669 2.48632 17.7643 2.6218 17.3976C2.76461 17.0262 3.00263 16.7087 3.30535 16.4826C3.60535 16.2622 3.95798 16.1452 4.31846 16.1462C4.64925 16.1421 4.97516 16.2404 5.25835 16.4301ZM4.31846 6.7147C3.9583 6.71335 3.60627 6.59646 3.30535 6.37829C3.00206 6.15252 2.76464 5.8347 2.6218 5.46327C2.48639 5.09659 2.45241 4.69395 2.52415 4.30603C2.59267 3.91307 2.76656 3.55181 3.02334 3.26897C3.28012 2.98614 3.60797 2.79474 3.96448 2.71954C4.31636 2.64038 4.68162 2.67784 5.01422 2.82719C5.35111 2.98463 5.63918 3.24702 5.84425 3.58074C6.02868 3.88433 6.13435 4.23771 6.14984 4.6027C6.16532 4.96769 6.09004 5.3304 5.93213 5.65165C5.77467 5.97302 5.54202 6.24205 5.25835 6.43077C4.97516 6.61378 4.64925 6.7147 4.31846 6.7147Z" fill="#373B5C"/>
<path fill-rule="evenodd" clip-rule="evenodd" d="M18.3751 18.1658C18.3751 19.058 18.0536 19.9137 17.4813 20.5446C16.909 21.1755 16.1329 21.5299 15.3235 21.5299C14.5142 21.5299 13.738 21.1755 13.1658 20.5446C12.5935 19.9137 12.272 19.058 12.272 18.1658C12.272 17.2736 12.5935 16.418 13.1658 15.7871C13.738 15.1562 14.5142 14.8018 15.3235 14.8018C16.1329 14.8018 16.909 15.1562 17.4813 15.7871C18.0536 16.418 18.3751 17.2736 18.3751 18.1658ZM15.3235 20.1843C15.8091 20.1843 16.2748 19.9716 16.6182 19.5931C16.9616 19.2145 17.1545 18.7011 17.1545 18.1658C17.1545 17.6305 16.9616 17.1171 16.6182 16.7386C16.2748 16.36 15.8091 16.1474 15.3235 16.1474C14.8379 16.1474 14.3722 16.36 14.0289 16.7386C13.6855 17.1171 13.4926 17.6305 13.4926 18.1658C13.4926 18.7011 13.6855 19.2145 14.0289 19.5931C14.3722 19.9716 14.8379 20.1843 15.3235 20.1843Z" fill="#373B5C"/>
<path d="M15.3237 11.7757C15.9978 11.7757 16.5443 11.1733 16.5443 10.4301C16.5443 9.68693 15.9978 9.08447 15.3237 9.08447C14.6495 9.08447 14.103 9.68693 14.103 10.4301C14.103 11.1733 14.6495 11.7757 15.3237 11.7757Z" fill="#373B5C"/>
<path d="M15.3237 6.05648C15.9978 6.05648 16.5443 5.45403 16.5443 4.71086C16.5443 3.96769 15.9978 3.36523 15.3237 3.36523C14.6495 3.36523 14.103 3.96769 14.103 4.71086C14.103 5.45403 14.6495 6.05648 15.3237 6.05648Z" fill="#373B5C"/>
</g>
<defs>
<clipPath id="clip0_152_34475">
<rect width="19.53" height="21.53" fill="white"/>
</clipPath>
</defs>
</svg>
