<svg width="57" height="40" viewBox="0 0 57 40" fill="none" xmlns="http://www.w3.org/2000/svg">
<g clip-path="url(#clip0_152_34394)">
<path d="M28.9884 39.9151C30.6956 39.9151 32.0795 38.5311 32.0795 36.824C32.0795 35.1168 30.6956 33.7329 28.9884 33.7329C27.2813 33.7329 25.8974 35.1168 25.8974 36.824C25.8974 38.5311 27.2813 39.9151 28.9884 39.9151Z" fill="#1E2875"/>
<path d="M47.4547 39.7416C49.184 39.2223 51.0225 38.6807 52.3939 37.4461C53.6195 36.3429 54.4468 34.6582 53.9391 33.0036C53.4325 31.3524 51.9149 30.2514 50.348 29.7038C49.4593 29.3933 48.5296 29.221 47.6002 29.0856C46.5899 28.9385 45.5751 28.8179 44.5608 28.7019C40.4539 28.2322 36.3314 27.9452 32.1936 27.841C30.1518 27.7896 28.1104 27.7909 26.0684 27.8205C24.2447 27.847 22.324 27.8463 20.6322 27.0712C19.3166 26.4685 18.1225 25.3719 17.7559 23.9308C17.3328 22.2674 18.1133 20.5734 19.2329 19.3687C19.8231 18.7337 20.5128 18.1992 21.2244 17.7077C21.9963 17.1746 22.7951 16.6792 23.6113 16.2168C25.2187 15.3064 26.8992 14.5317 28.6354 13.9006C29.4919 13.5891 30.3611 13.3205 31.2378 13.0726C31.9781 12.8633 32.7207 12.6537 33.4362 12.3685C34.8194 11.8173 36.1349 10.8835 36.4866 9.35262C36.8199 7.90173 36.2579 6.32668 35.2727 5.24884C34.1328 4.00186 32.4142 3.45522 30.7664 3.36678C28.9166 3.26748 27.1094 3.73045 25.3707 4.31801C23.5163 4.94469 21.7018 5.66527 19.8082 6.17288C17.9305 6.67574 16.0164 7.03154 14.0833 7.23705C13.137 7.33781 12.1621 7.45159 11.2102 7.37445C10.4124 7.3098 9.61868 7.07517 9.03071 6.50897C8.52656 6.02349 8.22623 5.35627 8.32949 4.65215C8.34824 4.52426 8.54252 4.57863 8.52388 4.70574C8.39819 5.56285 8.98081 6.35266 9.69877 6.75723C10.5285 7.22481 11.5382 7.22545 12.462 7.17197C14.4651 7.05099 16.4546 6.76339 18.41 6.31214C20.3313 5.8733 22.184 5.24597 24.0347 4.57582C25.7923 3.93936 27.5892 3.31817 29.4669 3.18032C31.0962 3.0607 32.8101 3.29806 34.2295 4.14951C35.4769 4.89782 36.3942 6.14576 36.6865 7.5778C36.9721 8.97716 36.5765 10.3856 35.5173 11.3622C34.4205 12.3732 32.9167 12.8055 31.5152 13.2036C29.7377 13.7086 27.9983 14.2988 26.3147 15.0652C24.6081 15.8398 22.9714 16.76 21.4227 17.8154C19.9278 18.837 18.4525 20.1224 17.9797 21.9448C17.7595 22.7937 17.8002 23.6941 18.1687 24.4959C18.4963 25.2089 19.0359 25.8086 19.6646 26.2712C21.1645 27.3749 23.0549 27.6015 24.8666 27.624C26.9014 27.6493 28.9363 27.5807 30.9718 27.6141C35.1201 27.6821 39.2599 27.9346 43.3912 28.3716C44.4263 28.4811 45.4602 28.6022 46.4928 28.7349C47.4216 28.8542 48.3535 28.9728 49.2666 29.1848C50.8903 29.5616 52.4702 30.2862 53.4794 31.6629C53.9272 32.2596 54.2047 32.9667 54.2822 33.7088C54.3528 34.4831 54.1632 35.2589 53.8131 35.9478C53.0382 37.4726 51.5866 38.4424 50.0451 39.0795C49.2195 39.4208 48.3631 39.6793 47.5083 39.936C47.3838 39.9734 47.3306 39.7789 47.4547 39.7416Z" fill="#F2F2F2"/>
<path d="M8.45966 6.28309C9.35035 6.28309 10.0724 5.56104 10.0724 4.67035C10.0724 3.77966 9.35035 3.05762 8.45966 3.05762C7.56897 3.05762 6.84692 3.77966 6.84692 4.67035C6.84692 5.56104 7.56897 6.28309 8.45966 6.28309Z" fill="#F2F2F2"/>
<path d="M19.648 9.34022C20.5387 9.34022 21.2608 8.61817 21.2608 7.72748C21.2608 6.83679 20.5387 6.11475 19.648 6.11475C18.7573 6.11475 18.0353 6.83679 18.0353 7.72748C18.0353 8.61817 18.7573 9.34022 19.648 9.34022Z" fill="#F2F2F2"/>
<path d="M29.1228 3.22547C30.0135 3.22547 30.7356 2.50343 30.7356 1.61274C30.7356 0.722047 30.0135 0 29.1228 0C28.2321 0 27.5101 0.722047 27.5101 1.61274C27.5101 2.50343 28.2321 3.22547 29.1228 3.22547Z" fill="#F2F2F2"/>
<path d="M35.0362 10.0795C35.9269 10.0795 36.649 9.35743 36.649 8.46674C36.649 7.57605 35.9269 6.854 35.0362 6.854C34.1455 6.854 33.4235 7.57605 33.4235 8.46674C33.4235 9.35743 34.1455 10.0795 35.0362 10.0795Z" fill="#F2F2F2"/>
<path d="M27.0397 18.0087C27.9304 18.0087 28.6525 17.2866 28.6525 16.3959C28.6525 15.5052 27.9304 14.7832 27.0397 14.7832C26.149 14.7832 25.427 15.5052 25.427 16.3959C25.427 17.2866 26.149 18.0087 27.0397 18.0087Z" fill="#F2F2F2"/>
<path d="M16.8929 21.8392C17.7836 21.8392 18.5057 21.1172 18.5057 20.2265C18.5057 19.3358 17.7836 18.6138 16.8929 18.6138C16.0022 18.6138 15.2802 19.3358 15.2802 20.2265C15.2802 21.1172 16.0022 21.8392 16.8929 21.8392Z" fill="#F2F2F2"/>
<path d="M27.6445 27.8197C28.5352 27.8197 29.2572 27.0977 29.2572 26.207C29.2572 25.3163 28.5352 24.5942 27.6445 24.5942C26.7538 24.5942 26.0318 25.3163 26.0318 26.207C26.0318 27.0977 26.7538 27.8197 27.6445 27.8197Z" fill="#F2F2F2"/>
<path d="M39.2025 31.1796C40.0931 31.1796 40.8152 30.4575 40.8152 29.5668C40.8152 28.6761 40.0931 27.9541 39.2025 27.9541C38.3118 27.9541 37.5897 28.6761 37.5897 29.5668C37.5897 30.4575 38.3118 31.1796 39.2025 31.1796Z" fill="#F2F2F2"/>
<path d="M52.7091 30.4403C53.5998 30.4403 54.3218 29.7183 54.3218 28.8276C54.3218 27.9369 53.5998 27.2148 52.7091 27.2148C51.8184 27.2148 51.0964 27.9369 51.0964 28.8276C51.0964 29.7183 51.8184 30.4403 52.7091 30.4403Z" fill="#F2F2F2"/>
<path d="M28.6573 4.56957C23.8264 4.60369 19.8709 8.5295 19.8023 13.3601C19.8016 13.4047 19.8013 13.7183 19.8014 14.1284C19.8014 14.7298 20.0403 15.3066 20.4655 15.7318C20.8908 16.1571 21.4675 16.396 22.0689 16.3961C22.367 16.396 22.6622 16.3372 22.9375 16.223C23.2129 16.1088 23.4631 15.9415 23.6738 15.7306C23.8845 15.5197 24.0515 15.2693 24.1654 14.9938C24.2793 14.7183 24.3378 14.4231 24.3375 14.125C24.3373 13.8459 24.3372 13.6528 24.3372 13.641C24.337 12.8944 24.5312 12.1607 24.9006 11.5119C25.2701 10.8632 25.802 10.3218 26.4441 9.94098C27.0863 9.56017 27.8165 9.35308 28.5629 9.34008C29.3094 9.32708 30.0463 9.50862 30.7014 9.86683C31.3564 10.225 31.9068 10.7476 32.2986 11.3831C32.6904 12.0186 32.9101 12.7451 32.9359 13.4912C32.9617 14.2373 32.7929 14.9773 32.446 15.6384C32.0991 16.2995 31.5861 16.8589 30.9575 17.2615L30.9582 17.2625C30.9582 17.2625 27.7309 19.3402 26.7469 22.1904L26.7478 22.1906C26.5747 22.7745 26.4871 23.3804 26.4875 23.9894C26.4875 24.2397 26.5022 26.4301 26.5307 28.2079C26.5406 28.8213 26.7913 29.4062 27.2287 29.8364C27.666 30.2666 28.255 30.5077 28.8685 30.5075C29.1767 30.5075 29.4819 30.4465 29.7666 30.3281C30.0512 30.2097 30.3095 30.0362 30.5268 29.8175C30.7441 29.5989 30.9161 29.3394 31.0327 29.0541C31.1493 28.7687 31.2084 28.4632 31.2065 28.1549C31.1966 26.5268 31.1913 24.631 31.1913 24.4934C31.1913 22.7432 32.8796 20.9994 34.2665 19.8623C35.8635 18.5528 37.0127 16.7683 37.4743 14.7553C37.5764 14.3409 37.6327 13.9165 37.6422 13.4898C37.6422 12.3129 37.4094 11.1477 36.957 10.0612C36.5047 8.97473 35.8418 7.9885 35.0067 7.15933C34.1715 6.33017 33.1805 5.67446 32.0908 5.22999C31.0011 4.78552 29.8342 4.56107 28.6573 4.56957Z" fill="#1E2875"/>
<path d="M56.6799 39.9999H0.0800236C0.0588435 39.9998 0.0385524 39.9913 0.0235975 39.9764C0.00864263 39.9614 0.000244141 39.941 0.000244141 39.9199C0.000244141 39.8987 0.00864263 39.8784 0.0235975 39.8634C0.0385524 39.8484 0.0588435 39.8399 0.0800236 39.8398H56.6799C56.7012 39.8398 56.7215 39.8483 56.7365 39.8633C56.7515 39.8783 56.76 39.8986 56.76 39.9199C56.76 39.9411 56.7515 39.9614 56.7365 39.9764C56.7215 39.9914 56.7012 39.9999 56.6799 39.9999Z" fill="#373B5C"/>
<path d="M42.2301 18.3448C43.3435 18.3448 44.246 17.4423 44.246 16.3289C44.246 15.2155 43.3435 14.313 42.2301 14.313C41.1167 14.313 40.2142 15.2155 40.2142 16.3289C40.2142 17.4423 41.1167 18.3448 42.2301 18.3448Z" fill="#15182E"/>
<path d="M38.5049 39.1176H37.6811L37.2892 35.9399H38.5051L38.5049 39.1176Z" fill="#A0616A"/>
<path d="M37.0926 38.8823H38.6814V39.8827H36.0923C36.0923 39.7513 36.1182 39.6212 36.1684 39.4999C36.2187 39.3785 36.2924 39.2682 36.3853 39.1753C36.4782 39.0824 36.5885 39.0087 36.7098 38.9585C36.8312 38.9082 36.9613 38.8823 37.0926 38.8823Z" fill="#15182E"/>
<path d="M44.8886 39.1176H44.0649L43.6729 35.9399H44.8889L44.8886 39.1176Z" fill="#A0616A"/>
<path d="M43.4764 38.8823H45.0652V39.8827H42.476C42.476 39.7513 42.5019 39.6212 42.5522 39.4999C42.6025 39.3785 42.6761 39.2682 42.769 39.1753C42.8619 39.0824 42.9722 39.0087 43.0936 38.9585C43.2149 38.9082 43.345 38.8823 43.4764 38.8823Z" fill="#15182E"/>
<path d="M41.9238 18.3565C42.8353 18.3565 43.5742 17.6176 43.5742 16.7061C43.5742 15.7946 42.8353 15.0557 41.9238 15.0557C41.0122 15.0557 40.2733 15.7946 40.2733 16.7061C40.2733 17.6176 41.0122 18.3565 41.9238 18.3565Z" fill="#A0616A"/>
<path d="M42.9075 23.6806L43.6459 21.9838C43.8253 21.5858 43.8767 21.1419 43.793 20.7134C43.7094 20.2849 43.4948 19.893 43.1789 19.5916C43.1141 19.5275 43.0451 19.4675 42.9726 19.4122C42.6082 19.1271 42.1592 18.9718 41.6966 18.9707C41.3855 18.9719 41.0784 19.0402 40.7961 19.171C40.7719 19.1817 40.7484 19.1931 40.7242 19.2046C40.6778 19.2267 40.6322 19.2509 40.5878 19.2758C40.2985 19.4419 40.0523 19.6736 39.8691 19.9524C39.6858 20.2311 39.5706 20.549 39.5328 20.8805L39.2069 23.6114C39.1249 23.8257 36.2005 31.5668 37.2232 37.4769C37.2341 37.54 37.2649 37.5979 37.3111 37.6423C37.3573 37.6867 37.4164 37.7151 37.4799 37.7235L38.5168 37.8646C38.5925 37.8749 38.6693 37.8562 38.7318 37.8122C38.7942 37.7682 38.8377 37.7022 38.8534 37.6274L40.5932 29.3346C40.604 29.283 40.6318 29.2366 40.6721 29.2028C40.7125 29.1689 40.763 29.1495 40.8156 29.1477C40.8682 29.146 40.9199 29.1619 40.9624 29.1929C41.0049 29.224 41.0358 29.2684 41.0501 29.3191L43.5082 38.04C43.5257 38.1033 43.5635 38.1592 43.6158 38.199C43.6681 38.2388 43.7321 38.2604 43.7978 38.2604C43.8174 38.2603 43.837 38.2585 43.8563 38.255L45.1229 38.0111C45.1966 37.9973 45.2624 37.9565 45.3075 37.8967C45.3527 37.8369 45.3738 37.7624 45.3669 37.6879C45.1807 35.6121 44.1916 25.2147 42.9075 23.6806Z" fill="#15182E"/>
<path d="M35.5097 18.0796C35.4983 18.1777 35.5085 18.2772 35.5396 18.3709C35.5707 18.4647 35.622 18.5504 35.6899 18.6222C35.7578 18.694 35.8406 18.75 35.9324 18.7863C36.0243 18.8227 36.123 18.8384 36.2216 18.8324L37.1442 21.0494L37.842 20.015L36.859 18.0683C36.838 17.9033 36.7572 17.7517 36.6319 17.6423C36.5067 17.5329 36.3456 17.4732 36.1793 17.4746C36.013 17.476 35.853 17.5384 35.7296 17.6499C35.6062 17.7614 35.5279 17.9143 35.5097 18.0796Z" fill="#A0616A"/>
<path d="M41.8322 25.9129C41.9303 25.9012 42.0246 25.8681 42.1085 25.816C42.1925 25.7639 42.2639 25.694 42.3179 25.6112C42.3719 25.5285 42.4071 25.435 42.421 25.3371C42.4349 25.2393 42.4272 25.1397 42.3985 25.0452L44.3395 23.6315L43.1709 23.1938L41.5068 24.6034C41.3513 24.6623 41.2227 24.7762 41.1455 24.9235C41.0683 25.0708 41.0478 25.2413 41.0879 25.4027C41.128 25.5641 41.2259 25.7052 41.3631 25.7992C41.5003 25.8933 41.6672 25.9337 41.8322 25.9129Z" fill="#A0616A"/>
<path d="M38.668 22.5272C38.5936 22.5271 38.5194 22.5198 38.4464 22.5053C38.2698 22.4717 38.1043 22.3952 37.9643 22.2825C37.8242 22.1698 37.7141 22.0244 37.6435 21.8591L36.351 20.2831C36.3237 20.2498 36.3038 20.2111 36.2927 20.1694C36.2816 20.1278 36.2795 20.0843 36.2866 20.0418C36.2936 19.9993 36.3097 19.9587 36.3337 19.923C36.3577 19.8872 36.3891 19.8569 36.4257 19.8342L37.3453 19.265C37.3792 19.244 37.417 19.2299 37.4564 19.2236C37.4958 19.2172 37.5361 19.2187 37.575 19.2281C37.6138 19.2374 37.6504 19.2543 37.6826 19.2778C37.7149 19.3013 37.7422 19.331 37.7629 19.3652L38.6739 20.8659L40.4184 19.5767C40.5573 19.5038 40.7178 19.4834 40.8705 19.5191C41.0232 19.5548 41.158 19.6443 41.2502 19.7712C41.3424 19.898 41.3859 20.0538 41.3727 20.2101C41.3595 20.3664 41.2905 20.5127 41.1784 20.6224L39.4372 22.2107C39.2326 22.4135 38.9561 22.5273 38.668 22.5272Z" fill="#15182E"/>
<path d="M43.3819 24.8973C43.3796 24.8973 43.3772 24.8973 43.3748 24.8972C43.3324 24.8962 43.2907 24.8863 43.2524 24.8681C43.2141 24.8499 43.18 24.8239 43.1523 24.7917L42.3348 23.8379C42.307 23.8055 42.2863 23.7674 42.2743 23.7264C42.2622 23.6853 42.259 23.6422 42.2648 23.5998C42.2707 23.5574 42.2854 23.5168 42.3082 23.4805C42.3309 23.4443 42.3611 23.4133 42.3967 23.3895L43.9275 22.369L42.5407 20.7016C42.46 20.5672 42.4304 20.4081 42.4573 20.2536C42.4842 20.0991 42.5658 19.9594 42.6871 19.8601C42.8085 19.7608 42.9616 19.7084 43.1184 19.7126C43.2751 19.7168 43.4252 19.7773 43.541 19.883L45.2266 21.5302C45.3592 21.6514 45.4605 21.803 45.5217 21.9719C45.5829 22.1408 45.6022 22.3221 45.5779 22.5001C45.5536 22.6782 45.4865 22.8476 45.3823 22.994C45.2781 23.1404 45.1399 23.2593 44.9796 23.3405L43.602 24.8023C43.5737 24.8323 43.5396 24.8562 43.5017 24.8725C43.4639 24.8888 43.4231 24.8973 43.3819 24.8973Z" fill="#15182E"/>
<path d="M41.5041 21.383C41.491 21.383 41.4779 21.3822 41.4648 21.3805C41.4079 21.3736 41.3542 21.3505 41.31 21.3139C41.2658 21.2774 41.233 21.2289 41.2155 21.1743L40.6012 19.2908C40.5858 19.2432 40.5881 19.1916 40.6078 19.1456C40.6275 19.0996 40.6632 19.0623 40.7083 19.0405L40.7282 19.0311C40.7463 19.0225 40.7642 19.014 40.7825 19.0059C41.0689 18.873 41.3808 18.8037 41.6965 18.8027C42.1065 18.8035 42.5073 18.9239 42.8497 19.1493C42.8957 19.1798 42.9277 19.2272 42.9391 19.2812C42.9504 19.3351 42.9401 19.3914 42.9103 19.4378L41.7579 21.2433C41.7309 21.2861 41.6934 21.3214 41.649 21.3459C41.6046 21.3703 41.5548 21.3831 41.5041 21.383Z" fill="#E6E6E6"/>
<path d="M43.8195 15.4287C44.1838 15.4287 44.4791 15.1333 44.4791 14.769C44.4791 14.4047 44.1838 14.1094 43.8195 14.1094C43.4552 14.1094 43.1598 14.4047 43.1598 14.769C43.1598 15.1333 43.4552 15.4287 43.8195 15.4287Z" fill="#15182E"/>
<path d="M41.5581 14.0439C41.0948 14.0439 40.6504 14.228 40.3227 14.5557C39.9951 14.8833 39.811 15.3277 39.811 15.7911V16.5302H40.7201L41.155 15.7911L41.2854 16.5302H44.0444L43.3053 15.7911C43.3053 15.3277 43.1212 14.8833 42.7935 14.5557C42.4659 14.228 42.0215 14.0439 41.5581 14.0439Z" fill="#15182E"/>
<path d="M44.1585 14.3173C44.2315 14.0892 44.3825 13.8941 44.585 13.7664C44.7876 13.6386 45.0287 13.5863 45.266 13.6187C45.6864 13.689 46.0187 14.0269 46.2168 14.4044C46.4148 14.7818 46.5063 15.2042 46.6394 15.6091C46.7725 16.014 46.9614 16.4211 47.2975 16.6831C47.6336 16.9452 48.1493 17.0163 48.4795 16.7467C48.4417 17.0277 48.3166 17.2897 48.1219 17.4957C47.9271 17.7017 47.6724 17.8413 47.394 17.8946C47.1156 17.948 46.8274 17.9124 46.5702 17.793C46.3131 17.6736 46.1 17.4764 45.9611 17.2293C45.7869 16.9194 45.7419 16.5562 45.6903 16.2045C45.6386 15.8527 45.5715 15.4888 45.3636 15.2005C45.1556 14.9122 44.7663 14.7239 44.436 14.8552L44.1585 14.3173Z" fill="#15182E"/>
<path d="M22.7091 15.3234C22.1077 15.3234 21.531 15.0844 21.1058 14.6592C20.6805 14.2339 20.4416 13.6572 20.4416 13.0558C20.4416 12.6456 20.4419 12.332 20.4425 12.2874C20.4616 10.8826 20.8154 9.5025 21.4746 8.26172C20.3916 9.74429 19.7961 11.5268 19.7705 13.3626C19.7699 13.4072 19.7696 13.7208 19.7696 14.1309C19.7697 14.7323 20.0086 15.3091 20.4338 15.7343C20.859 16.1596 21.4358 16.3985 22.0371 16.3986C22.5313 16.3984 23.0119 16.2369 23.4059 15.9387C23.8 15.6404 24.0859 15.2217 24.2202 14.7462C23.805 15.1185 23.2668 15.3241 22.7091 15.3234Z" fill="#373B5C"/>
<path d="M28.811 9.34768C29.5063 9.38088 30.1831 9.58233 30.7833 9.93471C31.3835 10.2871 31.8893 10.7799 32.2571 11.3708C32.6249 11.9617 32.8439 12.633 32.8951 13.3272C32.9463 14.0213 32.8283 14.7175 32.5512 15.356C32.952 14.8853 33.2466 14.3336 33.4149 13.7387C33.5832 13.1438 33.6213 12.5196 33.5265 11.9086C33.4317 11.2976 33.2062 10.7143 32.8656 10.1984C32.5249 9.68242 32.0769 9.24601 31.5523 8.91888C31.0277 8.59174 30.4387 8.38157 29.8255 8.30271C29.2122 8.22384 28.5892 8.27813 27.9989 8.46187C27.4085 8.64561 26.8648 8.95448 26.4046 9.36742C25.9445 9.78037 25.5788 10.2877 25.3325 10.8548C25.7582 10.354 26.2932 9.95764 26.8963 9.69634C27.4995 9.43504 28.1545 9.31575 28.811 9.34768Z" fill="#373B5C"/>
<path d="M29.5087 29.4352C28.8952 29.4353 28.3062 29.1943 27.8689 28.7641C27.4315 28.3339 27.1808 27.7489 27.1709 27.1355C27.1424 25.3577 27.1277 23.1674 27.1277 22.9171C27.1273 22.3081 27.215 21.7022 27.388 21.1183L27.3872 21.1181C27.4893 20.825 27.6127 20.5398 27.7564 20.2646C27.3154 20.8522 26.9645 21.5022 26.7152 22.1933L26.716 22.1935C26.543 22.7774 26.4553 23.3832 26.4557 23.9922C26.4557 24.2425 26.4705 26.4329 26.4989 28.2107C26.5089 28.8241 26.7596 29.409 27.1969 29.8392C27.6343 30.2694 28.2232 30.5105 28.8367 30.5104C29.3425 30.5103 29.8347 30.3462 30.2394 30.0427C30.6441 29.7392 30.9394 29.3127 31.0812 28.8272C30.6514 29.2191 30.0904 29.436 29.5087 29.4352Z" fill="#373B5C"/>
<path d="M8.50322 39.1484L9.327 39.1483L9.71896 35.9707L8.50302 35.9708L8.50322 39.1484Z" fill="#FFB8B8"/>
<path d="M10.9159 39.9131L8.3267 39.9132L8.32666 38.9128L9.91546 38.9128C10.1808 38.9128 10.4352 39.0181 10.6228 39.2057C10.8104 39.3933 10.9159 39.6478 10.9159 39.9131Z" fill="#15182E"/>
<path d="M5.54653 39.1484L6.3703 39.1483L6.76226 35.9707L5.54633 35.9708L5.54653 39.1484Z" fill="#FFB8B8"/>
<path d="M7.95917 39.9131L5.37001 39.9132L5.36996 38.9128L6.95877 38.9128C7.22408 38.9128 7.47853 39.0181 7.66614 39.2057C7.85375 39.3933 7.95916 39.6478 7.95917 39.9131Z" fill="#15182E"/>
<path d="M6.26643 38.1711L5.46174 38.1287C5.42025 38.1266 5.3796 38.1162 5.34216 38.0982C5.30471 38.0802 5.27121 38.0549 5.24359 38.0239C5.21597 37.9928 5.19479 37.9566 5.18127 37.9173C5.16775 37.878 5.16217 37.8364 5.16483 37.795L6.12661 27.1465L10.5557 28.3416L10.9824 28.2252L9.64794 37.652C9.63657 37.7229 9.60136 37.7878 9.54811 37.836C9.49487 37.8842 9.42678 37.9128 9.35509 37.9171L8.48764 37.9575C8.44427 37.9599 8.40087 37.9533 8.36018 37.938C8.31949 37.9228 8.2824 37.8993 8.25126 37.869C8.22012 37.8387 8.19559 37.8023 8.17924 37.7621C8.16289 37.7218 8.15506 37.6786 8.15626 37.6352L8.31343 31.9774C8.31417 31.9513 8.30508 31.9258 8.28796 31.906C8.27083 31.8862 8.24691 31.8735 8.22092 31.8705C8.19492 31.8675 8.16873 31.8743 8.14751 31.8896C8.12628 31.9049 8.11156 31.9276 8.10625 31.9532L6.59049 37.9212C6.57618 37.992 6.53775 38.0557 6.48177 38.1013C6.42578 38.147 6.35569 38.1718 6.28345 38.1716C6.27782 38.1716 6.27214 38.1714 6.26643 38.1711Z" fill="#15182E"/>
<path d="M8.65111 18.4337C9.56262 18.4337 10.3015 17.6948 10.3015 16.7832C10.3015 15.8717 9.56262 15.1328 8.65111 15.1328C7.7396 15.1328 7.00067 15.8717 7.00067 16.7832C7.00067 17.6948 7.7396 18.4337 8.65111 18.4337Z" fill="#FFB8B8"/>
<path d="M5.90325 21.632L6.08472 25.5474L6.15033 26.9719C6.15294 27.0339 6.17399 27.0937 6.21079 27.1437C6.2476 27.1937 6.29847 27.2315 6.35691 27.2524L10.6129 28.7942C10.6473 28.807 10.6837 28.8133 10.7204 28.813C10.7623 28.8132 10.8039 28.805 10.8425 28.7888C10.8812 28.7726 10.9162 28.7487 10.9454 28.7187C10.9747 28.6887 10.9976 28.6531 11.0128 28.614C11.028 28.5749 11.0351 28.5332 11.0338 28.4913L10.8593 21.4512C10.8478 20.8736 10.6352 20.3181 10.2581 19.8805C9.88098 19.4428 9.36299 19.1505 8.79342 19.0538C8.75225 19.0475 8.71037 19.0412 8.66848 19.0356C8.3153 18.9918 7.9568 19.0259 7.61821 19.1355C7.27962 19.2451 6.96916 19.4276 6.70867 19.6701C6.43894 19.9182 6.227 20.2225 6.08782 20.5615C5.94865 20.9005 5.88564 21.2659 5.90325 21.632Z" fill="#CCCCCC"/>
<path d="M12.646 28.0131C12.5453 27.9818 12.4534 27.9275 12.3774 27.8544C12.3015 27.7813 12.2437 27.6915 12.2087 27.5921C12.1736 27.4927 12.1623 27.3865 12.1756 27.2819C12.1889 27.1774 12.2264 27.0774 12.2852 26.9899L10.842 25.0707L12.0874 24.9937L13.267 26.8279C13.3933 26.9256 13.4812 27.0646 13.5153 27.2205C13.5493 27.3765 13.5274 27.5394 13.4533 27.6808C13.3792 27.8222 13.2577 27.933 13.1101 27.9937C12.9625 28.0545 12.7982 28.0613 12.646 28.0131Z" fill="#FFB8B8"/>
<path d="M11.6313 26.6424C11.593 26.6269 11.5583 26.6039 11.5289 26.5749C11.4996 26.5458 11.4764 26.5112 11.4605 26.4731L9.28613 21.2926C9.24346 21.1912 9.2212 21.0823 9.22062 20.9723C9.22004 20.8623 9.24115 20.7532 9.28275 20.6513C9.32434 20.5494 9.3856 20.4568 9.46303 20.3786C9.54046 20.3004 9.63253 20.2382 9.734 20.1956C9.83546 20.153 9.94432 20.1309 10.0544 20.1304C10.1644 20.1299 10.2734 20.1511 10.3753 20.1928C10.4771 20.2344 10.5698 20.2958 10.6479 20.3732C10.726 20.4507 10.7881 20.5429 10.8306 20.6444L13.005 25.825C13.0371 25.9018 13.0375 25.9882 13.006 26.0653C12.9745 26.1423 12.9137 26.2038 12.837 26.2361L11.8717 26.6412C11.8337 26.6573 11.7928 26.6657 11.7516 26.6659C11.7103 26.6661 11.6694 26.6581 11.6313 26.6424Z" fill="#CCCCCC"/>
<path d="M8.12051 26.4597L10.2089 22.4609C10.2492 22.384 10.3184 22.3262 10.4012 22.3002C10.484 22.2742 10.5738 22.2821 10.6508 22.3222L13.6821 23.9054C13.759 23.9457 13.8168 24.0148 13.8428 24.0976C13.8688 24.1805 13.8609 24.2702 13.8208 24.3472L11.7324 28.3461C11.6921 28.423 11.6229 28.4808 11.5401 28.5067C11.4573 28.5327 11.3675 28.5248 11.2905 28.4847L8.25916 26.9015C8.18226 26.8613 8.12447 26.7921 8.09848 26.7093C8.07248 26.6265 8.0804 26.5367 8.12051 26.4597Z" fill="#373B5C"/>
<path d="M9.52107 24.633C9.48395 24.5344 9.42428 24.4458 9.34683 24.3743C9.26937 24.3028 9.17629 24.2504 9.07499 24.2213C8.9737 24.1922 8.867 24.1871 8.76341 24.2066C8.65982 24.226 8.56221 24.2694 8.47837 24.3333L6.47734 23.0059L6.47394 24.2537L8.37467 25.3229C8.4796 25.4432 8.62352 25.5227 8.78121 25.5475C8.9389 25.5723 9.10029 25.5408 9.23705 25.4585C9.37382 25.3762 9.47724 25.2483 9.52918 25.0974C9.58111 24.9464 9.57824 24.782 9.52107 24.633Z" fill="#FFB8B8"/>
<path d="M6.99109 24.9132L5.35573 23.6178C5.17881 23.5584 5.01895 23.4569 4.88988 23.3222C4.7608 23.1874 4.66636 23.0233 4.61466 22.844C4.56296 22.6646 4.55555 22.4755 4.59306 22.2927C4.63057 22.1098 4.71188 21.9389 4.83001 21.7944L6.31488 19.8484C6.41807 19.7223 6.56319 19.6375 6.72371 19.6096C6.88423 19.5817 7.04944 19.6125 7.18913 19.6964C7.32881 19.7803 7.43366 19.9116 7.48448 20.0664C7.53531 20.2212 7.52873 20.3891 7.46595 20.5395L6.29108 22.4613L8.01765 23.2802C8.0578 23.2993 8.09345 23.3266 8.12225 23.3605C8.15104 23.3943 8.17233 23.4339 8.18471 23.4765C8.19708 23.5192 8.20026 23.564 8.19402 23.608C8.18779 23.652 8.1723 23.6942 8.14856 23.7318L7.4516 24.8348C7.42804 24.872 7.39693 24.9038 7.36027 24.9283C7.32361 24.9527 7.28223 24.9692 7.23881 24.9766C7.23708 24.9769 7.23535 24.9772 7.23361 24.9774C7.19095 24.9839 7.14741 24.9815 7.1057 24.9705C7.06398 24.9594 7.02498 24.9399 6.99109 24.9132Z" fill="#CCCCCC"/>
<path d="M7.40401 17.8884C7.39693 17.8677 7.39468 17.8456 7.39745 17.8239C7.40021 17.8022 7.4079 17.7814 7.41994 17.7631C7.43198 17.7448 7.44805 17.7295 7.46691 17.7184C7.48577 17.7073 7.50692 17.7007 7.52875 17.699C7.57345 17.7014 7.6172 17.7129 7.65735 17.7327C7.69749 17.7525 7.73321 17.7802 7.76234 17.8142C7.82207 17.8831 7.8916 17.9428 7.96871 17.9914C8.04855 18.0317 8.15683 18.0259 8.20235 17.9492C8.24509 17.8772 8.2158 17.7807 8.18993 17.697C8.12409 17.4841 8.08725 17.2632 8.0804 17.0405C8.07295 16.7918 8.10803 16.5323 8.24569 16.3384C8.42335 16.0881 8.74103 15.9931 9.04167 16C9.34231 16.0068 9.63808 16.0996 9.93587 16.1583C10.0387 16.1786 10.1595 16.1889 10.2283 16.1092C10.3014 16.0245 10.2745 15.8874 10.2434 15.773C10.1627 15.4762 10.0771 15.1693 9.88964 14.9295C9.6869 14.6804 9.39731 14.5174 9.07918 14.4732C8.77376 14.4354 8.46372 14.4706 8.17455 14.5759C7.70342 14.7244 7.28886 15.0132 6.98631 15.4037C6.67442 15.819 6.53966 16.3409 6.61147 16.8552C6.68164 17.3032 6.91902 17.7079 7.27577 17.9878L7.40401 17.8884Z" fill="#15182E"/>
<path d="M28.3074 39.1613C27.8683 38.97 27.4797 38.6794 27.1721 38.3122C26.8646 37.945 26.6466 37.5114 26.5354 37.0455C26.4242 36.5797 26.4227 36.0944 26.5312 35.6278C26.6396 35.1613 26.855 34.7264 27.1603 34.3574C26.8063 34.6159 26.5114 34.9467 26.295 35.3279C26.0786 35.7091 25.9458 36.1319 25.9053 36.5684C25.8648 37.0048 25.9176 37.4449 26.0603 37.8594C26.2029 38.2738 26.432 38.6532 26.7324 38.9724C27.0329 39.2915 27.3978 39.5431 27.8029 39.7105C28.208 39.8778 28.6441 39.9571 29.0822 39.943C29.5203 39.929 29.9504 39.8219 30.3439 39.6289C30.7375 39.4359 31.0854 39.1614 31.3648 38.8236C30.9291 39.1421 30.4176 39.3408 29.8811 39.4001C29.3447 39.4593 28.8021 39.377 28.3074 39.1613Z" fill="#373B5C"/>
</g>
<defs>
<clipPath id="clip0_152_34394">
<rect width="56.7599" height="40" fill="white"/>
</clipPath>
</defs>
</svg>
