<svg width="592" height="614" viewBox="0 0 592 614" fill="none" xmlns="http://www.w3.org/2000/svg">
<g clip-path="url(#clip0_151_34473)">
<path d="M431.176 114.083C431.104 137.919 429.574 161.726 426.596 185.354C426.492 186.184 426.378 187.014 426.274 187.844H214.597C213.971 187.024 213.355 186.194 212.758 185.354C210.767 182.575 208.899 179.716 207.183 176.757C198.935 162.5 195.105 145.775 198.793 134.198L198.859 134.018C199.655 131.483 200.918 129.139 202.576 127.12C211.07 116.923 228.362 118.512 244.09 126.61C229.936 110.454 218.626 90.0297 217.678 71.7446C216.749 53.9094 225.527 41.1128 235.065 30.2257C235.378 29.8658 235.691 29.5159 236.003 29.1659C236.155 28.986 236.316 28.816 236.468 28.6361C243.91 20.3383 252.594 12.1505 265.231 13.0603C279.091 14.06 294.516 26.2068 305.362 40.403C316.207 54.5892 323.45 70.7349 330.788 86.4907C338.135 102.237 346.08 118.382 357.807 131.809C341.908 110.844 329.053 86.9606 324.228 63.6868C319.402 40.413 323.422 18.009 337.433 6.95193C341.688 3.69782 346.619 1.56557 351.816 0.73359C352.422 0.623619 353.038 0.533644 353.664 0.453666C366.68 -1.18585 382.257 3.47286 395.548 14.7499C410.186 27.1665 420.387 45.6416 425.506 63.2069C430.626 80.7722 431.251 97.7077 431.176 114.083Z" fill="#1E2875"/>
<path d="M293.075 187.844H289.028C287.738 187.004 286.442 186.174 285.14 185.354C284.335 184.825 283.519 184.315 282.704 183.795C269.232 175.227 255.679 167.013 242.043 159.151C228.419 151.284 214.73 143.782 200.974 136.647C200.609 136.483 200.311 136.188 200.131 135.816C199.951 135.443 199.9 135.016 199.988 134.608C200.002 134.555 200.025 134.504 200.054 134.458C200.244 134.078 200.671 133.918 201.296 134.238C202.984 135.118 204.681 135.998 206.368 136.897C220.162 144.155 233.899 151.78 247.579 159.771C261.25 167.759 274.845 176.104 288.364 184.805C288.648 184.985 288.933 185.174 289.217 185.354C290.506 186.184 291.786 187.014 293.075 187.844Z" fill="white"/>
<path d="M345.265 187.843H342.762C342.193 187.014 341.634 186.184 341.065 185.354C327.698 165.819 314.334 146.285 300.972 126.75C279.092 94.7683 257.217 62.7868 235.35 30.8053C235.22 30.6333 235.123 30.4364 235.065 30.2255C234.876 29.5157 235.369 29.0958 236.004 29.1658C236.271 29.2045 236.528 29.303 236.757 29.4547C236.986 29.6064 237.182 29.8078 237.331 30.0455C249.598 47.9808 261.863 65.9093 274.124 83.8312C295.891 115.653 317.655 147.471 339.415 179.286C340.8 181.305 342.184 183.335 343.568 185.354C344.136 186.184 344.705 187.014 345.265 187.843Z" fill="white"/>
<path d="M400.943 172.188C400.838 176.637 400.582 181.015 400.241 185.354C400.175 186.184 400.108 187.014 400.042 187.844H397.416C397.492 187.014 397.568 186.184 397.634 185.354C398.155 179.086 398.516 172.748 398.535 166.239C398.509 148.196 396.746 130.202 393.273 112.534C389.58 93.5098 384.324 74.861 377.564 56.7986C370.468 37.7481 361.937 19.3275 352.053 1.71324C351.867 1.4263 351.783 1.07933 351.816 0.733509C351.92 -0.0562803 352.915 -0.296215 353.664 0.453585C353.812 0.600691 353.94 0.768953 354.043 0.953452C355.266 3.14287 356.467 5.33894 357.646 7.54169C367.17 25.2562 375.339 43.7431 382.077 62.827C388.494 80.9507 393.401 99.6298 396.743 118.652C399.872 136.299 401.279 154.238 400.943 172.188Z" fill="white"/>
<path d="M583.724 185.354H8.2666C6.07473 185.357 3.97321 186.276 2.42335 187.91C0.873487 189.545 0.00192534 191.761 0 194.072V605.282C0.00192283 607.594 0.873487 609.81 2.42335 611.444C3.97321 613.079 6.07473 613.998 8.2666 614H583.724C584.919 614 586.1 613.727 587.185 613.199C588.27 612.67 589.234 611.9 590.009 610.941C590.075 610.866 590.135 610.786 590.19 610.701C590.683 610.065 591.083 609.354 591.375 608.592C591.791 607.544 592.003 606.418 592 605.282V194.072C591.998 191.759 591.125 189.542 589.573 187.907C588.021 186.272 585.917 185.354 583.724 185.354ZM589.64 605.283C589.641 606.499 589.301 607.688 588.663 608.702C588.096 609.594 587.327 610.322 586.426 610.821C585.59 611.276 584.664 611.513 583.724 611.511H8.2666C6.70075 611.509 5.19956 610.852 4.09233 609.684C2.98511 608.517 2.36224 606.934 2.36034 605.283V194.072C2.36223 192.421 2.98511 190.838 4.09233 189.67C5.19956 188.503 6.70074 187.846 8.2666 187.844H583.724C585.291 187.844 586.794 188.499 587.904 189.667C589.013 190.835 589.637 192.419 589.64 194.072V605.283Z" fill="#3F3D56"/>
<path d="M590.815 220.294H1.17822V222.786H590.815V220.294Z" fill="#3F3D56"/>
<path d="M21.2661 211.522C25.1817 211.522 28.3559 208.174 28.3559 204.045C28.3559 199.916 25.1817 196.569 21.2661 196.569C17.3505 196.569 14.1763 199.916 14.1763 204.045C14.1763 208.174 17.3505 211.522 21.2661 211.522Z" fill="#3F3D56"/>
<path d="M41.6489 211.522C45.5645 211.522 48.7387 208.174 48.7387 204.045C48.7387 199.916 45.5645 196.569 41.6489 196.569C37.7333 196.569 34.5591 199.916 34.5591 204.045C34.5591 208.174 37.7333 211.522 41.6489 211.522Z" fill="#3F3D56"/>
<path d="M62.0322 211.522C65.9478 211.522 69.122 208.174 69.122 204.045C69.122 199.916 65.9478 196.569 62.0322 196.569C58.1166 196.569 54.9424 199.916 54.9424 204.045C54.9424 208.174 58.1166 211.522 62.0322 211.522Z" fill="#3F3D56"/>
<path d="M262.584 432.158C255.493 427.291 251.966 415.979 253.704 405.634C255.441 395.289 261.984 386.378 269.828 382.536C273.643 380.722 277.826 379.937 282 380.25C286.175 380.563 290.21 381.964 293.744 384.329C300.937 388.967 311.11 391.507 314.525 400.787C317.15 407.918 313.821 422.398 310.288 429.325C307.235 435.311 301.432 438.05 295.981 439.24C289.95 440.537 283.725 440.453 277.728 438.993C271.73 437.534 266.1 434.733 261.218 430.781L262.584 432.158Z" fill="#2F2E41"/>
<path d="M258.885 487.104L253.216 497.412L252.467 498.771L251.377 500.771H234.663L235.791 498.771L238.711 493.583L245.518 481.466L253.226 484.715L258.885 487.104Z" fill="#FFB8B8"/>
<path d="M233.412 500.77L230.359 498.77L229.98 498.52L249.14 461.7C249.964 460.107 251.079 458.701 252.422 457.565C253.764 456.429 255.307 455.585 256.961 455.082C259.049 454.426 261.261 454.34 263.389 454.832C264.63 455.109 265.826 455.58 266.934 456.232C267.391 456.496 267.831 456.789 268.252 457.112C269.872 458.309 271.204 459.891 272.139 461.73C273.252 463.883 273.802 466.309 273.732 468.76C273.663 471.211 272.975 473.598 271.741 475.677L264.356 488.123L258.042 498.77L256.857 500.77H233.412Z" fill="#2F2E41"/>
<path d="M282.638 445.227C295.498 445.227 305.922 434.233 305.922 420.672C305.922 407.111 295.498 396.118 282.638 396.118C269.778 396.118 259.353 407.111 259.353 420.672C259.353 434.233 269.778 445.227 282.638 445.227Z" fill="#FFB8B8"/>
<path d="M306.013 500.77H253.672L253.909 500.06C253.776 499.63 253.653 499.2 253.539 498.77C253.416 498.321 253.311 497.861 253.217 497.411C252.366 493.226 252.369 488.898 253.226 484.714C256.118 469.738 267.655 457.572 267.655 457.572C267.854 457.412 268.053 457.262 268.252 457.112C269.969 455.786 271.831 454.685 273.798 453.832C282.369 450.083 291.356 451.593 297.395 453.533C299.498 454.203 301.554 455.028 303.548 456.002C304.249 456.352 304.629 456.572 304.629 456.572L305.226 475.777L305.946 498.77L306.013 500.77Z" fill="#1E2875"/>
<path d="M330.225 498.771L326.224 477.316L322.186 455.682C322.018 454.789 321.597 453.97 320.979 453.333C320.362 452.696 319.576 452.271 318.725 452.113L310.269 450.574L302.4 449.144C301.641 449 300.86 449.077 300.139 449.368C299.419 449.659 298.788 450.152 298.314 450.793C297.723 451.571 297.399 452.536 297.395 453.533C297.395 454.148 297.514 454.757 297.745 455.322C301.85 465.42 301.926 481.405 300.883 498.771C300.836 499.431 300.798 500.1 300.751 500.77H330.604L330.225 498.771Z" fill="#2F2E41"/>
<path d="M273.799 453.833C273.624 453.105 273.281 452.435 272.801 451.882C272.32 451.329 271.716 450.91 271.044 450.664C270.372 450.419 269.652 450.353 268.949 450.473C268.247 450.593 267.584 450.896 267.02 451.354L263.389 454.833L248.524 469.109C248.06 469.547 247.697 470.091 247.462 470.698C245.784 474.927 242.513 483.275 238.712 493.582C238.095 495.262 237.46 496.991 236.806 498.771C236.578 499.431 236.332 500.1 236.085 500.77H260.583C260.782 500.1 260.981 499.431 261.18 498.771C262.27 495.142 263.332 491.583 264.356 488.124C267.352 478.076 270.054 468.949 272.14 461.731C272.718 459.731 273.245 457.885 273.723 456.192C273.945 455.427 273.972 454.613 273.799 453.833Z" fill="#2F2E41"/>
<path d="M335.724 500.77H337.307L337.089 500.21L336.511 498.771L327.59 476.447L326.224 477.317L315.265 484.305L320.887 498.771L321.664 500.77H330.604H335.724Z" fill="#FFB8B8"/>
<path d="M326.679 458.741C325.472 455.41 323.091 452.699 320.032 451.177C316.973 449.655 313.475 449.438 310.269 450.574C309.859 450.717 309.457 450.884 309.065 451.073C306.819 452.13 304.905 453.84 303.548 456.002C302.993 456.865 302.538 457.795 302.192 458.771C301.577 460.466 301.286 462.272 301.336 464.086C301.387 465.9 301.777 467.685 302.486 469.339L305.226 475.777L315.028 498.771L315.881 500.77H335.724L337.089 500.21L340.635 498.771L341.128 498.571L326.679 458.741Z" fill="#2F2E41"/>
<path d="M300.925 392.471C301.737 392.727 302.606 392.695 303.398 392.378C304.191 392.061 304.862 391.477 305.307 390.717C305.73 389.943 305.978 389.077 306.034 388.186C306.089 387.294 305.95 386.401 305.628 385.575C304.967 383.927 303.926 382.478 302.599 381.362C301.092 379.924 299.257 378.922 297.273 378.454C296.282 378.23 295.257 378.232 294.267 378.462C293.277 378.691 292.345 379.142 291.535 379.785C290.739 380.448 290.15 381.347 289.841 382.366C289.533 383.386 289.52 384.479 289.804 385.506C290.407 387.349 292.04 388.585 293.671 389.505C296.907 391.326 300.475 392.396 304.135 392.642L300.925 392.471Z" fill="#2F2E41"/>
<path d="M305.455 419.939C301.712 420.483 302.192 418.474 300.693 414.816C299.194 411.158 297.187 406.815 293.424 406.445C290.341 406.141 287.8 408.741 285.303 410.671C280.85 414.111 274.85 415.795 269.689 413.731C264.528 411.667 260.942 405.181 262.9 399.739C263.509 398.236 264.405 396.882 265.531 395.759C266.658 394.636 267.991 393.769 269.447 393.212C272.37 392.116 275.475 391.661 278.57 391.875C285.454 392.107 292.206 393.93 298.35 397.215C302.59 399.486 306.717 402.736 308.325 407.456C309.934 412.176 310.992 418.808 306.393 420.084L305.455 419.939Z" fill="#2F2E41"/>
<path d="M299.012 379.49C297.161 376.093 298.689 371.433 301.716 369.164C304.744 366.894 308.805 366.672 312.418 367.582C315.991 368.531 319.264 370.454 321.91 373.158C324.556 375.862 326.481 379.253 327.492 382.989C329.025 388.929 328.114 395.308 329.412 401.31C330.104 404.509 331.41 407.525 333.249 410.172C335.088 412.819 337.422 415.041 340.106 416.701C342.79 418.361 345.768 419.424 348.856 419.825C351.945 420.225 355.078 419.955 358.064 419.03C361.953 417.826 365.905 414.898 366.287 410.643C366.69 415.53 365.633 420.426 363.266 424.648C360.898 428.869 357.338 432.204 353.083 434.186C348.073 436.39 342.484 436.534 337.057 436.387C333.52 436.291 329.903 436.067 326.64 434.624C324.382 433.538 322.353 431.988 320.671 430.065C318.989 428.141 317.687 425.883 316.843 423.423C315.182 418.477 314.734 413.169 315.539 407.992C316.073 403.965 317.135 400.017 317.433 395.963C317.73 391.909 317.166 387.58 314.796 384.372C312.426 381.165 307.898 379.526 304.528 381.503C303.174 382.297 302.081 383.595 300.61 384.108C299.138 384.62 297.053 383.719 297.187 382.091L299.012 379.49Z" fill="#2F2E41"/>
<path d="M457.906 500.77L458.086 498.771L463.433 440.107C465.186 438.659 467.069 437.397 469.055 436.337C480.062 430.489 490.68 433.288 496.425 435.708C497.947 436.336 499.419 437.095 500.824 437.977L503.953 498.771L504.057 500.77H457.906Z" fill="#1E2875"/>
<path d="M482.947 424.493C495.807 424.493 506.232 413.5 506.232 399.939C506.232 386.378 495.807 375.384 482.947 375.384C470.087 375.384 459.662 386.378 459.662 399.939C459.662 413.5 470.087 424.493 482.947 424.493Z" fill="#FFB8B8"/>
<path d="M501.839 414.911C503.57 412.987 504.719 410.564 505.14 407.95C505.561 405.336 505.236 402.649 504.204 400.23C503.173 397.812 501.483 395.771 499.349 394.369C497.216 392.966 494.734 392.264 492.221 392.353C489.001 392.466 485.967 393.856 482.894 394.876C478.237 396.546 473.269 397.018 468.404 396.252C463.509 395.45 459.093 392.7 456.064 388.568C453.183 384.393 452.285 378.601 454.32 373.905C456.669 368.483 462.158 365.495 467.321 363.068C469.403 361.968 471.627 361.198 473.921 360.781C475.071 360.579 476.247 360.631 477.377 360.931C478.507 361.231 479.566 361.774 480.488 362.526C481.939 363.842 482.789 365.82 484.368 366.961C486.145 368.244 488.454 368.211 490.597 368.437C495.425 368.947 499.992 370.994 503.69 374.308C507.387 377.621 510.041 382.043 511.297 386.985C512.553 391.928 512.353 397.156 510.723 401.976C509.093 406.795 506.11 410.977 502.17 413.965L501.839 414.911Z" fill="#2F2E41"/>
<path d="M472.525 446.495L469.056 436.337L468.839 435.704C468.736 435.404 468.57 435.132 468.353 434.91C468.136 434.687 467.874 434.52 467.587 434.42C467.299 434.32 466.994 434.291 466.694 434.334C466.394 434.376 466.108 434.491 465.856 434.668L461.917 437.437C461.917 437.437 436.652 437.437 434.623 453.423C434.594 453.673 434.556 453.953 434.528 454.253C434.527 454.266 434.523 454.28 434.518 454.293C434.263 455.342 429.494 474.777 425.398 498.771C425.285 499.431 425.171 500.1 425.057 500.77H479.958C481.744 476.668 480.745 454.258 472.525 446.495Z" fill="#2F2E41"/>
<path d="M538.015 498.771C535.02 474.157 530.735 454.253 530.735 454.253C530.697 453.953 530.659 453.673 530.63 453.423C528.611 437.437 503.346 437.437 503.346 437.437L499.409 434.669C499.157 434.492 498.87 434.378 498.57 434.335C498.27 434.292 497.965 434.322 497.677 434.422C497.389 434.522 497.127 434.69 496.91 434.912C496.693 435.135 496.527 435.407 496.425 435.708L492.737 446.495C484.518 454.258 483.518 476.667 485.304 500.769L538.252 500.77C538.176 500.1 538.091 499.431 538.015 498.771Z" fill="#2F2E41"/>
<path d="M93.3111 442.725L87.6799 498.771L87.4808 500.77H72.2461C72.4262 500.12 72.6062 499.45 72.796 498.771C77.1191 483.135 83.0064 460.311 82.3708 454.262C81.3756 444.825 88.3437 441.676 88.3437 441.676L88.7798 441.766L93.3111 442.725Z" fill="#1E2875"/>
<path d="M117.881 425.427C130.741 425.427 141.166 414.433 141.166 400.872C141.166 387.311 130.741 376.318 117.881 376.318C105.021 376.318 94.5962 387.311 94.5962 400.872C94.5962 414.433 105.021 425.427 117.881 425.427Z" fill="#A0616A"/>
<path d="M148.022 488.873C146.848 491.156 145.886 493.553 145.15 496.031C144.875 496.911 144.61 497.831 144.363 498.771C144.183 499.421 144.022 500.09 143.861 500.77H82.4468C82.5324 500.11 82.6079 499.44 82.6935 498.771C85.8316 472.628 88.372 446.095 88.7798 441.766C88.8177 441.356 88.8368 441.146 88.8368 441.146C125.639 420.691 152.497 447.444 152.497 447.444C152.497 447.444 152.535 447.634 152.592 448.004C153.18 451.743 156.176 473.577 148.022 488.873Z" fill="#1E2875"/>
<path d="M145.15 496.031L141.055 486.774L142.05 450.064L152.592 448.004L152.962 447.934C158.411 451.274 162.628 456.461 164.926 462.65C166.974 468.049 170.87 484.284 174.16 498.771C174.312 499.44 174.463 500.11 174.615 500.77H147.245L146.363 498.771L145.15 496.031Z" fill="#1E2875"/>
<path d="M182.607 335.814H47.9669C45.0789 335.818 42.3103 337.029 40.2682 339.182C38.2261 341.336 37.0772 344.255 37.0737 347.301V489.283C37.0772 492.328 38.2261 495.248 40.2682 497.402C42.3103 499.555 45.0789 500.766 47.9669 500.77H182.607C185.495 500.768 188.265 499.557 190.307 497.403C192.349 495.25 193.498 492.329 193.499 489.283V347.301C193.498 344.255 192.349 341.334 190.307 339.181C188.265 337.027 185.495 335.816 182.607 335.814ZM191.603 489.283C191.601 491.799 190.653 494.211 188.966 495.989C187.279 497.768 184.992 498.768 182.607 498.771H47.9669C45.5818 498.767 43.2955 497.766 41.609 495.988C39.9225 494.209 38.9735 491.798 38.9698 489.283V347.301C38.9735 344.786 39.9225 342.375 41.609 340.596C43.2955 338.818 45.5818 337.817 47.9669 337.813H182.607C184.992 337.816 187.279 338.816 188.966 340.595C190.653 342.373 191.601 344.785 191.603 347.301V489.283ZM87.6797 498.771L87.4806 500.77H143.86C144.022 500.09 144.183 499.42 144.363 498.771H87.6797Z" fill="#3F3D56"/>
<path d="M363.312 335.814H228.672C225.784 335.818 223.015 337.029 220.973 339.182C218.931 341.336 217.782 344.255 217.779 347.301V489.283C217.782 492.328 218.931 495.248 220.973 497.402C223.015 499.555 225.784 500.766 228.672 500.77H363.312C366.2 500.768 368.97 499.557 371.012 497.403C373.054 495.25 374.203 492.329 374.204 489.283V347.301C374.203 344.255 373.054 341.334 371.012 339.181C368.97 337.027 366.2 335.816 363.312 335.814ZM372.308 489.283C372.306 491.799 371.358 494.211 369.671 495.989C367.984 497.768 365.697 498.768 363.312 498.771H228.672C226.287 498.767 224.001 497.766 222.314 495.988C220.628 494.209 219.679 491.798 219.675 489.283V347.301C219.679 344.786 220.628 342.375 222.314 340.596C224.001 338.818 226.287 337.817 228.672 337.813H363.312C365.697 337.816 367.984 338.816 369.671 340.595C371.358 342.373 372.306 344.785 372.308 347.301V489.283ZM253.539 498.771C253.653 499.2 253.776 499.63 253.909 500.06L253.672 500.77H300.751C300.798 500.1 300.836 499.43 300.884 498.771H253.539Z" fill="#3F3D56"/>
<path d="M544.026 335.814H409.386C406.498 335.816 403.728 337.027 401.686 339.18C399.643 341.334 398.495 344.255 398.493 347.301V489.283C398.495 492.329 399.643 495.25 401.686 497.403C403.728 499.557 406.498 500.768 409.386 500.77H544.026C546.914 500.766 549.683 499.555 551.725 497.401C553.767 495.248 554.915 492.328 554.919 489.283V347.301C554.915 344.256 553.767 341.336 551.725 339.183C549.683 337.029 546.914 335.818 544.026 335.814ZM553.023 489.283C553.019 491.798 552.07 494.209 550.384 495.988C548.697 497.766 546.411 498.767 544.026 498.771H409.386C407.001 498.768 404.714 497.768 403.027 495.989C401.34 494.211 400.391 491.799 400.389 489.283V347.301C400.391 344.785 401.34 342.373 403.027 340.595C404.714 338.816 407.001 337.815 409.386 337.813H544.026C546.411 337.817 548.697 338.818 550.384 340.596C552.07 342.375 553.019 344.786 553.023 347.301V489.283ZM480.1 498.771C480.053 499.43 480.005 500.1 479.958 500.77H520.809C520.884 500.11 520.97 499.44 521.046 498.771H480.1Z" fill="#3F3D56"/>
<path d="M452.422 558.755H139.571C137.559 558.755 135.63 557.912 134.208 556.412C132.785 554.912 131.986 552.878 131.986 550.757C131.986 548.635 132.785 546.601 134.208 545.101C135.63 543.601 137.559 542.759 139.571 542.759H452.422C454.434 542.759 456.363 543.601 457.785 545.101C459.207 546.601 460.006 548.635 460.006 550.757C460.006 552.878 459.207 554.912 457.785 556.412C456.363 557.912 454.434 558.755 452.422 558.755Z" fill="#CCCCCC"/>
<path d="M364.729 293.825H227.264C225.252 293.825 223.323 292.983 221.901 291.483C220.479 289.983 219.68 287.949 219.68 285.827C219.68 283.706 220.479 281.672 221.901 280.172C223.323 278.672 225.252 277.83 227.264 277.83H364.729C366.74 277.83 368.67 278.672 370.092 280.172C371.514 281.672 372.313 283.706 372.313 285.827C372.313 287.949 371.514 289.983 370.092 291.483C368.67 292.983 366.74 293.825 364.729 293.825Z" fill="#1E2875"/>
<path d="M129.019 422.265C129.807 423.085 130.85 423.578 131.955 423.652C133.06 423.727 134.154 423.379 135.035 422.672C140.523 418.382 145.34 413.042 148.191 406.529C151.458 399.066 151.823 389.908 147.884 382.815C144.554 376.819 138.674 372.95 132.814 369.773C130.539 368.418 128.088 367.422 125.539 366.816C122.963 366.217 120.267 366.675 118.001 368.098C116.892 368.832 116.018 369.9 115.494 371.165C114.97 372.429 114.819 373.831 115.061 375.187C112.246 371.801 108.641 369.248 104.603 367.784C102.06 366.735 99.2751 366.522 96.6152 367.173C92.8964 368.286 90.1816 371.77 88.6967 375.533C87.4958 378.396 87.0811 381.557 87.4998 384.656C87.7202 386.198 88.245 387.674 89.0404 388.989C89.8358 390.303 90.884 391.428 92.1173 392.288C95.1919 394.294 99.1144 394.15 102.645 393.33C106.176 392.511 109.594 391.085 113.194 390.725C116.793 390.364 120.801 391.311 122.991 394.344C124.534 396.48 124.93 399.271 125.276 401.931L127.078 415.766C127.225 417.768 127.71 419.725 128.509 421.547C128.647 421.81 128.819 422.051 129.019 422.265Z" fill="#2F2E41"/>
</g>
<defs>
<clipPath id="clip0_151_34473">
<rect width="592" height="614" fill="white"/>
</clipPath>
</defs>
</svg>
