<svg width="40" height="38" viewBox="0 0 40 38" fill="none" xmlns="http://www.w3.org/2000/svg">
<g clip-path="url(#clip0_152_34296)">
<path d="M14.3729 29.9355L13.9886 30.7974C14.301 30.7477 14.5916 31.0145 14.5981 31.3572C14.6046 31.6999 14.3259 32.0564 14.0135 32.1051C14.0732 32.3711 14.3309 32.4884 14.5546 32.596C14.7783 32.7035 15.0193 32.8818 15.0027 33.1653C14.9893 33.393 14.8011 33.5939 14.6012 33.6747C14.4013 33.7555 14.1916 33.7431 13.9891 33.7296C14.2959 34.0505 14.3258 34.6536 14.0564 35.0864C13.787 35.5191 13.2489 35.7322 12.8461 35.5656C13.1307 35.9197 13.0689 36.5681 12.7156 36.9336C12.3595 37.302 11.8434 37.3376 11.3922 37.2988C10.2432 37.2017 9.1484 36.7678 8.24479 36.0515C7.89987 35.7774 7.57768 35.4551 7.38092 35.0346C7.18415 34.6141 7.12618 34.0818 7.30945 33.6033C7.26002 34.2027 6.66009 34.6761 6.12039 34.7026C5.58068 34.7291 5.10947 34.4251 4.70904 34.0785C4.17652 33.6175 3.68347 32.9713 3.75656 32.1739C3.79274 31.7792 3.96515 31.3996 4.13424 31.0319L4.46205 30.319C4.5944 30.0312 4.72974 29.7386 4.92893 29.4971C5.12812 29.2555 5.40459 29.0686 5.68126 29.0704C5.618 28.7814 5.55446 28.4816 5.60747 28.1745C5.66049 27.8674 5.86349 27.5495 6.13957 27.4776C6.49092 27.3861 6.7887 27.7103 7.14202 27.6797C7.48202 27.6503 7.76302 27.3091 8.09318 27.1739C8.22912 27.1151 8.37926 27.0972 8.5252 27.1225C8.67114 27.1477 8.80655 27.215 8.91485 27.316C9.12415 27.5203 9.2114 27.8656 9.13629 28.1922C9.0705 28.4783 8.8954 28.7307 8.78912 29.0067C8.68284 29.2826 8.66635 29.6375 8.87046 29.7882C9.11676 29.97 9.49166 29.7226 9.68408 29.4232C9.87651 29.1238 9.98699 28.7612 10.2303 28.5094C10.5175 28.2123 10.9671 28.1426 11.2628 28.3495C11.5585 28.5564 11.6716 29.0197 11.5225 29.4135C11.4006 29.7355 11.1214 30.0612 11.2182 30.3644C11.3206 30.6849 11.7684 30.6443 12.0386 30.4178C12.3087 30.1914 12.4881 29.8502 12.7549 29.6187C13.0259 29.3835 13.3798 29.2804 13.6905 29.3462C13.8481 29.3828 13.994 29.4585 14.1146 29.5663C14.2352 29.6741 14.3268 29.8105 14.3808 29.963" fill="#E6E6E6"/>
<path d="M8.14977 27.5133L8.9473 27.8839C9.06718 27.9431 9.20315 27.9614 9.33443 27.9361C9.45021 27.9087 9.52845 27.8379 9.54901 27.7418L9.73458 26.875C9.76962 26.7115 9.63421 26.5181 9.41262 26.4151L8.97218 26.2105C8.75058 26.1075 8.5154 26.1288 8.41304 26.261L7.87031 26.9618C7.81011 27.0395 7.80647 27.145 7.86021 27.2511C7.92551 27.3678 8.02721 27.4599 8.14977 27.5133Z" fill="#1E2875"/>
<path d="M14.0678 15.5534C14.5525 15.779 14.5605 16.7898 14.4085 17.1174L14.133 17.7102L12.3773 16.8944L12.6528 16.3016C12.8051 15.9743 13.5827 15.3285 14.0678 15.5534Z" fill="#1E2875"/>
<path d="M18.7858 24.0644C18.8167 24.0644 18.8472 24.0569 18.8746 24.0426C18.9019 24.0284 18.9255 24.0077 18.9432 23.9824C18.9609 23.9571 18.9722 23.9279 18.9763 23.8972C18.9803 23.8666 18.9768 23.8354 18.9662 23.8064C18.9576 23.7827 18.9444 23.7609 18.9273 23.7424C18.9103 23.7238 18.8897 23.7088 18.8668 23.6983L9.79988 19.4857C9.77702 19.475 9.75229 19.469 9.72711 19.4679C9.70193 19.4669 9.67678 19.4708 9.6531 19.4794C9.62943 19.4881 9.60769 19.5013 9.58913 19.5184C9.57056 19.5354 9.55554 19.556 9.54492 19.5788C9.52353 19.625 9.52133 19.6778 9.5388 19.7256C9.55628 19.7734 9.59199 19.8123 9.63812 19.8338L18.705 24.0464C18.7303 24.0582 18.7579 24.0643 18.7858 24.0644Z" fill="#1E2875"/>
<path d="M11.6934 17.2724L14.2852 18.4766L10.2196 27.227L7.62788 26.0228L11.6934 17.2724Z" fill="#E6E6E6"/>
<path d="M21.4226 6.257C21.9073 6.48266 21.9153 7.49345 21.7633 7.82096L21.4879 8.41378L19.7322 7.59806L20.0076 7.00525C20.1599 6.67787 20.9376 6.03209 21.4226 6.257Z" fill="#1E2875"/>
<path d="M10.5623 28.5192L11.3598 28.8897C11.4797 28.9489 11.6157 28.9673 11.7469 28.9419C11.8627 28.9145 11.941 28.8438 11.9615 28.7476L12.1471 27.8809C12.1821 27.7174 12.0467 27.5239 11.8251 27.421L11.3847 27.2163C11.1631 27.1134 10.9279 27.1347 10.8255 27.2669L10.2828 27.9677C10.2226 28.0454 10.219 28.1508 10.2727 28.257C10.338 28.3737 10.4397 28.4658 10.5623 28.5192Z" fill="#1E2875"/>
<path d="M13.0143 29.736L13.8118 30.1065C13.9317 30.1657 14.0677 30.1841 14.199 30.1587C14.3147 30.1313 14.393 30.0606 14.4135 29.9644L14.5991 29.0977C14.6342 28.9342 14.4987 28.7407 14.2771 28.6378L13.8367 28.4331C13.6151 28.3302 13.3799 28.3515 13.2776 28.4837L12.7348 29.1845C12.6746 29.2622 12.671 29.3676 12.7247 29.4738C12.79 29.5905 12.8917 29.6825 13.0143 29.736Z" fill="#1E2875"/>
<path d="M18.3567 9.46479L20.9485 10.6689L12.7304 28.3569L10.1387 27.1527L18.3567 9.46479Z" fill="#E6E6E6"/>
<path d="M15.6676 18.5829L15.9584 17.9429L15.791 17.8657L15.501 18.5036L11.3028 27.8122L11.47 27.8899" fill="#1E2875"/>
<path d="M12.3875 18.0506L12.6783 17.4107L12.5109 17.3335L12.221 17.9714L8.02269 27.28L8.18993 27.3577" fill="#1E2875"/>
<path d="M17.1335 10.8801L20.6452 12.5117C20.8687 12.1639 21.5427 10.3814 21.3914 9.85257L21.505 9.34825L19.0802 8.22168L18.7557 8.62093C18.2739 8.76875 17.336 10.443 17.1335 10.8801Z" fill="#E6E6E6"/>
<path d="M18.9789 8.24337L21.4811 9.40592C21.5734 9.44883 21.6718 9.43306 21.7008 9.37069C21.7049 9.36169 21.7075 9.35206 21.7084 9.34219L21.8379 7.96066C21.8434 7.9015 21.7928 7.83447 21.7155 7.79854L20.0561 7.02757C19.9788 6.99164 19.8949 6.9962 19.8533 7.03859L18.881 8.02853C18.8312 8.07917 18.8582 8.16583 18.9413 8.22211C18.9532 8.23019 18.9658 8.2373 18.9789 8.24337Z" fill="#E6E6E6"/>
<path d="M17.0163 19.0671C17.0434 19.0672 17.0704 19.064 17.0967 19.0577C17.1338 19.05 17.1687 19.0339 17.1986 19.0106C17.2286 18.9874 17.2528 18.9576 17.2695 18.9235L18.7992 15.6309C18.8625 15.4946 18.7775 15.3203 18.6098 15.2424L16.3697 14.2016C16.2019 14.1236 16.0139 14.1711 15.9506 14.3074L14.4208 17.6C14.4055 17.6347 14.3984 17.6724 14.3999 17.7103C14.4014 17.7482 14.4116 17.7852 14.4297 17.8185C14.469 17.894 14.5326 17.9539 14.6103 17.9886L16.8503 19.0293C16.9022 19.0538 16.9589 19.0667 17.0163 19.0671Z" fill="#1E2875"/>
<path d="M16.71 19.5654L19.3017 20.7695L15.2362 29.5199L12.6444 28.3158L16.71 19.5654Z" fill="#E6E6E6"/>
<path d="M19.903 8.3874L20.663 8.74053C20.8097 8.80867 21.0075 8.69512 21.104 8.48744C21.2005 8.27977 21.1597 8.05531 21.013 7.98717L20.253 7.63405C20.1063 7.5659 19.9085 7.67945 19.812 7.88713C19.7155 8.09481 19.7563 8.31926 19.903 8.3874Z" fill="#1E2875"/>
<path d="M19.0337 17.8229C19.5185 18.0486 19.5264 19.0594 19.3744 19.3869L19.099 19.9797L17.3433 19.164L17.6188 18.5712C17.771 18.2438 18.5487 17.598 19.0337 17.8229Z" fill="#1E2875"/>
<path d="M27.0853 15.8051C27.2565 15.9191 27.4317 15.6477 27.2572 15.5387C27.0861 15.4246 26.9109 15.6961 27.0853 15.8051Z" fill="#E6E6E6"/>
<path d="M9.26653 11.9047C9.43772 12.0187 9.61292 11.7473 9.43845 11.6383C9.26727 11.5242 9.09207 11.7957 9.26653 11.9047Z" fill="#E6E6E6"/>
<path d="M21.4117 15.0072C21.5829 15.1213 21.7581 14.8498 21.5836 14.7408C21.4124 14.6268 21.2372 14.8982 21.4117 15.0072Z" fill="#E6E6E6"/>
<path d="M27.0853 25.6454C27.2565 25.7595 27.4317 25.488 27.2572 25.379C27.0861 25.2649 26.9109 25.5364 27.0853 25.6454Z" fill="#E6E6E6"/>
<path d="M18.3532 3.43837C18.5244 3.55243 18.6996 3.28096 18.5252 3.17197C18.354 3.05792 18.1788 3.32939 18.3532 3.43837Z" fill="#E6E6E6"/>
<path d="M26.775 8.66884C26.9462 8.7829 27.1214 8.51143 26.947 8.40244C26.7758 8.28839 26.6006 8.55985 26.775 8.66884Z" fill="#E6E6E6"/>
<path d="M14.6619 7.16926L14.7708 7.14537L14.747 7.03642L14.8196 7.02051L14.8435 7.12946L14.9524 7.10561L14.9683 7.17822L14.8594 7.20211L14.8832 7.31102L14.8106 7.32693L14.7867 7.21798L14.6778 7.24187L14.6619 7.16926Z" fill="#E6E6E6"/>
<path d="M32.3963 16.2464L32.5052 16.2225L32.4814 16.1136L32.554 16.0977L32.5779 16.2066L32.6868 16.1827L32.7028 16.2553L32.5938 16.2792L32.6177 16.3882L32.545 16.404L32.5212 16.2951L32.4123 16.319L32.3963 16.2464Z" fill="#E6E6E6"/>
<path d="M10.0614 20.8761C10.152 20.9181 10.2556 20.9224 10.3494 20.8882C10.4432 20.8539 10.5196 20.7838 10.5618 20.6932L11.01 19.7284C11.052 19.6378 11.0563 19.5343 11.0219 19.4405C10.9876 19.3468 10.9175 19.2705 10.8269 19.2284C10.7364 19.1864 10.6328 19.182 10.539 19.2162C10.4452 19.2504 10.3688 19.3205 10.3267 19.4109L9.87842 20.3757C9.83644 20.4663 9.83212 20.5699 9.86642 20.6638C9.90071 20.7576 9.97082 20.834 10.0614 20.8761Z" fill="#1E2875"/>
<path d="M17.6853 24.4225C17.776 24.4645 17.8796 24.4688 17.9734 24.4345C18.0672 24.4002 18.1436 24.3301 18.1858 24.2396L18.634 23.2748C18.676 23.1842 18.6802 23.0807 18.6459 22.9869C18.6116 22.8932 18.5414 22.8169 18.4509 22.7748C18.3603 22.7328 18.2568 22.7283 18.163 22.7626C18.0692 22.7968 17.9928 22.8668 17.9506 22.9573L17.5024 23.9221C17.4604 24.0127 17.4561 24.1163 17.4904 24.2101C17.5247 24.304 17.5948 24.3803 17.6853 24.4225Z" fill="#1E2875"/>
<path d="M10.7519 18.7686L13.7574 20.165C13.9488 19.8674 14.5256 18.3418 14.3961 17.8892L14.3325 17.3829L12.5379 16.5024L12.1403 16.8351C11.58 16.6457 10.7564 18.034 10.7519 18.7686Z" fill="#E6E6E6"/>
<path d="M12.1473 18.6719L12.9073 19.025C13.054 19.0931 13.2771 18.9251 13.4047 18.6506C13.5323 18.376 13.5167 18.0971 13.3701 18.0289L12.61 17.6758C12.4634 17.6077 12.2402 17.7757 12.1126 18.0502C11.9851 18.3248 12.0006 18.6037 12.1473 18.6719Z" fill="#1E2875"/>
<path d="M18.593 20.4886L18.8839 19.8487L18.7164 19.7715L18.4265 20.4094L14.2282 29.718L14.3955 29.7957" fill="#1E2875"/>
<path d="M15.7179 21.0382L18.7234 22.4346C19.1668 22.2056 19.8444 20.7076 19.362 20.1587L19.2985 19.6524L17.5039 18.772L17.1062 19.1046C16.6939 19.2311 15.8912 20.664 15.7179 21.0382Z" fill="#E6E6E6"/>
<path d="M17.1751 20.808L17.9351 21.1612C18.0818 21.2293 18.291 21.0912 18.4016 20.8533C18.5121 20.6154 18.4827 20.3664 18.336 20.2983L17.576 19.9451C17.4293 19.877 17.22 20.0151 17.1095 20.253C16.999 20.4909 17.0284 20.7399 17.1751 20.808Z" fill="#1E2875"/>
<path opacity="0.3" d="M13.6882 14.524L10.9138 6.4209L13.9603 14.427C13.9754 14.446 13.9857 14.4683 13.9904 14.4921C13.9951 14.5159 13.9941 14.5404 13.9874 14.5638C13.9807 14.5871 13.9686 14.6085 13.952 14.6261C13.9354 14.6438 13.9148 14.6573 13.892 14.6654C13.8692 14.6736 13.8447 14.6762 13.8207 14.673C13.7966 14.6698 13.7737 14.6609 13.7538 14.6471C13.7338 14.6332 13.7175 14.6148 13.7061 14.5934C13.6947 14.572 13.6886 14.5482 13.6882 14.524Z" fill="#F0F0F0"/>
<path d="M5.27443 17.7915C5.01243 17.7915 4.80004 17.5792 4.80004 17.3172C4.80004 17.0552 5.01243 16.8428 5.27443 16.8428C5.53642 16.8428 5.74881 17.0552 5.74881 17.3172C5.74881 17.5792 5.53642 17.7915 5.27443 17.7915Z" fill="#FF6584"/>
<path d="M2.2603 30.6455C1.9983 30.6455 1.78591 30.4332 1.78591 30.1712C1.78591 29.9092 1.9983 29.6968 2.2603 29.6968C2.52229 29.6968 2.73468 29.9092 2.73468 30.1712C2.73468 30.4332 2.52229 30.6455 2.2603 30.6455Z" fill="#F2F2F2"/>
<path d="M18.439 33.5344C17.9282 33.5344 17.5141 33.1203 17.5141 32.6095C17.5141 32.0987 17.9282 31.6846 18.439 31.6846C18.9498 31.6846 19.3639 32.0987 19.3639 32.6095C19.3639 33.1203 18.9498 33.5344 18.439 33.5344Z" fill="#F2F2F2"/>
<path d="M25.4868 21.293C25.2248 21.293 25.0124 21.0806 25.0124 20.8186C25.0124 20.5566 25.2248 20.3442 25.4868 20.3442C25.7488 20.3442 25.9612 20.5566 25.9612 20.8186C25.9612 21.0806 25.7488 21.293 25.4868 21.293Z" fill="#1E2875"/>
<path d="M9.53848 21.9106L7.49172 22.4405L6.23638 24.9062L8.35868 24.9894L9.53848 21.9106Z" fill="#E6E6E6"/>
<path d="M14.2627 18.356L13.1362 19.4831L10.2752 25.6689L10.8019 26.124L14.2627 18.356Z" fill="#CCCCCC"/>
<path d="M16.7121 19.3774L16.6237 20.9685L13.9232 27.2261L13.2328 27.1372L16.7121 19.3774Z" fill="#CCCCCC"/>
<path d="M16.7858 25.8052L17.8881 27.6093L17.0755 30.2542L15.4925 28.8381L16.7858 25.8052Z" fill="#E6E6E6"/>
</g>
<defs>
<clipPath id="clip0_152_34296">
<rect width="40" height="36.6219" fill="white" transform="matrix(-1 0 0 1 40 0.688965)"/>
</clipPath>
</defs>
</svg>
