<svg width="238" height="300" viewBox="0 0 238 300" fill="none" xmlns="http://www.w3.org/2000/svg">
<rect x="7" y="0.196289" width="192" height="299" rx="16" fill="#F2F6FA"/>
<path d="M19.512 34.5163V45.1483C19.512 46.4123 19.84 47.3643 20.496 48.0043C21.168 48.6443 22.096 48.9643 23.28 48.9643C24.48 48.9643 25.408 48.6443 26.064 48.0043C26.736 47.3643 27.072 46.4123 27.072 45.1483V34.5163H29.808V45.1003C29.808 46.4603 29.512 47.6123 28.92 48.5563C28.328 49.5003 27.536 50.2043 26.544 50.6683C25.552 51.1323 24.456 51.3643 23.256 51.3643C22.056 51.3643 20.96 51.1323 19.968 50.6683C18.992 50.2043 18.216 49.5003 17.64 48.5563C17.064 47.6123 16.776 46.4603 16.776 45.1003V34.5163H19.512ZM36.3563 39.9163C36.8203 39.3083 37.4523 38.7963 38.2523 38.3803C39.0523 37.9643 39.9563 37.7563 40.9643 37.7563C42.1163 37.7563 43.1643 38.0443 44.1083 38.6203C45.0683 39.1803 45.8203 39.9723 46.3643 40.9963C46.9083 42.0203 47.1803 43.1963 47.1803 44.5243C47.1803 45.8523 46.9083 47.0443 46.3643 48.1003C45.8203 49.1403 45.0683 49.9563 44.1083 50.5483C43.1643 51.1243 42.1163 51.4123 40.9643 51.4123C39.9563 51.4123 39.0603 51.2123 38.2763 50.8123C37.4923 50.3963 36.8523 49.8843 36.3563 49.2763V57.4843H33.6203V37.9723H36.3563V39.9163ZM44.3963 44.5243C44.3963 43.6123 44.2043 42.8283 43.8203 42.1723C43.4523 41.5003 42.9563 40.9963 42.3323 40.6603C41.7243 40.3083 41.0683 40.1323 40.3643 40.1323C39.6763 40.1323 39.0203 40.3083 38.3963 40.6603C37.7883 41.0123 37.2923 41.5243 36.9083 42.1963C36.5403 42.8683 36.3563 43.6603 36.3563 44.5723C36.3563 45.4843 36.5403 46.2843 36.9083 46.9723C37.2923 47.6443 37.7883 48.1563 38.3963 48.5083C39.0203 48.8603 39.6763 49.0363 40.3643 49.0363C41.0683 49.0363 41.7243 48.8603 42.3323 48.5083C42.9563 48.1403 43.4523 47.6123 43.8203 46.9243C44.2043 46.2363 44.3963 45.4363 44.3963 44.5243ZM55.4639 37.7563C56.4879 37.7563 57.3919 37.9643 58.1759 38.3803C58.9759 38.7803 59.5999 39.2843 60.0479 39.8923V37.9723H62.8079V51.4123C62.8079 52.6283 62.5519 53.7083 62.0399 54.6523C61.5279 55.6123 60.7839 56.3643 59.8079 56.9083C58.8479 57.4523 57.6959 57.7243 56.3519 57.7243C54.5599 57.7243 53.0719 57.3003 51.8879 56.4523C50.7039 55.6203 50.0319 54.4843 49.8719 53.0443H52.5839C52.7919 53.7323 53.2319 54.2843 53.9039 54.7003C54.5919 55.1323 55.4079 55.3483 56.3519 55.3483C57.4559 55.3483 58.3439 55.0123 59.0159 54.3403C59.7039 53.6683 60.0479 52.6923 60.0479 51.4123V49.2043C59.5839 49.8283 58.9519 50.3563 58.1519 50.7883C57.3679 51.2043 56.4719 51.4123 55.4639 51.4123C54.3119 51.4123 53.2559 51.1243 52.2959 50.5483C51.3519 49.9563 50.5999 49.1403 50.0399 48.1003C49.4959 47.0443 49.2239 45.8523 49.2239 44.5243C49.2239 43.1963 49.4959 42.0203 50.0399 40.9963C50.5999 39.9723 51.3519 39.1803 52.2959 38.6203C53.2559 38.0443 54.3119 37.7563 55.4639 37.7563ZM60.0479 44.5723C60.0479 43.6603 59.8559 42.8683 59.4719 42.1963C59.1039 41.5243 58.6159 41.0123 58.0079 40.6603C57.3999 40.3083 56.7439 40.1323 56.0399 40.1323C55.3359 40.1323 54.6799 40.3083 54.0719 40.6603C53.4639 40.9963 52.9679 41.5003 52.5839 42.1723C52.2159 42.8283 52.0319 43.6123 52.0319 44.5243C52.0319 45.4363 52.2159 46.2363 52.5839 46.9243C52.9679 47.6123 53.4639 48.1403 54.0719 48.5083C54.6959 48.8603 55.3519 49.0363 56.0399 49.0363C56.7439 49.0363 57.3999 48.8603 58.0079 48.5083C58.6159 48.1563 59.1039 47.6443 59.4719 46.9723C59.8559 46.2843 60.0479 45.4843 60.0479 44.5723ZM69.3876 39.8923C69.7876 39.2203 70.3156 38.7003 70.9716 38.3323C71.6436 37.9483 72.4356 37.7563 73.3476 37.7563V40.5883H72.6516C71.5796 40.5883 70.7636 40.8603 70.2036 41.4043C69.6596 41.9483 69.3876 42.8923 69.3876 44.2363V51.1963H66.6516V37.9723H69.3876V39.8923ZM75.2005 44.5243C75.2005 43.1963 75.4725 42.0203 76.0165 40.9963C76.5765 39.9723 77.3285 39.1803 78.2725 38.6203C79.2325 38.0443 80.2885 37.7563 81.4405 37.7563C82.4805 37.7563 83.3845 37.9643 84.1525 38.3803C84.9365 38.7803 85.5605 39.2843 86.0245 39.8923V37.9723H88.7845V51.1963H86.0245V49.2283C85.5605 49.8523 84.9285 50.3723 84.1285 50.7883C83.3285 51.2043 82.4165 51.4123 81.3925 51.4123C80.2565 51.4123 79.2165 51.1243 78.2725 50.5483C77.3285 49.9563 76.5765 49.1403 76.0165 48.1003C75.4725 47.0443 75.2005 45.8523 75.2005 44.5243ZM86.0245 44.5723C86.0245 43.6603 85.8325 42.8683 85.4485 42.1963C85.0805 41.5243 84.5925 41.0123 83.9845 40.6603C83.3765 40.3083 82.7205 40.1323 82.0165 40.1323C81.3125 40.1323 80.6565 40.3083 80.0485 40.6603C79.4405 40.9963 78.9445 41.5003 78.5605 42.1723C78.1925 42.8283 78.0085 43.6123 78.0085 44.5243C78.0085 45.4363 78.1925 46.2363 78.5605 46.9243C78.9445 47.6123 79.4405 48.1403 80.0485 48.5083C80.6725 48.8603 81.3285 49.0363 82.0165 49.0363C82.7205 49.0363 83.3765 48.8603 83.9845 48.5083C84.5925 48.1563 85.0805 47.6443 85.4485 46.9723C85.8325 46.2843 86.0245 45.4843 86.0245 44.5723ZM91.7161 44.5243C91.7161 43.1963 91.9881 42.0203 92.5321 40.9963C93.0921 39.9723 93.8441 39.1803 94.7881 38.6203C95.7481 38.0443 96.8121 37.7563 97.9801 37.7563C98.8441 37.7563 99.6921 37.9483 100.524 38.3323C101.372 38.7003 102.044 39.1963 102.54 39.8203V33.4363H105.3V51.1963H102.54V49.2043C102.092 49.8443 101.468 50.3723 100.668 50.7883C99.8841 51.2043 98.9801 51.4123 97.9561 51.4123C96.8041 51.4123 95.7481 51.1243 94.7881 50.5483C93.8441 49.9563 93.0921 49.1403 92.5321 48.1003C91.9881 47.0443 91.7161 45.8523 91.7161 44.5243ZM102.54 44.5723C102.54 43.6603 102.348 42.8683 101.964 42.1963C101.596 41.5243 101.108 41.0123 100.5 40.6603C99.8921 40.3083 99.2361 40.1323 98.5321 40.1323C97.8281 40.1323 97.1721 40.3083 96.5641 40.6603C95.9561 40.9963 95.4601 41.5003 95.0761 42.1723C94.7081 42.8283 94.5241 43.6123 94.5241 44.5243C94.5241 45.4363 94.7081 46.2363 95.0761 46.9243C95.4601 47.6123 95.9561 48.1403 96.5641 48.5083C97.1881 48.8603 97.8441 49.0363 98.5321 49.0363C99.2361 49.0363 99.8921 48.8603 100.5 48.5083C101.108 48.1563 101.596 47.6443 101.964 46.9723C102.348 46.2843 102.54 45.4843 102.54 44.5723ZM121.264 44.2603C121.264 44.7563 121.232 45.2043 121.168 45.6043H111.064C111.144 46.6603 111.536 47.5083 112.24 48.1483C112.944 48.7883 113.808 49.1083 114.832 49.1083C116.304 49.1083 117.344 48.4923 117.952 47.2603H120.904C120.504 48.4763 119.776 49.4763 118.72 50.2603C117.68 51.0283 116.384 51.4123 114.832 51.4123C113.568 51.4123 112.432 51.1323 111.424 50.5723C110.432 49.9963 109.648 49.1963 109.072 48.1723C108.512 47.1323 108.232 45.9323 108.232 44.5723C108.232 43.2123 108.504 42.0203 109.048 40.9963C109.608 39.9563 110.384 39.1563 111.376 38.5963C112.384 38.0363 113.536 37.7563 114.832 37.7563C116.08 37.7563 117.192 38.0283 118.168 38.5723C119.144 39.1163 119.904 39.8843 120.448 40.8763C120.992 41.8523 121.264 42.9803 121.264 44.2603ZM118.408 43.3963C118.392 42.3883 118.032 41.5803 117.328 40.9723C116.624 40.3643 115.752 40.0603 114.712 40.0603C113.768 40.0603 112.96 40.3643 112.288 40.9723C111.616 41.5643 111.216 42.3723 111.088 43.3963H118.408ZM133.883 40.2043V47.5243C133.883 48.0203 133.995 48.3803 134.219 48.6043C134.459 48.8123 134.859 48.9163 135.419 48.9163H137.099V51.1963H134.939C133.707 51.1963 132.763 50.9083 132.107 50.3323C131.451 49.7563 131.123 48.8203 131.123 47.5243V40.2043H129.563V37.9723H131.123V34.6843H133.883V37.9723H137.099V40.2043H133.883ZM145.606 51.4123C144.358 51.4123 143.23 51.1323 142.222 50.5723C141.214 49.9963 140.422 49.1963 139.846 48.1723C139.27 47.1323 138.982 45.9323 138.982 44.5723C138.982 43.2283 139.278 42.0363 139.87 40.9963C140.462 39.9563 141.27 39.1563 142.294 38.5963C143.318 38.0363 144.462 37.7563 145.726 37.7563C146.99 37.7563 148.134 38.0363 149.158 38.5963C150.182 39.1563 150.99 39.9563 151.582 40.9963C152.174 42.0363 152.47 43.2283 152.47 44.5723C152.47 45.9163 152.166 47.1083 151.558 48.1483C150.95 49.1883 150.118 49.9963 149.062 50.5723C148.022 51.1323 146.87 51.4123 145.606 51.4123ZM145.606 49.0363C146.31 49.0363 146.966 48.8683 147.574 48.5323C148.198 48.1963 148.702 47.6923 149.086 47.0203C149.47 46.3483 149.662 45.5323 149.662 44.5723C149.662 43.6123 149.478 42.8043 149.11 42.1483C148.742 41.4763 148.254 40.9723 147.646 40.6363C147.038 40.3003 146.382 40.1323 145.678 40.1323C144.974 40.1323 144.318 40.3003 143.71 40.6363C143.118 40.9723 142.646 41.4763 142.294 42.1483C141.942 42.8043 141.766 43.6123 141.766 44.5723C141.766 45.9963 142.126 47.1003 142.846 47.8843C143.582 48.6523 144.502 49.0363 145.606 49.0363ZM29.328 75.7723C29.328 76.7483 29.104 77.6443 28.656 78.4603C28.208 79.2603 27.52 79.9083 26.592 80.4043C25.664 80.9003 24.512 81.1483 23.136 81.1483H20.592V87.1963H16.488V70.3483H23.136C24.48 70.3483 25.616 70.5803 26.544 71.0443C27.472 71.5083 28.168 72.1483 28.632 72.9643C29.096 73.7803 29.328 74.7163 29.328 75.7723ZM22.824 77.8843C23.608 77.8843 24.192 77.7003 24.576 77.3323C24.96 76.9643 25.152 76.4443 25.152 75.7723C25.152 75.1003 24.96 74.5803 24.576 74.2123C24.192 73.8443 23.608 73.6603 22.824 73.6603H20.592V77.8843H22.824ZM40.3066 87.1963L36.8026 80.8363H35.8186V87.1963H31.7146V70.3483H38.6026C39.9306 70.3483 41.0586 70.5803 41.9866 71.0443C42.9306 71.5083 43.6346 72.1483 44.0986 72.9643C44.5626 73.7643 44.7946 74.6603 44.7946 75.6523C44.7946 76.7723 44.4746 77.7723 43.8346 78.6523C43.2106 79.5323 42.2826 80.1563 41.0506 80.5243L44.9386 87.1963H40.3066ZM35.8186 77.9323H38.3626C39.1146 77.9323 39.6746 77.7483 40.0426 77.3803C40.4266 77.0123 40.6186 76.4923 40.6186 75.8203C40.6186 75.1803 40.4266 74.6763 40.0426 74.3083C39.6746 73.9403 39.1146 73.7563 38.3626 73.7563H35.8186V77.9323ZM55.5888 87.3643C54.0048 87.3643 52.5488 86.9963 51.2208 86.2603C49.9088 85.5243 48.8608 84.5003 48.0768 83.1883C47.3088 81.8603 46.9248 80.3723 46.9248 78.7243C46.9248 77.0763 47.3088 75.5963 48.0768 74.2843C48.8608 72.9723 49.9088 71.9483 51.2208 71.2123C52.5488 70.4763 54.0048 70.1083 55.5888 70.1083C57.1728 70.1083 58.6208 70.4763 59.9328 71.2123C61.2608 71.9483 62.3008 72.9723 63.0528 74.2843C63.8208 75.5963 64.2048 77.0763 64.2048 78.7243C64.2048 80.3723 63.8208 81.8603 63.0528 83.1883C62.2848 84.5003 61.2448 85.5243 59.9328 86.2603C58.6208 86.9963 57.1728 87.3643 55.5888 87.3643ZM55.5888 83.6203C56.9328 83.6203 58.0048 83.1723 58.8048 82.2763C59.6208 81.3803 60.0288 80.1963 60.0288 78.7243C60.0288 77.2363 59.6208 76.0523 58.8048 75.1723C58.0048 74.2763 56.9328 73.8283 55.5888 73.8283C54.2288 73.8283 53.1408 74.2683 52.3248 75.1483C51.5248 76.0283 51.1248 77.2203 51.1248 78.7243C51.1248 80.2123 51.5248 81.4043 52.3248 82.3003C53.1408 83.1803 54.2288 83.6203 55.5888 83.6203ZM82.5619 84.2203H76.2739L75.2659 87.1963H70.9699L77.0659 70.3483H81.8179L87.9139 87.1963H83.5699L82.5619 84.2203ZM81.5059 81.0523L79.4179 74.8843L77.3539 81.0523H81.5059ZM89.2033 80.5003C89.2033 79.1083 89.4833 77.8923 90.0433 76.8523C90.6193 75.8123 91.4113 75.0123 92.4193 74.4523C93.4433 73.8923 94.6113 73.6123 95.9233 73.6123C97.6033 73.6123 99.0033 74.0523 100.123 74.9323C101.259 75.8123 102.003 77.0523 102.355 78.6523H97.9873C97.6193 77.6283 96.9073 77.1163 95.8513 77.1163C95.0993 77.1163 94.4993 77.4123 94.0513 78.0043C93.6033 78.5803 93.3793 79.4123 93.3793 80.5003C93.3793 81.5883 93.6033 82.4283 94.0513 83.0203C94.4993 83.5963 95.0993 83.8843 95.8513 83.8843C96.9073 83.8843 97.6193 83.3723 97.9873 82.3483H102.355C102.003 83.9163 101.259 85.1483 100.123 86.0443C98.9873 86.9403 97.5873 87.3883 95.9233 87.3883C94.6113 87.3883 93.4433 87.1083 92.4193 86.5483C91.4113 85.9883 90.6193 85.1883 90.0433 84.1483C89.4833 83.1083 89.2033 81.8923 89.2033 80.5003ZM103.985 80.5003C103.985 79.1083 104.265 77.8923 104.825 76.8523C105.401 75.8123 106.193 75.0123 107.201 74.4523C108.225 73.8923 109.393 73.6123 110.705 73.6123C112.385 73.6123 113.785 74.0523 114.905 74.9323C116.041 75.8123 116.785 77.0523 117.137 78.6523H112.769C112.401 77.6283 111.689 77.1163 110.633 77.1163C109.881 77.1163 109.281 77.4123 108.833 78.0043C108.385 78.5803 108.161 79.4123 108.161 80.5003C108.161 81.5883 108.385 82.4283 108.833 83.0203C109.281 83.5963 109.881 83.8843 110.633 83.8843C111.689 83.8843 112.401 83.3723 112.769 82.3483H117.137C116.785 83.9163 116.041 85.1483 114.905 86.0443C113.769 86.9403 112.369 87.3883 110.705 87.3883C109.393 87.3883 108.225 87.1083 107.201 86.5483C106.193 85.9883 105.401 85.1883 104.825 84.1483C104.265 83.1083 103.985 81.8923 103.985 80.5003ZM125.678 87.3883C124.366 87.3883 123.182 87.1083 122.126 86.5483C121.086 85.9883 120.262 85.1883 119.654 84.1483C119.062 83.1083 118.766 81.8923 118.766 80.5003C118.766 79.1243 119.07 77.9163 119.678 76.8763C120.286 75.8203 121.118 75.0123 122.174 74.4523C123.23 73.8923 124.414 73.6123 125.726 73.6123C127.038 73.6123 128.222 73.8923 129.278 74.4523C130.334 75.0123 131.166 75.8203 131.774 76.8763C132.382 77.9163 132.686 79.1243 132.686 80.5003C132.686 81.8763 132.374 83.0923 131.75 84.1483C131.142 85.1883 130.302 85.9883 129.23 86.5483C128.174 87.1083 126.99 87.3883 125.678 87.3883ZM125.678 83.8363C126.462 83.8363 127.126 83.5483 127.67 82.9723C128.23 82.3963 128.51 81.5723 128.51 80.5003C128.51 79.4283 128.238 78.6043 127.694 78.0283C127.166 77.4523 126.51 77.1643 125.726 77.1643C124.926 77.1643 124.262 77.4523 123.734 78.0283C123.206 78.5883 122.942 79.4123 122.942 80.5003C122.942 81.5723 123.198 82.3963 123.71 82.9723C124.238 83.5483 124.894 83.8363 125.678 83.8363ZM148.337 73.8043V87.1963H144.233V85.3723C143.817 85.9643 143.249 86.4443 142.529 86.8123C141.825 87.1643 141.041 87.3403 140.177 87.3403C139.153 87.3403 138.249 87.1163 137.465 86.6683C136.681 86.2043 136.073 85.5403 135.641 84.6763C135.209 83.8123 134.993 82.7963 134.993 81.6283V73.8043H139.073V81.0763C139.073 81.9723 139.305 82.6683 139.769 83.1643C140.233 83.6603 140.857 83.9083 141.641 83.9083C142.441 83.9083 143.073 83.6603 143.537 83.1643C144.001 82.6683 144.233 81.9723 144.233 81.0763V73.8043H148.337ZM159.695 73.6603C161.263 73.6603 162.511 74.1723 163.439 75.1963C164.383 76.2043 164.855 77.5963 164.855 79.3723V87.1963H160.775V79.9243C160.775 79.0283 160.543 78.3323 160.079 77.8363C159.615 77.3403 158.991 77.0923 158.207 77.0923C157.423 77.0923 156.799 77.3403 156.335 77.8363C155.871 78.3323 155.639 79.0283 155.639 79.9243V87.1963H151.535V73.8043H155.639V75.5803C156.055 74.9883 156.615 74.5243 157.319 74.1883C158.023 73.8363 158.815 73.6603 159.695 73.6603ZM175.421 83.7163V87.1963H173.333C171.845 87.1963 170.685 86.8363 169.853 86.1163C169.021 85.3803 168.605 84.1883 168.605 82.5403V77.2123H166.973V73.8043H168.605V70.5403H172.709V73.8043H175.397V77.2123H172.709V82.5883C172.709 82.9883 172.805 83.2763 172.997 83.4523C173.189 83.6283 173.509 83.7163 173.957 83.7163H175.421Z" fill="#5B5E6F"/>
<path opacity="0.8" d="M19.172 122.294C18.528 122.294 17.9493 122.182 17.436 121.958C16.932 121.725 16.5353 121.408 16.246 121.006C15.9567 120.596 15.8073 120.124 15.798 119.592H17.156C17.2027 120.05 17.3893 120.437 17.716 120.754C18.052 121.062 18.5373 121.216 19.172 121.216C19.7787 121.216 20.2547 121.067 20.6 120.768C20.9547 120.46 21.132 120.068 21.132 119.592C21.132 119.219 21.0293 118.916 20.824 118.682C20.6187 118.449 20.362 118.272 20.054 118.15C19.746 118.029 19.3307 117.898 18.808 117.758C18.164 117.59 17.646 117.422 17.254 117.254C16.8713 117.086 16.54 116.825 16.26 116.47C15.9893 116.106 15.854 115.621 15.854 115.014C15.854 114.482 15.9893 114.011 16.26 113.6C16.5307 113.19 16.9087 112.872 17.394 112.648C17.8887 112.424 18.4533 112.312 19.088 112.312C20.0027 112.312 20.7493 112.541 21.328 112.998C21.916 113.456 22.2473 114.062 22.322 114.818H20.922C20.8753 114.445 20.6793 114.118 20.334 113.838C19.9887 113.549 19.5313 113.404 18.962 113.404C18.43 113.404 17.996 113.544 17.66 113.824C17.324 114.095 17.156 114.478 17.156 114.972C17.156 115.327 17.254 115.616 17.45 115.84C17.6553 116.064 17.9027 116.237 18.192 116.358C18.4907 116.47 18.906 116.601 19.438 116.75C20.082 116.928 20.6 117.105 20.992 117.282C21.384 117.45 21.72 117.716 22 118.08C22.28 118.435 22.42 118.92 22.42 119.536C22.42 120.012 22.294 120.46 22.042 120.88C21.79 121.3 21.4167 121.641 20.922 121.902C20.4273 122.164 19.844 122.294 19.172 122.294ZM26.0988 115.574V120.096C26.0988 120.47 26.1781 120.736 26.3368 120.894C26.4955 121.044 26.7708 121.118 27.1628 121.118H28.1008V122.196H26.9528C26.2435 122.196 25.7115 122.033 25.3568 121.706C25.0021 121.38 24.8248 120.843 24.8248 120.096V115.574H23.8308V114.524H24.8248V112.592H26.0988V114.524H28.1008V115.574H26.0988ZM29.4184 118.332C29.4184 117.548 29.5771 116.862 29.8944 116.274C30.2117 115.677 30.6457 115.215 31.1964 114.888C31.7564 114.562 32.3771 114.398 33.0584 114.398C33.7304 114.398 34.3137 114.543 34.8084 114.832C35.3031 115.122 35.6717 115.486 35.9144 115.924V114.524H37.2024V122.196H35.9144V120.768C35.6624 121.216 35.2844 121.59 34.7804 121.888C34.2857 122.178 33.7071 122.322 33.0444 122.322C32.3631 122.322 31.7471 122.154 31.1964 121.818C30.6457 121.482 30.2117 121.011 29.8944 120.404C29.5771 119.798 29.4184 119.107 29.4184 118.332ZM35.9144 118.346C35.9144 117.768 35.7977 117.264 35.5644 116.834C35.3311 116.405 35.0137 116.078 34.6124 115.854C34.2204 115.621 33.7864 115.504 33.3104 115.504C32.8344 115.504 32.4004 115.616 32.0084 115.84C31.6164 116.064 31.3037 116.391 31.0704 116.82C30.8371 117.25 30.7204 117.754 30.7204 118.332C30.7204 118.92 30.8371 119.434 31.0704 119.872C31.3037 120.302 31.6164 120.633 32.0084 120.866C32.4004 121.09 32.8344 121.202 33.3104 121.202C33.7864 121.202 34.2204 121.09 34.6124 120.866C35.0137 120.633 35.3311 120.302 35.5644 119.872C35.7977 119.434 35.9144 118.925 35.9144 118.346ZM40.8793 115.77C41.1033 115.332 41.4207 114.991 41.8313 114.748C42.2513 114.506 42.76 114.384 43.3573 114.384V115.7H43.0213C41.5933 115.7 40.8793 116.475 40.8793 118.024V122.196H39.6053V114.524H40.8793V115.77ZM46.632 115.574V120.096C46.632 120.47 46.7113 120.736 46.87 120.894C47.0287 121.044 47.304 121.118 47.696 121.118H48.634V122.196H47.486C46.7767 122.196 46.2447 122.033 45.89 121.706C45.5353 121.38 45.358 120.843 45.358 120.096V115.574H44.364V114.524H45.358V112.592H46.632V114.524H48.634V115.574H46.632ZM61.018 114.524L56.398 125.808H55.082L56.594 122.112L53.5 114.524H54.914L57.322 120.74L59.702 114.524H61.018ZM65.8947 122.322C65.176 122.322 64.5227 122.159 63.9347 121.832C63.356 121.506 62.8987 121.044 62.5627 120.446C62.236 119.84 62.0727 119.14 62.0727 118.346C62.0727 117.562 62.2407 116.872 62.5767 116.274C62.922 115.668 63.3887 115.206 63.9767 114.888C64.5647 114.562 65.2227 114.398 65.9507 114.398C66.6787 114.398 67.3367 114.562 67.9247 114.888C68.5127 115.206 68.9747 115.663 69.3107 116.26C69.656 116.858 69.8287 117.553 69.8287 118.346C69.8287 119.14 69.6514 119.84 69.2967 120.446C68.9514 121.044 68.48 121.506 67.8827 121.832C67.2854 122.159 66.6227 122.322 65.8947 122.322ZM65.8947 121.202C66.352 121.202 66.7814 121.095 67.1827 120.88C67.584 120.666 67.906 120.344 68.1487 119.914C68.4007 119.485 68.5267 118.962 68.5267 118.346C68.5267 117.73 68.4054 117.208 68.1627 116.778C67.92 116.349 67.6027 116.032 67.2107 115.826C66.8187 115.612 66.394 115.504 65.9367 115.504C65.47 115.504 65.0407 115.612 64.6487 115.826C64.266 116.032 63.958 116.349 63.7247 116.778C63.4914 117.208 63.3747 117.73 63.3747 118.346C63.3747 118.972 63.4867 119.499 63.7107 119.928C63.944 120.358 64.252 120.68 64.6347 120.894C65.0174 121.1 65.4374 121.202 65.8947 121.202ZM78.5578 114.524V122.196H77.2838V121.062C77.0411 121.454 76.7004 121.762 76.2618 121.986C75.8324 122.201 75.3564 122.308 74.8338 122.308C74.2364 122.308 73.6998 122.187 73.2238 121.944C72.7478 121.692 72.3698 121.319 72.0898 120.824C71.8191 120.33 71.6838 119.728 71.6838 119.018V114.524H72.9438V118.85C72.9438 119.606 73.1351 120.19 73.5178 120.6C73.9004 121.002 74.4231 121.202 75.0858 121.202C75.7671 121.202 76.3038 120.992 76.6958 120.572C77.0878 120.152 77.2838 119.541 77.2838 118.738V114.524H78.5578ZM82.2329 115.77C82.4569 115.332 82.7742 114.991 83.1849 114.748C83.6049 114.506 84.1135 114.384 84.7109 114.384V115.7H84.3749C82.9469 115.7 82.2329 116.475 82.2329 118.024V122.196H80.9589V114.524H82.2329V115.77ZM96.9379 115.294C96.9379 116.106 96.6579 116.783 96.0979 117.324C95.5473 117.856 94.7026 118.122 93.5639 118.122H91.6879V122.196H90.4139V112.438H93.5639C94.6653 112.438 95.5006 112.704 96.0699 113.236C96.6486 113.768 96.9379 114.454 96.9379 115.294ZM93.5639 117.072C94.2733 117.072 94.7959 116.918 95.1319 116.61C95.4679 116.302 95.6359 115.864 95.6359 115.294C95.6359 114.09 94.9453 113.488 93.5639 113.488H91.6879V117.072H93.5639ZM103.909 122.196L101.585 118.206H100.045V122.196H98.7714V112.438H101.921C102.659 112.438 103.279 112.564 103.783 112.816C104.297 113.068 104.679 113.409 104.931 113.838C105.183 114.268 105.309 114.758 105.309 115.308C105.309 115.98 105.113 116.573 104.721 117.086C104.339 117.6 103.76 117.94 102.985 118.108L105.435 122.196H103.909ZM100.045 117.184H101.921C102.612 117.184 103.13 117.016 103.475 116.68C103.821 116.335 103.993 115.878 103.993 115.308C103.993 114.73 103.821 114.282 103.475 113.964C103.139 113.647 102.621 113.488 101.921 113.488H100.045V117.184ZM111.963 122.294C111.058 122.294 110.232 122.084 109.485 121.664C108.738 121.235 108.146 120.642 107.707 119.886C107.278 119.121 107.063 118.262 107.063 117.31C107.063 116.358 107.278 115.504 107.707 114.748C108.146 113.983 108.738 113.39 109.485 112.97C110.232 112.541 111.058 112.326 111.963 112.326C112.878 112.326 113.708 112.541 114.455 112.97C115.202 113.39 115.79 113.978 116.219 114.734C116.648 115.49 116.863 116.349 116.863 117.31C116.863 118.272 116.648 119.13 116.219 119.886C115.79 120.642 115.202 121.235 114.455 121.664C113.708 122.084 112.878 122.294 111.963 122.294ZM111.963 121.188C112.644 121.188 113.256 121.03 113.797 120.712C114.348 120.395 114.777 119.942 115.085 119.354C115.402 118.766 115.561 118.085 115.561 117.31C115.561 116.526 115.402 115.845 115.085 115.266C114.777 114.678 114.352 114.226 113.811 113.908C113.27 113.591 112.654 113.432 111.963 113.432C111.272 113.432 110.656 113.591 110.115 113.908C109.574 114.226 109.144 114.678 108.827 115.266C108.519 115.845 108.365 116.526 108.365 117.31C108.365 118.085 108.519 118.766 108.827 119.354C109.144 119.942 109.574 120.395 110.115 120.712C110.666 121.03 111.282 121.188 111.963 121.188ZM18.794 143.322C18.206 143.322 17.6787 143.224 17.212 143.028C16.7453 142.823 16.3767 142.543 16.106 142.188C15.8353 141.824 15.686 141.409 15.658 140.942H16.974C17.0113 141.325 17.1887 141.638 17.506 141.88C17.8327 142.123 18.2573 142.244 18.78 142.244C19.2653 142.244 19.648 142.137 19.928 141.922C20.208 141.708 20.348 141.437 20.348 141.11C20.348 140.774 20.1987 140.527 19.9 140.368C19.6013 140.2 19.1393 140.037 18.514 139.878C17.9447 139.729 17.478 139.58 17.114 139.43C16.7593 139.272 16.4513 139.043 16.19 138.744C15.938 138.436 15.812 138.035 15.812 137.54C15.812 137.148 15.9287 136.789 16.162 136.462C16.3953 136.136 16.7267 135.879 17.156 135.692C17.5853 135.496 18.0753 135.398 18.626 135.398C19.4753 135.398 20.1613 135.613 20.684 136.042C21.2067 136.472 21.4867 137.06 21.524 137.806H20.25C20.222 137.405 20.0587 137.083 19.76 136.84C19.4707 136.598 19.0787 136.476 18.584 136.476C18.1267 136.476 17.7627 136.574 17.492 136.77C17.2213 136.966 17.086 137.223 17.086 137.54C17.086 137.792 17.1653 138.002 17.324 138.17C17.492 138.329 17.6973 138.46 17.94 138.562C18.192 138.656 18.5373 138.763 18.976 138.884C19.5267 139.034 19.9747 139.183 20.32 139.332C20.6653 139.472 20.9593 139.687 21.202 139.976C21.454 140.266 21.5847 140.644 21.594 141.11C21.594 141.53 21.4773 141.908 21.244 142.244C21.0107 142.58 20.6793 142.846 20.25 143.042C19.83 143.229 19.3447 143.322 18.794 143.322ZM30.4465 135.524V143.196H29.1725V142.062C28.9298 142.454 28.5891 142.762 28.1505 142.986C27.7211 143.201 27.2451 143.308 26.7225 143.308C26.1251 143.308 25.5885 143.187 25.1125 142.944C24.6365 142.692 24.2585 142.319 23.9785 141.824C23.7078 141.33 23.5725 140.728 23.5725 140.018V135.524H24.8325V139.85C24.8325 140.606 25.0238 141.19 25.4065 141.6C25.7891 142.002 26.3118 142.202 26.9745 142.202C27.6558 142.202 28.1925 141.992 28.5845 141.572C28.9765 141.152 29.1725 140.541 29.1725 139.738V135.524H30.4465ZM34.1215 136.952C34.3829 136.495 34.7655 136.122 35.2695 135.832C35.7735 135.543 36.3475 135.398 36.9915 135.398C37.6822 135.398 38.3029 135.562 38.8535 135.888C39.4042 136.215 39.8382 136.677 40.1555 137.274C40.4729 137.862 40.6315 138.548 40.6315 139.332C40.6315 140.107 40.4729 140.798 40.1555 141.404C39.8382 142.011 39.3995 142.482 38.8395 142.818C38.2889 143.154 37.6729 143.322 36.9915 143.322C36.3289 143.322 35.7455 143.178 35.2415 142.888C34.7469 142.599 34.3735 142.23 34.1215 141.782V143.196H32.8475V132.836H34.1215V136.952ZM39.3295 139.332C39.3295 138.754 39.2129 138.25 38.9795 137.82C38.7462 137.391 38.4289 137.064 38.0275 136.84C37.6355 136.616 37.2015 136.504 36.7255 136.504C36.2589 136.504 35.8249 136.621 35.4235 136.854C35.0315 137.078 34.7142 137.41 34.4715 137.848C34.2382 138.278 34.1215 138.777 34.1215 139.346C34.1215 139.925 34.2382 140.434 34.4715 140.872C34.7142 141.302 35.0315 141.633 35.4235 141.866C35.8249 142.09 36.2589 142.202 36.7255 142.202C37.2015 142.202 37.6355 142.09 38.0275 141.866C38.4289 141.633 38.7462 141.302 38.9795 140.872C39.2129 140.434 39.3295 139.92 39.3295 139.332ZM45.2745 143.322C44.6865 143.322 44.1591 143.224 43.6925 143.028C43.2258 142.823 42.8571 142.543 42.5865 142.188C42.3158 141.824 42.1665 141.409 42.1385 140.942H43.4545C43.4918 141.325 43.6691 141.638 43.9865 141.88C44.3131 142.123 44.7378 142.244 45.2605 142.244C45.7458 142.244 46.1285 142.137 46.4085 141.922C46.6885 141.708 46.8285 141.437 46.8285 141.11C46.8285 140.774 46.6791 140.527 46.3805 140.368C46.0818 140.2 45.6198 140.037 44.9945 139.878C44.4251 139.729 43.9585 139.58 43.5945 139.43C43.2398 139.272 42.9318 139.043 42.6705 138.744C42.4185 138.436 42.2925 138.035 42.2925 137.54C42.2925 137.148 42.4091 136.789 42.6425 136.462C42.8758 136.136 43.2071 135.879 43.6365 135.692C44.0658 135.496 44.5558 135.398 45.1065 135.398C45.9558 135.398 46.6418 135.613 47.1645 136.042C47.6871 136.472 47.9671 137.06 48.0045 137.806H46.7305C46.7025 137.405 46.5391 137.083 46.2405 136.84C45.9511 136.598 45.5591 136.476 45.0645 136.476C44.6071 136.476 44.2431 136.574 43.9725 136.77C43.7018 136.966 43.5665 137.223 43.5665 137.54C43.5665 137.792 43.6458 138.002 43.8045 138.17C43.9725 138.329 44.1778 138.46 44.4205 138.562C44.6725 138.656 45.0178 138.763 45.4565 138.884C46.0071 139.034 46.4551 139.183 46.8005 139.332C47.1458 139.472 47.4398 139.687 47.6825 139.976C47.9345 140.266 48.0651 140.644 48.0745 141.11C48.0745 141.53 47.9578 141.908 47.7245 142.244C47.4911 142.58 47.1598 142.846 46.7305 143.042C46.3105 143.229 45.8251 143.322 45.2745 143.322ZM49.6469 139.346C49.6469 138.553 49.8056 137.862 50.1229 137.274C50.4403 136.677 50.8789 136.215 51.4389 135.888C52.0083 135.562 52.6569 135.398 53.3849 135.398C54.3276 135.398 55.1023 135.627 55.7089 136.084C56.3249 136.542 56.7309 137.176 56.9269 137.988H55.5549C55.4243 137.522 55.1676 137.153 54.7849 136.882C54.4116 136.612 53.9449 136.476 53.3849 136.476C52.6569 136.476 52.0689 136.728 51.6209 137.232C51.1729 137.727 50.9489 138.432 50.9489 139.346C50.9489 140.27 51.1729 140.984 51.6209 141.488C52.0689 141.992 52.6569 142.244 53.3849 142.244C53.9449 142.244 54.4116 142.114 54.7849 141.852C55.1583 141.591 55.4149 141.218 55.5549 140.732H56.9269C56.7216 141.516 56.3109 142.146 55.6949 142.622C55.0789 143.089 54.3089 143.322 53.3849 143.322C52.6569 143.322 52.0083 143.159 51.4389 142.832C50.8789 142.506 50.4403 142.044 50.1229 141.446C49.8056 140.849 49.6469 140.149 49.6469 139.346ZM60.1508 136.77C60.3748 136.332 60.6922 135.991 61.1028 135.748C61.5228 135.506 62.0315 135.384 62.6288 135.384V136.7H62.2928C60.8648 136.7 60.1508 137.475 60.1508 139.024V143.196H58.8768V135.524H60.1508V136.77ZM65.0075 134.278C64.7648 134.278 64.5595 134.194 64.3915 134.026C64.2235 133.858 64.1395 133.653 64.1395 133.41C64.1395 133.168 64.2235 132.962 64.3915 132.794C64.5595 132.626 64.7648 132.542 65.0075 132.542C65.2408 132.542 65.4368 132.626 65.5955 132.794C65.7635 132.962 65.8475 133.168 65.8475 133.41C65.8475 133.653 65.7635 133.858 65.5955 134.026C65.4368 134.194 65.2408 134.278 65.0075 134.278ZM65.6235 135.524V143.196H64.3495V135.524H65.6235ZM69.3188 136.938C69.5708 136.5 69.9441 136.136 70.4388 135.846C70.9428 135.548 71.5261 135.398 72.1888 135.398C72.8701 135.398 73.4861 135.562 74.0368 135.888C74.5968 136.215 75.0355 136.677 75.3528 137.274C75.6701 137.862 75.8288 138.548 75.8288 139.332C75.8288 140.107 75.6701 140.798 75.3528 141.404C75.0355 142.011 74.5968 142.482 74.0368 142.818C73.4861 143.154 72.8701 143.322 72.1888 143.322C71.5355 143.322 70.9568 143.178 70.4528 142.888C69.9581 142.59 69.5801 142.221 69.3188 141.782V146.836H68.0448V135.524H69.3188V136.938ZM74.5268 139.332C74.5268 138.754 74.4101 138.25 74.1768 137.82C73.9435 137.391 73.6261 137.064 73.2248 136.84C72.8328 136.616 72.3988 136.504 71.9228 136.504C71.4561 136.504 71.0221 136.621 70.6208 136.854C70.2288 137.078 69.9115 137.41 69.6688 137.848C69.4355 138.278 69.3188 138.777 69.3188 139.346C69.3188 139.925 69.4355 140.434 69.6688 140.872C69.9115 141.302 70.2288 141.633 70.6208 141.866C71.0221 142.09 71.4561 142.202 71.9228 142.202C72.3988 142.202 72.8328 142.09 73.2248 141.866C73.6261 141.633 73.9435 141.302 74.1768 140.872C74.4101 140.434 74.5268 139.92 74.5268 139.332ZM79.3097 136.574V141.096C79.3097 141.47 79.3891 141.736 79.5477 141.894C79.7064 142.044 79.9817 142.118 80.3737 142.118H81.3117V143.196H80.1637C79.4544 143.196 78.9224 143.033 78.5677 142.706C78.2131 142.38 78.0357 141.843 78.0357 141.096V136.574H77.0417V135.524H78.0357V133.592H79.3097V135.524H81.3117V136.574H79.3097ZM83.7633 134.278C83.5207 134.278 83.3153 134.194 83.1473 134.026C82.9793 133.858 82.8953 133.653 82.8953 133.41C82.8953 133.168 82.9793 132.962 83.1473 132.794C83.3153 132.626 83.5207 132.542 83.7633 132.542C83.9967 132.542 84.1927 132.626 84.3513 132.794C84.5193 132.962 84.6033 133.168 84.6033 133.41C84.6033 133.653 84.5193 133.858 84.3513 134.026C84.1927 134.194 83.9967 134.278 83.7633 134.278ZM84.3793 135.524V143.196H83.1053V135.524H84.3793ZM90.1467 143.322C89.428 143.322 88.7747 143.159 88.1867 142.832C87.608 142.506 87.1507 142.044 86.8147 141.446C86.488 140.84 86.3247 140.14 86.3247 139.346C86.3247 138.562 86.4927 137.872 86.8287 137.274C87.174 136.668 87.6407 136.206 88.2287 135.888C88.8167 135.562 89.4747 135.398 90.2027 135.398C90.9307 135.398 91.5887 135.562 92.1767 135.888C92.7647 136.206 93.2267 136.663 93.5627 137.26C93.908 137.858 94.0807 138.553 94.0807 139.346C94.0807 140.14 93.9033 140.84 93.5487 141.446C93.2033 142.044 92.732 142.506 92.1347 142.832C91.5373 143.159 90.8747 143.322 90.1467 143.322ZM90.1467 142.202C90.604 142.202 91.0333 142.095 91.4347 141.88C91.836 141.666 92.158 141.344 92.4007 140.914C92.6527 140.485 92.7787 139.962 92.7787 139.346C92.7787 138.73 92.6573 138.208 92.4147 137.778C92.172 137.349 91.8547 137.032 91.4627 136.826C91.0707 136.612 90.646 136.504 90.1887 136.504C89.722 136.504 89.2927 136.612 88.9007 136.826C88.518 137.032 88.21 137.349 87.9767 137.778C87.7433 138.208 87.6267 138.73 87.6267 139.346C87.6267 139.972 87.7387 140.499 87.9627 140.928C88.196 141.358 88.504 141.68 88.8867 141.894C89.2693 142.1 89.6893 142.202 90.1467 142.202ZM99.7437 135.384C100.677 135.384 101.433 135.669 102.012 136.238C102.59 136.798 102.88 137.61 102.88 138.674V143.196H101.62V138.856C101.62 138.091 101.428 137.508 101.046 137.106C100.663 136.696 100.14 136.49 99.4777 136.49C98.8057 136.49 98.2691 136.7 97.8677 137.12C97.4757 137.54 97.2797 138.152 97.2797 138.954V143.196H96.0057V135.524H97.2797V136.616C97.5317 136.224 97.8724 135.921 98.3017 135.706C98.7404 135.492 99.2211 135.384 99.7437 135.384ZM17.632 157.574V162.096C17.632 162.47 17.7113 162.736 17.87 162.894C18.0287 163.044 18.304 163.118 18.696 163.118H19.634V164.196H18.486C17.7767 164.196 17.2447 164.033 16.89 163.706C16.5353 163.38 16.358 162.843 16.358 162.096V157.574H15.364V156.524H16.358V154.592H17.632V156.524H19.634V157.574H17.632ZM24.7736 164.322C24.0549 164.322 23.4016 164.159 22.8136 163.832C22.2349 163.506 21.7776 163.044 21.4416 162.446C21.1149 161.84 20.9516 161.14 20.9516 160.346C20.9516 159.562 21.1196 158.872 21.4556 158.274C21.8009 157.668 22.2676 157.206 22.8556 156.888C23.4436 156.562 24.1016 156.398 24.8296 156.398C25.5576 156.398 26.2156 156.562 26.8036 156.888C27.3916 157.206 27.8536 157.663 28.1896 158.26C28.5349 158.858 28.7076 159.553 28.7076 160.346C28.7076 161.14 28.5303 161.84 28.1756 162.446C27.8303 163.044 27.3589 163.506 26.7616 163.832C26.1643 164.159 25.5016 164.322 24.7736 164.322ZM24.7736 163.202C25.2309 163.202 25.6603 163.095 26.0616 162.88C26.4629 162.666 26.7849 162.344 27.0276 161.914C27.2796 161.485 27.4056 160.962 27.4056 160.346C27.4056 159.73 27.2843 159.208 27.0416 158.778C26.7989 158.349 26.4816 158.032 26.0896 157.826C25.6976 157.612 25.2729 157.504 24.8156 157.504C24.3489 157.504 23.9196 157.612 23.5276 157.826C23.1449 158.032 22.8369 158.349 22.6036 158.778C22.3703 159.208 22.2536 159.73 22.2536 160.346C22.2536 160.972 22.3656 161.499 22.5896 161.928C22.8229 162.358 23.1309 162.68 23.5136 162.894C23.8963 163.1 24.3163 163.202 24.7736 163.202ZM30.1567 160.332C30.1567 159.548 30.3154 158.862 30.6327 158.274C30.95 157.677 31.384 157.215 31.9347 156.888C32.4947 156.562 33.12 156.398 33.8107 156.398C34.408 156.398 34.9634 156.538 35.4767 156.818C35.99 157.089 36.382 157.448 36.6527 157.896V153.836H37.9407V164.196H36.6527V162.754C36.4007 163.212 36.0274 163.59 35.5327 163.888C35.038 164.178 34.4594 164.322 33.7967 164.322C33.1154 164.322 32.4947 164.154 31.9347 163.818C31.384 163.482 30.95 163.011 30.6327 162.404C30.3154 161.798 30.1567 161.107 30.1567 160.332ZM36.6527 160.346C36.6527 159.768 36.536 159.264 36.3027 158.834C36.0694 158.405 35.752 158.078 35.3507 157.854C34.9587 157.621 34.5247 157.504 34.0487 157.504C33.5727 157.504 33.1387 157.616 32.7467 157.84C32.3547 158.064 32.042 158.391 31.8087 158.82C31.5754 159.25 31.4587 159.754 31.4587 160.332C31.4587 160.92 31.5754 161.434 31.8087 161.872C32.042 162.302 32.3547 162.633 32.7467 162.866C33.1387 163.09 33.5727 163.202 34.0487 163.202C34.5247 163.202 34.9587 163.09 35.3507 162.866C35.752 162.633 36.0694 162.302 36.3027 161.872C36.536 161.434 36.6527 160.925 36.6527 160.346ZM39.8676 160.332C39.8676 159.548 40.0263 158.862 40.3436 158.274C40.661 157.677 41.095 157.215 41.6456 156.888C42.2056 156.562 42.8263 156.398 43.5076 156.398C44.1796 156.398 44.763 156.543 45.2576 156.832C45.7523 157.122 46.121 157.486 46.3636 157.924V156.524H47.6516V164.196H46.3636V162.768C46.1116 163.216 45.7336 163.59 45.2296 163.888C44.735 164.178 44.1563 164.322 43.4936 164.322C42.8123 164.322 42.1963 164.154 41.6456 163.818C41.095 163.482 40.661 163.011 40.3436 162.404C40.0263 161.798 39.8676 161.107 39.8676 160.332ZM46.3636 160.346C46.3636 159.768 46.247 159.264 46.0136 158.834C45.7803 158.405 45.463 158.078 45.0616 157.854C44.6696 157.621 44.2356 157.504 43.7596 157.504C43.2836 157.504 42.8496 157.616 42.4576 157.84C42.0656 158.064 41.753 158.391 41.5196 158.82C41.2863 159.25 41.1696 159.754 41.1696 160.332C41.1696 160.92 41.2863 161.434 41.5196 161.872C41.753 162.302 42.0656 162.633 42.4576 162.866C42.8496 163.09 43.2836 163.202 43.7596 163.202C44.2356 163.202 44.6696 163.09 45.0616 162.866C45.463 162.633 45.7803 162.302 46.0136 161.872C46.247 161.434 46.3636 160.925 46.3636 160.346ZM56.6626 156.524L52.0426 167.808H50.7266L52.2386 164.112L49.1446 156.524H50.5586L52.9666 162.74L55.3466 156.524H56.6626ZM65.2977 157.574H63.6877V164.196H62.4137V157.574H61.4197V156.524H62.4137V155.978C62.4137 155.12 62.633 154.494 63.0717 154.102C63.5197 153.701 64.2337 153.5 65.2137 153.5V154.564C64.6537 154.564 64.257 154.676 64.0237 154.9C63.7997 155.115 63.6877 155.474 63.6877 155.978V156.524H65.2977V157.574ZM70.3791 164.322C69.6604 164.322 69.0071 164.159 68.4191 163.832C67.8404 163.506 67.3831 163.044 67.0471 162.446C66.7204 161.84 66.5571 161.14 66.5571 160.346C66.5571 159.562 66.7251 158.872 67.0611 158.274C67.4064 157.668 67.8731 157.206 68.4611 156.888C69.0491 156.562 69.7071 156.398 70.4351 156.398C71.1631 156.398 71.8211 156.562 72.4091 156.888C72.9971 157.206 73.4591 157.663 73.7951 158.26C74.1404 158.858 74.3131 159.553 74.3131 160.346C74.3131 161.14 74.1357 161.84 73.7811 162.446C73.4357 163.044 72.9644 163.506 72.3671 163.832C71.7697 164.159 71.1071 164.322 70.3791 164.322ZM70.3791 163.202C70.8364 163.202 71.2657 163.095 71.6671 162.88C72.0684 162.666 72.3904 162.344 72.6331 161.914C72.8851 161.485 73.0111 160.962 73.0111 160.346C73.0111 159.73 72.8897 159.208 72.6471 158.778C72.4044 158.349 72.0871 158.032 71.6951 157.826C71.3031 157.612 70.8784 157.504 70.4211 157.504C69.9544 157.504 69.5251 157.612 69.1331 157.826C68.7504 158.032 68.4424 158.349 68.2091 158.778C67.9757 159.208 67.8591 159.73 67.8591 160.346C67.8591 160.972 67.9711 161.499 68.1951 161.928C68.4284 162.358 68.7364 162.68 69.1191 162.894C69.5017 163.1 69.9217 163.202 70.3791 163.202ZM77.5122 157.77C77.7362 157.332 78.0535 156.991 78.4642 156.748C78.8842 156.506 79.3928 156.384 79.9902 156.384V157.7H79.6542C78.2262 157.7 77.5122 158.475 77.5122 160.024V164.196H76.2382V156.524H77.5122V157.77ZM89.0392 164.322C88.3206 164.322 87.6672 164.159 87.0792 163.832C86.5006 163.506 86.0432 163.044 85.7072 162.446C85.3806 161.84 85.2172 161.14 85.2172 160.346C85.2172 159.562 85.3852 158.872 85.7212 158.274C86.0666 157.668 86.5332 157.206 87.1212 156.888C87.7092 156.562 88.3672 156.398 89.0952 156.398C89.8232 156.398 90.4812 156.562 91.0692 156.888C91.6572 157.206 92.1192 157.663 92.4552 158.26C92.8006 158.858 92.9732 159.553 92.9732 160.346C92.9732 161.14 92.7959 161.84 92.4412 162.446C92.0959 163.044 91.6246 163.506 91.0272 163.832C90.4299 164.159 89.7672 164.322 89.0392 164.322ZM89.0392 163.202C89.4966 163.202 89.9259 163.095 90.3272 162.88C90.7286 162.666 91.0506 162.344 91.2932 161.914C91.5452 161.485 91.6712 160.962 91.6712 160.346C91.6712 159.73 91.5499 159.208 91.3072 158.778C91.0646 158.349 90.7472 158.032 90.3552 157.826C89.9632 157.612 89.5386 157.504 89.0812 157.504C88.6146 157.504 88.1852 157.612 87.7932 157.826C87.4106 158.032 87.1026 158.349 86.8692 158.778C86.6359 159.208 86.5192 159.73 86.5192 160.346C86.5192 160.972 86.6312 161.499 86.8552 161.928C87.0886 162.358 87.3966 162.68 87.7792 162.894C88.1619 163.1 88.5819 163.202 89.0392 163.202ZM98.6363 156.384C99.5696 156.384 100.326 156.669 100.904 157.238C101.483 157.798 101.772 158.61 101.772 159.674V164.196H100.512V159.856C100.512 159.091 100.321 158.508 99.9383 158.106C99.5556 157.696 99.033 157.49 98.3703 157.49C97.6983 157.49 97.1616 157.7 96.7603 158.12C96.3683 158.54 96.1723 159.152 96.1723 159.954V164.196H94.8983V156.524H96.1723V157.616C96.4243 157.224 96.765 156.921 97.1943 156.706C97.633 156.492 98.1136 156.384 98.6363 156.384ZM105.377 153.836V164.196H104.103V153.836H105.377ZM114.407 156.524L109.787 167.808H108.471L109.983 164.112L106.889 156.524H108.303L110.711 162.74L113.091 156.524H114.407ZM23.302 182.34C23.302 182.854 23.1667 183.33 22.896 183.768C22.6347 184.198 22.2427 184.552 21.72 184.832C21.2067 185.103 20.5953 185.252 19.886 185.28V186.414H18.99V185.266C18.0007 185.182 17.2027 184.888 16.596 184.384C15.9893 183.871 15.6673 183.176 15.63 182.298H18.178C18.234 182.858 18.5047 183.218 18.99 183.376V181.164C18.262 180.978 17.6787 180.796 17.24 180.618C16.8107 180.441 16.4327 180.156 16.106 179.764C15.7793 179.372 15.616 178.836 15.616 178.154C15.616 177.305 15.9287 176.624 16.554 176.11C17.1887 175.597 18.0007 175.308 18.99 175.242V174.108H19.886V175.242C20.866 175.317 21.6407 175.602 22.21 176.096C22.7793 176.591 23.0967 177.277 23.162 178.154H20.6C20.544 177.65 20.306 177.324 19.886 177.174V179.344C20.6607 179.559 21.258 179.75 21.678 179.918C22.098 180.086 22.4713 180.366 22.798 180.758C23.134 181.141 23.302 181.668 23.302 182.34ZM18.15 178.042C18.15 178.276 18.22 178.472 18.36 178.63C18.5093 178.789 18.7193 178.929 18.99 179.05V177.104C18.7287 177.151 18.5233 177.254 18.374 177.412C18.2247 177.562 18.15 177.772 18.15 178.042ZM19.886 183.418C20.166 183.372 20.3853 183.26 20.544 183.082C20.712 182.905 20.796 182.686 20.796 182.424C20.796 182.182 20.7167 181.986 20.558 181.836C20.4087 181.678 20.1847 181.542 19.886 181.43V183.418ZM25.0108 183.278C25.3282 183.026 25.4728 182.91 25.4448 182.928C26.3595 182.172 27.0782 181.552 27.6008 181.066C28.1328 180.581 28.5808 180.072 28.9448 179.54C29.3088 179.008 29.4908 178.49 29.4908 177.986C29.4908 177.604 29.4022 177.305 29.2248 177.09C29.0475 176.876 28.7815 176.768 28.4268 176.768C28.0722 176.768 27.7922 176.904 27.5868 177.174C27.3908 177.436 27.2928 177.809 27.2928 178.294H24.9828C25.0015 177.501 25.1695 176.838 25.4868 176.306C25.8135 175.774 26.2382 175.382 26.7608 175.13C27.2928 174.878 27.8808 174.752 28.5248 174.752C29.6355 174.752 30.4708 175.037 31.0308 175.606C31.6002 176.176 31.8848 176.918 31.8848 177.832C31.8848 178.831 31.5442 179.76 30.8628 180.618C30.1815 181.468 29.3135 182.298 28.2588 183.11H32.0388V185.056H25.0108V183.278ZM33.3429 179.946C33.3429 178.341 33.6509 177.076 34.2669 176.152C34.8922 175.228 35.8956 174.766 37.2769 174.766C38.6582 174.766 39.6569 175.228 40.2729 176.152C40.8982 177.076 41.2109 178.341 41.2109 179.946C41.2109 181.57 40.8982 182.844 40.2729 183.768C39.6569 184.692 38.6582 185.154 37.2769 185.154C35.8956 185.154 34.8922 184.692 34.2669 183.768C33.6509 182.844 33.3429 181.57 33.3429 179.946ZM38.8589 179.946C38.8589 179.004 38.7562 178.28 38.5509 177.776C38.3456 177.263 37.9209 177.006 37.2769 177.006C36.6329 177.006 36.2082 177.263 36.0029 177.776C35.7976 178.28 35.6949 179.004 35.6949 179.946C35.6949 180.581 35.7322 181.108 35.8069 181.528C35.8816 181.939 36.0309 182.275 36.2549 182.536C36.4882 182.788 36.8289 182.914 37.2769 182.914C37.7249 182.914 38.0609 182.788 38.2849 182.536C38.5182 182.275 38.6722 181.939 38.7469 181.528C38.8216 181.108 38.8589 180.581 38.8589 179.946ZM48.2977 171.896L44.5457 187.814H42.2357L45.9877 171.896H48.2977ZM59.5255 177.3C60.4961 177.3 61.2661 177.594 61.8355 178.182C62.4141 178.77 62.7035 179.587 62.7035 180.632V185.196H60.3235V180.954C60.3235 180.45 60.1881 180.063 59.9175 179.792C59.6561 179.512 59.2921 179.372 58.8255 179.372C58.3588 179.372 57.9901 179.512 57.7195 179.792C57.4581 180.063 57.3275 180.45 57.3275 180.954V185.196H54.9475V180.954C54.9475 180.45 54.8121 180.063 54.5415 179.792C54.2801 179.512 53.9161 179.372 53.4495 179.372C52.9828 179.372 52.6141 179.512 52.3435 179.792C52.0821 180.063 51.9515 180.45 51.9515 180.954V185.196H49.5575V177.384H51.9515V178.364C52.1941 178.038 52.5115 177.781 52.9035 177.594C53.2955 177.398 53.7388 177.3 54.2335 177.3C54.8215 177.3 55.3441 177.426 55.8015 177.678C56.2681 177.93 56.6321 178.29 56.8935 178.756C57.1641 178.327 57.5328 177.977 57.9995 177.706C58.4661 177.436 58.9748 177.3 59.5255 177.3ZM68.1838 185.308C67.4184 185.308 66.7278 185.145 66.1118 184.818C65.5051 184.492 65.0244 184.025 64.6698 183.418C64.3244 182.812 64.1518 182.102 64.1518 181.29C64.1518 180.488 64.3291 179.783 64.6838 179.176C65.0384 178.56 65.5238 178.089 66.1398 177.762C66.7558 177.436 67.4464 177.272 68.2118 177.272C68.9771 177.272 69.6678 177.436 70.2838 177.762C70.8998 178.089 71.3851 178.56 71.7398 179.176C72.0944 179.783 72.2718 180.488 72.2718 181.29C72.2718 182.093 72.0898 182.802 71.7258 183.418C71.3711 184.025 70.8811 184.492 70.2558 184.818C69.6398 185.145 68.9491 185.308 68.1838 185.308ZM68.1838 183.236C68.6411 183.236 69.0284 183.068 69.3458 182.732C69.6724 182.396 69.8358 181.916 69.8358 181.29C69.8358 180.665 69.6771 180.184 69.3598 179.848C69.0518 179.512 68.6691 179.344 68.2118 179.344C67.7451 179.344 67.3578 179.512 67.0498 179.848C66.7418 180.175 66.5878 180.656 66.5878 181.29C66.5878 181.916 66.7371 182.396 67.0358 182.732C67.3438 183.068 67.7264 183.236 68.1838 183.236ZM78.5518 177.3C79.4665 177.3 80.1945 177.599 80.7358 178.196C81.2865 178.784 81.5618 179.596 81.5618 180.632V185.196H79.1818V180.954C79.1818 180.432 79.0465 180.026 78.7758 179.736C78.5052 179.447 78.1412 179.302 77.6838 179.302C77.2265 179.302 76.8625 179.447 76.5918 179.736C76.3212 180.026 76.1858 180.432 76.1858 180.954V185.196H73.7918V177.384H76.1858V178.42C76.4285 178.075 76.7552 177.804 77.1658 177.608C77.5765 177.403 78.0385 177.3 78.5518 177.3ZM87.8294 183.166V185.196H86.6114C85.7434 185.196 85.0668 184.986 84.5814 184.566C84.0961 184.137 83.8534 183.442 83.8534 182.48V179.372H82.9014V177.384H83.8534V175.48H86.2474V177.384H87.8154V179.372H86.2474V182.508C86.2474 182.742 86.3034 182.91 86.4154 183.012C86.5274 183.115 86.7141 183.166 86.9754 183.166H87.8294ZM94.2149 177.3C95.1109 177.3 95.8296 177.599 96.3709 178.196C96.9123 178.784 97.1829 179.596 97.1829 180.632V185.196H94.8029V180.954C94.8029 180.432 94.6676 180.026 94.3969 179.736C94.1263 179.447 93.7623 179.302 93.3049 179.302C92.8476 179.302 92.4836 179.447 92.2129 179.736C91.9423 180.026 91.8069 180.432 91.8069 180.954V185.196H89.4129V174.836H91.8069V178.434C92.0496 178.089 92.3809 177.814 92.8009 177.608C93.2209 177.403 93.6923 177.3 94.2149 177.3Z" fill="#9294A0"/>
<path d="M0 295.09C34.6775 296.317 68.9221 288.121 97.8604 271.669C126.519 255.284 143.023 228.223 154.898 200.475L178.927 207.556C178.927 207.556 163.692 270.241 122.053 299.205H0V295.09Z" fill="url(#paint0_linear_152_34502)"/>
<g opacity="0.6">
<path opacity="0.6" d="M0 295.09C34.6775 296.317 68.9221 288.121 97.8604 271.669C126.519 255.284 143.023 228.223 154.898 200.475L178.927 207.556C178.927 207.556 163.692 273.116 122.053 299.205H0V295.09Z" fill="url(#paint1_linear_152_34502)"/>
</g>
<path d="M152.181 207.822C152.36 207.877 152.286 208.478 151.98 209.577C151.828 210.124 151.617 210.798 151.354 211.589L150.911 212.859C150.743 213.311 150.543 213.764 150.332 214.288C149.911 215.292 149.437 216.409 148.9 217.625C148.363 218.841 147.673 220.125 146.972 221.518C146.272 222.91 145.393 224.366 144.539 225.922C143.686 227.477 142.623 229.064 141.554 230.746L140.737 232.021C140.437 232.442 140.142 232.867 139.837 233.296L137.978 235.923L137.499 236.597L136.972 237.261L135.919 238.618C135.208 239.522 134.513 240.454 133.744 241.371C132.164 243.18 130.632 245.111 128.841 246.964C127.962 247.9 127.098 248.877 126.155 249.813C125.213 250.749 124.254 251.694 123.28 252.652L122.548 253.376L121.779 254.077L120.247 255.478L118.667 256.907C118.14 257.386 117.577 257.811 117.024 258.304C115.908 259.231 114.802 260.185 113.643 261.112L110.073 263.861C105.033 267.604 99.7156 271.061 94.1532 274.21C83.3843 280.245 71.8244 285.168 59.7127 288.878L55.5735 290.103L51.4923 291.166L49.4912 291.681L47.5006 292.133L43.6142 292.988C42.3345 293.241 41.0654 293.44 39.8278 293.689C38.5903 293.937 37.3738 294.141 36.1415 294.308L32.608 294.81C32.0287 294.887 31.4599 294.982 30.8912 295.045L29.2113 295.217C26.989 295.439 24.8826 295.669 22.892 295.778C20.9014 295.886 19.0003 296.044 17.2256 296.04C15.4509 296.035 13.8079 296.108 12.2913 296.09C10.7746 296.072 9.38962 295.99 8.14681 295.936C7.52541 295.904 6.94087 295.886 6.39319 295.845L4.85022 295.692C3.89705 295.592 3.0966 295.493 2.44887 295.398C1.1534 295.212 0.479335 295.032 0.489868 294.869C0.5004 294.706 1.19553 294.57 2.49099 294.453C3.14399 294.394 3.94444 294.34 4.88708 294.29L6.40899 294.227L8.14155 294.1C9.36329 294.016 10.7167 293.93 12.2017 293.842C13.6815 293.729 15.2877 293.562 17.0097 293.417C18.7317 293.273 20.5643 293.02 22.5075 292.798C24.4507 292.576 26.5098 292.215 28.6162 291.916L30.2435 291.668C30.7701 291.582 31.3388 291.469 31.8918 291.365L35.3042 290.732C36.468 290.537 37.6318 290.252 38.8273 289.995L42.4767 289.19L46.2104 288.245L48.122 287.761L50.0441 287.21L53.9674 286.084L57.9486 284.804C69.5747 280.981 80.6957 276.11 91.1251 270.272C96.4924 267.234 101.645 263.924 106.555 260.361L110.046 257.748C111.179 256.866 112.263 255.939 113.364 255.08C113.891 254.628 114.465 254.212 114.981 253.756C115.497 253.299 116.034 252.851 116.529 252.399L118.067 251.043L118.83 250.383L119.557 249.7L122.422 247.01C123.364 246.105 124.228 245.201 125.113 244.297C126.914 242.547 128.483 240.725 130.084 239.016C130.869 238.152 131.585 237.261 132.317 236.411L133.402 235.145L133.928 234.517L134.455 233.884L136.409 231.402L137.356 230.203L138.231 229.001C139.379 227.414 140.527 225.926 141.48 224.452C142.433 222.978 143.439 221.635 144.229 220.311C145.019 218.986 145.809 217.779 146.53 216.657C147.251 215.536 147.81 214.469 148.373 213.533C148.658 213.081 148.9 212.629 149.174 212.208C149.447 211.788 149.637 211.399 149.842 211.033C150.264 210.305 150.638 209.676 150.954 209.224C151.58 208.256 152.002 207.768 152.181 207.822Z" fill="url(#paint2_linear_152_34502)"/>
<path d="M153.507 217.467C151.043 219.856 149.153 222.641 147.946 225.66C147.778 226.091 147.772 226.557 147.929 226.991C148.087 227.426 148.399 227.807 148.823 228.08C149.247 228.353 149.76 228.505 150.29 228.514C150.82 228.522 151.339 228.388 151.775 228.128L151.828 228.097C150.11 231.712 148.669 235.42 147.515 239.197C147.351 239.726 147.381 240.287 147.601 240.801C147.821 241.315 148.221 241.759 148.745 242.072C149.269 242.384 149.893 242.551 150.531 242.549C151.169 242.546 151.791 242.375 152.312 242.059C161.7 236.345 168.356 227.901 171.044 218.294L153.507 217.467Z" fill="#082567"/>
<g opacity="0.3">
<path opacity="0.3" d="M154.345 221.346C153.891 221.733 153.533 222.194 153.292 222.703C153.176 222.957 153.149 223.234 153.213 223.502C153.278 223.769 153.431 224.014 153.655 224.208C154.376 224.733 155.614 224.416 156.288 224.972C156.962 225.529 156.583 226.605 156.104 227.364L154.587 229.774C154.218 230.362 153.855 231.131 154.334 231.655C154.814 232.18 155.946 232.035 156.72 231.7C158.505 230.903 160.038 229.747 161.187 228.329C162.336 226.911 163.068 225.275 163.318 223.562L154.345 221.346Z" fill="#272830"/>
</g>
<path d="M196.105 189.013L196.247 189.19C200.284 194.372 202.914 200.265 203.944 206.437C204.974 212.608 204.377 218.899 202.198 224.845L199.433 232.401L185.768 217.268L196.105 189.013Z" fill="#082567"/>
<path d="M196.105 189.013L196.058 189.153L195.91 189.565C195.779 189.927 195.595 190.469 195.352 191.129C194.857 192.486 194.141 194.484 193.246 196.985C191.434 201.958 188.885 209.025 185.873 217.295V217.195L198.333 230.986L199.539 232.342L199.302 232.383C199.857 230.876 200.401 229.391 200.934 227.929C201.461 226.464 202.024 225.026 202.472 223.602C203.37 220.868 203.942 218.062 204.178 215.229C204.396 212.667 204.329 210.093 203.978 207.542C203.852 206.339 203.578 205.2 203.362 204.101C203.146 203.003 202.835 201.958 202.477 200.986C201.46 197.874 200.019 194.875 198.185 192.052C197.575 191.039 196.99 190.311 196.637 189.791L196.084 189.009C196.084 189.009 196.137 189.063 196.248 189.194L196.679 189.764C197.048 190.275 197.654 190.998 198.259 192.025C200.123 194.837 201.586 197.832 202.614 200.945C202.983 201.922 203.22 202.98 203.525 204.07C203.746 205.173 204.026 206.33 204.157 207.524C204.522 210.083 204.598 212.666 204.384 215.238C204.153 218.088 203.585 220.91 202.688 223.661C202.24 225.099 201.672 226.528 201.15 227.992C200.629 229.457 200.097 230.94 199.523 232.446L199.444 232.663L199.281 232.482C198.902 232.062 198.486 231.605 198.075 231.126L185.626 217.326L185.589 217.281V217.227L193.119 196.858C194.041 194.38 194.768 192.413 195.273 191.057C195.521 190.392 195.716 189.881 195.847 189.524L196.079 189.126C196.084 189.088 196.093 189.05 196.105 189.013Z" fill="#263238"/>
<path d="M146.198 175.562L145.961 175.639C139.292 177.878 133.292 181.374 128.406 185.869C123.52 190.363 119.871 195.743 117.729 201.61L115.007 209.061L136.003 203.428L146.198 175.562Z" fill="#082567"/>
<path d="M146.198 175.562C146.198 175.562 146.198 175.603 146.156 175.689C146.114 175.775 146.077 175.915 146.019 176.078C145.893 176.43 145.708 176.941 145.493 177.597L143.418 183.326L136.135 203.45V203.509H136.071L116.934 208.655L115.075 209.152L114.828 209.22L114.907 209.003L116.487 204.612C117.013 203.17 117.508 201.741 118.067 200.362C119.149 197.701 120.543 195.141 122.227 192.721C123.747 190.536 125.511 188.483 127.493 186.59C128.393 185.686 129.368 184.885 130.273 184.099C131.179 183.312 132.122 182.625 133.059 182.01C135.939 179.995 139.092 178.285 142.449 176.919C143.618 176.403 144.555 176.114 145.213 175.879L145.94 175.626L146.198 175.553L145.234 175.919C144.608 176.168 143.655 176.471 142.496 176.996C139.168 178.397 136.042 180.127 133.18 182.15C132.253 182.769 131.369 183.506 130.416 184.243C129.462 184.98 128.551 185.821 127.661 186.73C125.7 188.621 123.956 190.67 122.453 192.848C120.789 195.251 119.409 197.791 118.335 200.43C117.761 201.787 117.282 203.238 116.755 204.676C116.229 206.114 115.702 207.587 115.175 209.071L115.007 208.921L116.866 208.424L136.008 203.297L135.924 203.369C138.931 195.23 141.501 188.29 143.297 183.375C144.208 180.916 144.934 178.962 145.435 177.615C145.682 176.95 145.877 176.435 146.009 176.078C146.072 175.906 146.124 175.775 146.161 175.675C146.17 175.637 146.183 175.599 146.198 175.562Z" fill="#263238"/>
<path d="M198.185 108.306C194.236 107.243 183.767 114.053 171.66 126.88C159.743 139.513 154.808 152.014 154.808 152.014L131.748 215.057L151.096 220.274L162.307 223.295L181.655 228.512L202.583 171.307C204.636 165.719 206.063 159.975 206.843 154.153C207.644 148.317 207.9 142.436 207.607 136.565C206.648 120.143 202.161 109.373 198.207 108.306" fill="#F5F5F5"/>
<path d="M198.185 108.306L198.359 108.36L198.575 108.433L198.854 108.568C199.457 108.907 199.983 109.335 200.408 109.834C201.572 111.123 202.82 113.307 203.91 116.264C205.192 119.881 206.117 123.586 206.674 127.337C207.027 129.534 207.312 131.894 207.512 134.413C207.712 136.931 207.833 139.599 207.796 142.407C207.759 145.214 207.586 148.158 207.27 151.223C206.954 154.417 206.451 157.595 205.763 160.745C205.014 164.132 204.047 167.48 202.867 170.774C201.628 174.168 200.352 177.666 199.039 181.268C193.772 195.655 187.953 211.602 181.76 228.549L181.724 228.662L181.592 228.626L156.641 221.898L131.685 215.165L131.553 215.134L131.595 215.021C137.799 198.074 143.639 182.127 148.91 167.74C150.227 164.141 151.507 160.644 152.749 157.25C153.371 155.556 153.983 153.886 154.587 152.241C155.235 150.604 156.009 149.044 156.799 147.525C159.753 141.918 163.318 136.563 167.447 131.533C170.884 127.449 174.622 123.559 178.638 119.885C181.622 117.099 184.847 114.51 188.285 112.14C191.124 110.223 193.551 109.002 195.379 108.491C196.054 108.284 196.768 108.184 197.485 108.198L197.801 108.22L198.028 108.265L198.201 108.306L198.022 108.279L197.801 108.238L197.485 108.216C196.767 108.213 196.053 108.32 195.379 108.532C193.588 109.052 191.166 110.282 188.327 112.208C184.92 114.582 181.722 117.17 178.759 119.949C174.769 123.634 171.056 127.534 167.642 131.623C163.531 136.649 159.981 141.998 157.041 147.597C156.257 149.116 155.461 150.676 154.845 152.299L153.013 157.309C151.773 160.703 150.497 164.201 149.184 167.803C143.918 182.191 138.125 198.142 131.901 215.093L131.811 214.944L156.746 221.681L181.697 228.413L181.523 228.49L198.833 181.214L202.672 170.729C203.848 167.439 204.812 164.095 205.558 160.714C206.29 157.449 206.753 154.271 207.08 151.219C207.406 148.167 207.575 145.219 207.607 142.411C207.638 139.603 207.543 136.945 207.343 134.431C207.143 131.917 206.869 129.557 206.522 127.364C205.978 123.617 205.069 119.916 203.804 116.3C202.751 113.343 201.503 111.159 200.355 109.87C199.938 109.371 199.421 108.94 198.828 108.595L198.554 108.455L198.343 108.383L198.185 108.306Z" fill="#263238"/>
<path d="M193.171 169.158C204.2 164.059 208.327 152.249 202.388 142.78C196.45 133.31 182.694 129.767 171.665 134.866C160.636 139.965 156.509 151.775 162.448 161.244C168.386 170.714 182.142 174.257 193.171 169.158Z" fill="white"/>
<path d="M200.192 142.777C200.063 142.788 199.933 142.777 199.809 142.744C199.686 142.711 199.571 142.656 199.473 142.584C199.374 142.512 199.294 142.423 199.236 142.323C199.179 142.224 199.146 142.115 199.139 142.004C199.127 141.559 199.302 141.126 199.634 140.783C199.961 140.443 200.238 140.069 200.46 139.671C200.617 139.291 200.628 138.878 200.492 138.492C200.356 138.107 200.079 137.769 199.702 137.528C199.955 137.433 200.182 137.295 200.371 137.123C200.56 136.951 200.707 136.747 200.802 136.525C200.898 136.303 200.94 136.067 200.926 135.831C200.913 135.594 200.844 135.363 200.724 135.15C200.428 134.781 200.093 134.438 199.723 134.123C199.536 133.925 199.372 133.711 199.233 133.486C199.576 133.664 199.958 133.777 200.355 133.82C200.679 133.845 201.004 133.799 201.302 133.687C201.599 133.575 201.858 133.4 202.056 133.178C202.247 132.953 202.361 132.686 202.384 132.408C202.407 132.13 202.339 131.851 202.188 131.605C202.03 131.361 201.789 131.164 201.497 131.042C201.205 130.92 200.876 130.878 200.555 130.922C199.943 131.077 199.403 131.393 199.012 131.826L198.612 132.202C198.17 131.135 197.78 130.054 196.721 129.435C195.763 128.874 194.515 128.874 193.435 128.53C192.651 128.263 191.971 127.807 191.197 127.513C190.423 127.219 189.454 127.124 188.78 127.558C188.38 127.811 188.138 128.214 187.727 128.462C186.9 128.982 185.62 128.738 184.873 129.34C184.267 129.832 184.288 130.664 183.877 131.284C183.467 131.903 182.54 132.301 181.771 132.703C181.002 133.106 180.223 133.739 180.291 134.512C180.349 135.19 181.055 135.742 181.102 136.425C181.049 136.921 180.889 137.404 180.628 137.849C180.444 138.301 180.46 138.948 180.96 139.205L186.595 142.253C188.438 143.564 190.344 144.902 192.63 145.517C194.915 146.132 197.701 145.847 199.26 144.287C198.93 144.184 198.659 143.977 198.501 143.709C198.847 143.673 199.178 143.57 199.471 143.409C199.764 143.248 200.01 143.032 200.192 142.777Z" fill="#263238"/>
<path d="M194.552 143.071C195.585 141.893 196.497 140.64 197.28 139.327C198.062 138.007 198.451 136.54 198.412 135.059C198.412 134.838 198.154 133.296 197.885 133.251C197.706 133.219 197.701 134.607 197.564 134.697C196.286 135.772 195.417 137.155 195.073 138.663C194.706 140.111 194.529 141.589 194.547 143.071" fill="#263238"/>
<path d="M184.688 153.715C189.254 155.071 192.029 149.953 192.029 149.953L196.674 137.745C198.096 134.255 196.916 130.633 192.814 129.507L192.43 129.421C190.555 129.008 188.567 129.217 186.863 130.005C185.159 130.794 183.864 132.104 183.235 133.676C182.018 136.71 180.723 140.069 180.249 141.738C179.275 145.187 183.119 146.603 183.119 146.603C183.119 146.603 182.856 147.389 182.503 148.389C181.713 150.649 182.34 153.263 183.382 153.462L184.688 153.715Z" fill="#AE644F"/>
<path d="M183.119 146.625C184.97 147.027 186.916 146.966 188.727 146.449C188.727 146.449 186.711 148.669 182.808 147.48L183.119 146.625Z" fill="#FFD7D7"/>
<path d="M183.967 136.678C183.926 136.806 183.946 136.942 184.022 137.057C184.098 137.172 184.224 137.257 184.372 137.293C184.443 137.314 184.519 137.323 184.594 137.318C184.669 137.314 184.743 137.297 184.81 137.268C184.877 137.238 184.937 137.198 184.986 137.149C185.034 137.1 185.071 137.042 185.094 136.981C185.134 136.853 185.114 136.717 185.038 136.602C184.962 136.487 184.837 136.402 184.688 136.366C184.617 136.345 184.542 136.336 184.467 136.34C184.391 136.345 184.318 136.362 184.251 136.391C184.184 136.42 184.124 136.461 184.075 136.51C184.026 136.559 183.989 136.616 183.967 136.678Z" fill="#263238"/>
<path d="M183.661 135.294C183.714 135.376 184.23 135.195 184.846 135.331C185.462 135.466 185.831 135.833 185.899 135.783C185.968 135.733 185.899 135.629 185.741 135.462C185.524 135.24 185.231 135.082 184.904 135.01C184.585 134.939 184.248 134.957 183.94 135.059C183.735 135.159 183.635 135.258 183.661 135.294Z" fill="#263238"/>
<path d="M189.47 138.102C189.431 138.23 189.451 138.366 189.527 138.481C189.603 138.595 189.728 138.68 189.875 138.717C189.946 138.738 190.022 138.747 190.097 138.743C190.172 138.738 190.245 138.721 190.313 138.692C190.38 138.663 190.44 138.623 190.489 138.573C190.537 138.524 190.574 138.467 190.597 138.405C190.637 138.278 190.618 138.142 190.543 138.027C190.469 137.912 190.344 137.827 190.197 137.79C190.125 137.769 190.049 137.76 189.974 137.765C189.898 137.769 189.825 137.786 189.757 137.815C189.689 137.844 189.629 137.885 189.58 137.934C189.53 137.983 189.493 138.04 189.47 138.102Z" fill="#263238"/>
<path d="M189.628 136.836C189.681 136.913 190.197 136.737 190.808 136.873C191.418 137.008 191.798 137.37 191.861 137.325C191.924 137.279 191.861 137.175 191.703 137.008C191.489 136.785 191.197 136.627 190.871 136.556C190.552 136.481 190.213 136.499 189.907 136.606C189.702 136.678 189.602 136.8 189.628 136.836Z" fill="#263238"/>
<path d="M186.21 140.408C185.91 140.252 185.59 140.126 185.257 140.033C185.104 139.987 184.962 139.924 184.962 139.829C184.991 139.686 185.07 139.554 185.189 139.449L185.957 138.545C186.65 137.769 187.268 136.947 187.806 136.085C187.043 136.812 186.35 137.589 185.731 138.409L184.978 139.345C184.832 139.487 184.748 139.667 184.741 139.856C184.748 139.91 184.771 139.961 184.805 140.006C184.84 140.05 184.887 140.088 184.941 140.114C185.022 140.151 185.106 140.182 185.194 140.204C185.521 140.309 185.863 140.377 186.21 140.408Z" fill="#263238"/>
<path d="M187.911 141.172C187.811 141.145 187.643 141.719 186.947 142C186.252 142.28 185.562 142.063 185.531 142.14C185.499 142.217 185.657 142.289 185.957 142.361C186.347 142.451 186.761 142.421 187.126 142.276C187.48 142.135 187.756 141.882 187.895 141.57C187.99 141.34 187.959 141.199 187.911 141.172Z" fill="#263238"/>
<path d="M190.286 134.697C190.286 134.856 190.939 134.924 191.64 135.15C192.34 135.376 192.872 135.683 193.003 135.575C193.135 135.466 193.003 135.367 192.809 135.172C192.55 134.93 192.226 134.745 191.866 134.634C191.508 134.513 191.121 134.468 190.739 134.503C190.46 134.539 190.286 134.625 190.286 134.697Z" fill="#263238"/>
<path d="M184.441 133.594C184.514 133.739 184.967 133.707 185.494 133.816C186.021 133.924 186.41 134.101 186.547 133.997C186.684 133.893 186.573 133.811 186.421 133.658C186.21 133.463 185.934 133.328 185.631 133.273C185.331 133.211 185.016 133.231 184.73 133.332C184.493 133.414 184.409 133.513 184.441 133.594Z" fill="#263238"/>
<path d="M195.589 140.223C195.663 140.223 198.549 140.128 197.759 142.483C196.969 144.839 194.41 143.654 194.425 143.587C194.441 143.519 195.589 140.223 195.589 140.223Z" fill="#AE644F"/>
<path d="M195.552 142.886C195.552 142.886 195.589 142.926 195.658 142.976C195.758 143.043 195.883 143.077 196.01 143.071C196.326 143.071 196.7 142.723 196.858 142.307C196.933 142.109 196.954 141.898 196.921 141.692C196.921 141.613 196.899 141.535 196.856 141.465C196.812 141.394 196.75 141.334 196.674 141.29C196.623 141.265 196.563 141.255 196.505 141.262C196.447 141.27 196.393 141.294 196.353 141.33C196.295 141.389 196.3 141.439 196.284 141.439C196.268 141.439 196.237 141.385 196.284 141.294C196.321 141.242 196.377 141.201 196.442 141.177C196.533 141.145 196.635 141.145 196.727 141.177C196.832 141.223 196.921 141.292 196.986 141.377C197.05 141.461 197.088 141.559 197.095 141.66C197.143 141.891 197.125 142.129 197.043 142.352C196.864 142.804 196.437 143.189 195.989 143.189C195.91 143.188 195.832 143.173 195.761 143.143C195.69 143.113 195.628 143.07 195.579 143.017C195.552 142.944 195.552 142.886 195.552 142.886Z" fill="#FFD7D7"/>
<path d="M186.331 130.28C185.968 129.959 187.706 129.077 188.933 128.924C190.781 128.711 193.404 128.96 194.778 129.71C196.426 130.615 197.659 131.777 198.075 133.422C198.443 135.084 198.292 136.8 197.638 138.396C197.485 138.895 197.182 139.35 196.758 139.716C196.2 140.132 195.363 140.268 195.147 140.987C195.076 141.251 194.887 141.48 194.62 141.624C193.962 141.95 193.509 141.366 193.377 140.869C193.098 139.807 193.414 138.703 193.725 137.645C193.9 136.883 194.218 136.15 194.667 135.475C194.936 135.122 195.278 134.81 195.526 134.449C195.661 134.272 195.749 134.072 195.786 133.863C195.822 133.653 195.805 133.44 195.737 133.237C195.696 133.15 195.645 133.066 195.584 132.988C195.306 132.609 194.916 132.3 194.453 132.093C193.99 131.886 193.472 131.787 192.951 131.808C191.266 131.881 188.422 131.899 187.895 131.279C187.506 130.883 187.219 130.421 187.053 129.923L186.331 130.28Z" fill="#263238"/>
<path d="M194.747 129.371C194.084 128.955 193.332 128.656 192.534 128.491C191.736 128.325 190.907 128.297 190.097 128.408C189.664 128.46 189.249 128.587 188.875 128.78C188.501 128.974 188.177 129.23 187.922 129.534C187.679 129.845 187.572 130.22 187.619 130.592C187.666 130.964 187.865 131.31 188.18 131.569L188.222 131.609C189.275 132.242 190.06 132.301 191.329 132.256C192.382 132.215 193.435 131.926 194.489 131.894C195.634 131.859 196.765 132.119 197.738 132.64C197.091 131.345 196.06 130.217 194.747 129.371Z" fill="#263238"/>
<path d="M199.038 133.061C199.007 133.061 198.87 132.789 198.512 132.41C198.312 132.19 198.084 131.989 197.832 131.813C197.526 131.595 197.166 131.44 196.779 131.361C196.074 131.245 195.344 131.3 194.673 131.519C194.146 131.691 193.872 131.876 193.851 131.853C193.83 131.831 193.909 131.79 194.036 131.709C194.216 131.591 194.412 131.493 194.62 131.415C195.316 131.149 196.09 131.075 196.837 131.202C197.249 131.289 197.63 131.46 197.948 131.7C198.207 131.885 198.434 132.102 198.622 132.342C198.819 132.553 198.961 132.798 199.038 133.061Z" fill="#455A64"/>
<path d="M199.007 133.938C198.898 134.16 198.747 134.365 198.559 134.544C198.13 134.995 197.613 135.379 197.032 135.679C196.449 135.977 195.812 136.188 195.147 136.303C194.875 136.363 194.593 136.38 194.315 136.352C195.238 136.205 196.127 135.93 196.948 135.539C197.728 135.101 198.423 134.561 199.007 133.938Z" fill="#455A64"/>
<path d="M199.965 134.607C199.954 134.699 199.925 134.789 199.881 134.874C199.776 135.11 199.649 135.338 199.502 135.557C199.006 136.277 198.314 136.884 197.485 137.324C196.654 137.762 195.709 138.015 194.736 138.061C194.443 138.084 194.149 138.084 193.856 138.061C193.749 138.057 193.642 138.039 193.541 138.007C193.541 137.976 193.999 138.007 194.725 137.967C195.669 137.889 196.579 137.627 197.386 137.201C198.194 136.776 198.878 136.198 199.386 135.511C199.765 134.969 199.934 134.598 199.965 134.607Z" fill="#455A64"/>
<path d="M191.734 128.327C191.469 128.353 191.201 128.366 190.934 128.367C189.653 128.448 188.433 128.872 187.448 129.579C187.074 129.846 186.868 130.031 186.847 130.031C186.984 129.827 187.162 129.647 187.374 129.498C188.342 128.719 189.613 128.278 190.939 128.259C191.207 128.243 191.476 128.266 191.734 128.327Z" fill="#455A64"/>
<path d="M202.056 131.433C201.795 131.886 201.394 132.268 200.897 132.539C200.4 132.81 199.827 132.959 199.239 132.97C199.787 132.828 200.316 132.637 200.818 132.401C201.268 132.115 201.683 131.791 202.056 131.433Z" fill="#455A64"/>
<path d="M201.982 155.216C200.85 153.149 192.503 149.849 192.503 149.849C191.716 151.012 190.626 152.003 189.317 152.743C187.211 153.868 184.72 153.466 182.84 152.25C181.065 151.097 181.676 148.845 181.676 148.845C181.676 148.845 172.497 148.447 169.854 149.686C167.21 150.925 165.735 154.556 165.735 154.556L162.434 160.985L165.904 165.344L167.426 166.61C167.426 166.61 171.444 170.123 178.859 171.222C185.778 172.248 191.782 169.72 191.782 169.72C195.468 168.658 198.686 166.103 201.645 162.586C201.656 162.599 203.299 157.639 201.982 155.216Z" fill="#455A64"/>
<path d="M165.772 150.808C165.772 150.808 167.931 148.484 168.1 147.552L168.953 142.579C168.953 142.579 168.637 142.018 167.816 142.655C166.994 143.293 167.189 144.518 167.189 144.518L166.499 145.567L166.104 144.55L166.41 141.159C166.41 141.159 166.694 138.722 166.194 138.857C165.693 138.993 165.351 139.64 165.225 140.693C165.098 141.747 164.951 143.076 164.951 143.076C164.951 143.076 164.872 143.487 164.661 142.714C164.451 141.941 164.909 139.034 164.867 138.618C164.824 138.202 165.093 137.184 164.414 137.076C163.734 136.967 163.692 138.333 163.692 138.333L162.95 142.619C162.95 142.619 162.881 140.811 162.86 140.494C162.839 140.178 162.955 139.228 162.897 138.686C162.839 138.143 162.586 137.781 162.281 137.754C162.139 137.726 161.989 137.746 161.864 137.81C161.738 137.874 161.646 137.977 161.607 138.098L161.412 141.873C161.412 141.873 161.412 143.618 161.349 143.709C161.286 143.799 160.822 142.859 160.822 142.859L160.675 141.584C160.675 141.584 160.78 139.852 160.285 139.68C159.79 139.508 159.664 139.834 159.664 139.834L159.506 142.999L159.916 146.738L160.906 150.5L162.518 150.771L165.772 150.808Z" fill="#AE644F"/>
<path d="M161.849 147.982C162.107 147.765 162.346 147.532 162.565 147.285C163.086 146.713 163.837 146.327 164.672 146.205C165.078 146.158 165.49 146.231 165.841 146.413L165.957 146.476L166.03 146.363C166.346 145.865 166.704 145.427 166.905 145.11C167.105 144.794 167.221 144.595 167.189 144.586C167.03 144.722 166.891 144.874 166.773 145.038C166.422 145.437 166.095 145.85 165.793 146.277L165.983 146.227C165.586 146.01 165.113 145.919 164.645 145.969C164.142 146.018 163.663 146.184 163.26 146.449C162.942 146.659 162.657 146.903 162.413 147.177C162.171 147.414 161.98 147.687 161.849 147.982Z" fill="#FFD7D7"/>
<path d="M181.513 148.849L182.84 147.063L186.289 150.952L185.91 152.702L186.732 151.02L192.967 147.9L192.703 150.134L189.881 153.271L186.152 154.601L183.403 153.719C183.403 153.719 181.26 153.05 181.297 152.901C181.334 152.751 181.513 148.849 181.513 148.849Z" fill="#455A64"/>
<path d="M184.536 152.792L184.852 154.28L186.126 154.565L187.279 153.466L186.99 152.168L185.478 151.807L184.536 152.792Z" fill="#082567"/>
<path d="M186.289 150.952C186.147 151.198 185.971 151.427 185.762 151.635C185.399 152.046 184.878 152.621 184.267 153.272L184.135 153.412L184.046 153.249C183.888 152.96 183.719 152.652 183.519 152.345C182.992 151.368 182.513 150.478 182.187 149.826C181.987 149.483 181.827 149.125 181.708 148.755C181.975 149.063 182.203 149.395 182.387 149.745C182.761 150.378 183.261 151.26 183.793 152.236L184.293 153.141L184.067 153.118C184.693 152.476 185.241 151.92 185.647 151.536C185.833 151.32 186.049 151.124 186.289 150.952Z" fill="#263238"/>
<path d="M192.845 149.736C192.51 150.066 192.14 150.369 191.74 150.64C191.034 151.187 190.044 151.933 188.943 152.743L187.427 153.859L187.258 153.981L187.221 153.796C187.053 152.982 186.916 152.29 186.826 151.798C186.762 151.541 186.73 151.278 186.731 151.015C186.852 151.258 186.935 151.514 186.979 151.775C187.111 152.259 187.279 152.946 187.469 153.755L187.263 153.692L188.764 152.575C189.865 151.766 190.871 151.043 191.613 150.527C191.997 150.233 192.409 149.969 192.845 149.736Z" fill="#263238"/>
<path d="M206.237 163.467L206.911 160.28C206.118 159.202 205.168 158.216 204.083 157.345C202.953 156.339 201.451 155.7 199.834 155.537C197.727 155.392 195.742 156.341 194.004 157.377C192.266 158.412 190.56 159.592 188.511 160.026C187.735 160.234 186.898 160.196 186.152 159.918C185.062 159.439 184.625 158.24 184.809 157.205C185.081 156.175 185.6 155.205 186.331 154.356L184.952 153.99C184.103 154.999 183.366 156.074 182.75 157.2C182.252 158.199 182.145 159.31 182.445 160.365C182.744 161.135 183.279 161.82 183.994 162.351C184.708 162.882 185.575 163.237 186.505 163.381C188.379 163.649 190.304 163.35 191.95 162.536C193.451 161.848 194.81 160.858 196.469 160.515C197.613 160.309 198.802 160.406 199.881 160.791C200.96 161.177 201.878 161.834 202.514 162.676L206.237 163.467Z" fill="#082567"/>
<path d="M167.052 166.519C166.978 166.519 167.579 163.77 168.358 160.406C169.137 157.042 169.864 154.325 169.938 154.338C170.012 154.352 169.411 157.087 168.627 160.451C167.842 163.815 167.115 166.551 167.052 166.519Z" fill="#263238"/>
<path d="M159.811 150.396L166.915 150.848L166.589 164.914L166.499 165.882C166.499 165.882 160.648 160.379 160.18 155.935C160.08 154.99 159.843 154.239 159.785 153.575C159.601 151.097 159.811 150.396 159.811 150.396Z" fill="#455A64"/>
<path d="M166.478 164.711C166.451 164.529 166.451 164.345 166.478 164.164C166.478 163.766 166.504 163.26 166.52 162.681C166.557 161.428 166.567 159.692 166.588 157.78C166.61 155.867 166.646 154.126 166.725 152.869C166.762 152.245 166.799 151.734 166.841 151.386C166.845 151.203 166.875 151.021 166.931 150.844C166.951 151.026 166.951 151.209 166.931 151.391C166.931 151.789 166.931 152.295 166.931 152.878C166.931 154.185 166.894 155.89 166.873 157.78C166.852 159.67 166.81 161.433 166.725 162.685C166.683 163.314 166.641 163.82 166.594 164.173C166.576 164.355 166.537 164.535 166.478 164.711Z" fill="#263238"/>
<path d="M160.122 148.434C160.13 148.48 160.13 148.527 160.122 148.574C160.122 148.678 160.09 148.813 160.069 148.981C160.027 149.338 159.932 149.885 159.864 150.545C159.623 153.806 160.323 157.067 161.902 160.04C163.468 162.97 165.859 165.52 168.858 167.46C170.55 168.54 172.407 169.414 174.377 170.06C176.341 170.716 178.406 171.124 180.507 171.271C182.461 171.429 184.432 171.356 186.363 171.054C188.115 170.795 189.823 170.353 191.45 169.739C192.189 169.469 192.911 169.167 193.614 168.834C194.283 168.504 194.91 168.152 195.5 167.817C196.089 167.482 196.621 167.116 197.08 166.75C197.538 166.384 198.022 166.054 198.412 165.705L199.502 164.724L200.334 163.843L200.687 163.467L200.971 163.119L201.408 162.572L201.687 162.237C201.716 162.197 201.75 162.159 201.787 162.124C201.787 162.124 201.787 162.17 201.708 162.251L201.456 162.595L201.034 163.16L200.766 163.517C200.655 163.635 200.539 163.766 200.418 163.901L199.597 164.806L198.544 165.8C198.154 166.158 197.68 166.488 197.211 166.867C196.742 167.247 196.158 167.573 195.631 167.957C195.105 168.341 194.415 168.658 193.741 168.997C193.035 169.344 192.307 169.656 191.561 169.933C186.089 172.008 179.883 172.14 174.298 170.299C172.297 169.642 170.411 168.751 168.695 167.65C165.664 165.685 163.255 163.098 161.691 160.126C160.115 157.119 159.445 153.819 159.743 150.532C159.827 149.853 159.943 149.329 160.001 148.972L160.074 148.565C160.085 148.52 160.101 148.476 160.122 148.434Z" fill="#263238"/>
<path d="M204.31 157.092C204.33 156.859 204.376 156.627 204.447 156.401C204.563 155.948 204.689 155.311 204.805 154.515C205.095 152.428 205.002 150.315 204.531 148.253C204.263 147.121 203.89 146.01 203.415 144.93C203.011 144.051 202.541 143.197 202.009 142.371C201.793 142.013 201.561 141.706 201.366 141.435C201.171 141.163 200.997 140.928 200.839 140.743C200.677 140.553 200.531 140.354 200.402 140.146C200.596 140.313 200.773 140.495 200.929 140.689C201.129 140.904 201.315 141.129 201.487 141.362C201.698 141.629 201.94 141.932 202.172 142.267C202.734 143.087 203.225 143.943 203.641 144.826C204.139 145.915 204.526 147.039 204.8 148.185C205.277 150.271 205.343 152.411 204.994 154.515C204.891 155.149 204.741 155.778 204.547 156.396C204.492 156.634 204.413 156.867 204.31 157.092Z" fill="#263238"/>
<path d="M181.981 132.527C181.731 132.576 181.475 132.601 181.218 132.604C180.97 132.604 180.691 132.64 180.323 132.681C179.954 132.722 179.575 132.749 179.143 132.821C178.124 132.962 177.116 133.158 176.126 133.409C174.917 133.724 173.737 134.117 172.597 134.584C171.465 135.064 170.376 135.614 169.337 136.23C168.495 136.742 167.691 137.299 166.931 137.899C166.594 138.147 166.32 138.396 166.067 138.604C165.814 138.812 165.609 139.006 165.446 139.16C165.286 139.324 165.11 139.475 164.919 139.612C165.056 139.424 165.212 139.246 165.388 139.083C165.541 138.916 165.735 138.717 165.978 138.496C166.22 138.274 166.504 138.016 166.815 137.759C167.567 137.138 168.367 136.562 169.211 136.036C171.284 134.752 173.6 133.787 176.057 133.183C177.06 132.939 178.083 132.758 179.117 132.64C179.559 132.577 179.959 132.563 180.312 132.532C180.665 132.5 180.965 132.496 181.218 132.496C181.473 132.489 181.728 132.499 181.981 132.527Z" fill="#263238"/>
<path d="M179.285 171.425C179.211 171.425 179.98 169.132 180.997 166.347C182.013 163.562 182.898 161.319 182.971 161.338C183.045 161.356 182.276 163.63 181.26 166.415C180.244 169.2 179.354 171.443 179.285 171.425Z" fill="#263238"/>
<path d="M202.166 128.196C202.166 128.196 202.166 128.241 202.166 128.327C202.129 128.454 202.065 128.573 201.977 128.68C201.816 128.882 201.598 129.044 201.342 129.152C201.086 129.26 200.802 129.309 200.518 129.295C200.129 129.25 199.764 129.11 199.465 128.892C199.161 128.659 198.78 128.513 198.375 128.476C197.928 128.474 197.494 128.602 197.143 128.838C196.756 129.107 196.402 129.41 196.089 129.742C195.439 130.39 194.673 130.946 193.82 131.388C193.113 131.744 192.324 131.964 191.508 132.03C190.959 132.071 190.407 132.021 189.881 131.881C189.692 131.836 189.513 131.762 189.354 131.664C190.047 131.855 190.778 131.922 191.503 131.863C192.285 131.779 193.037 131.552 193.709 131.198C194.53 130.758 195.269 130.214 195.9 129.584C196.23 129.249 196.6 128.946 197.006 128.68C197.409 128.415 197.905 128.277 198.412 128.286C198.862 128.332 199.284 128.498 199.618 128.761C199.882 128.966 200.209 129.102 200.56 129.154C200.812 129.162 201.063 129.119 201.291 129.027C201.519 128.934 201.718 128.797 201.872 128.625C201.987 128.491 202.085 128.347 202.166 128.196Z" fill="#263238"/>
<path d="M202.114 131.501C202.114 131.501 202.24 131.501 202.451 131.551C202.757 131.622 203.048 131.733 203.315 131.881C203.524 131.994 203.697 132.151 203.818 132.336C203.938 132.522 204.003 132.731 204.004 132.943C203.962 133.198 203.855 133.442 203.691 133.657C203.527 133.873 203.311 134.055 203.057 134.191C202.573 134.478 202.001 134.636 201.414 134.643C200.935 134.644 200.464 134.541 200.044 134.345C199.767 134.215 199.519 134.044 199.312 133.839C199.17 133.689 199.117 133.594 199.128 133.585C199.434 133.822 199.772 134.027 200.134 134.196C200.532 134.357 200.968 134.435 201.408 134.426C201.943 134.401 202.459 134.244 202.893 133.974C203.115 133.856 203.305 133.7 203.453 133.515C203.601 133.331 203.702 133.122 203.752 132.903C203.751 132.725 203.701 132.55 203.604 132.392C203.508 132.235 203.369 132.1 203.199 131.998C202.954 131.847 202.691 131.72 202.414 131.619C202.219 131.564 202.109 131.515 202.114 131.501Z" fill="#263238"/>
<path d="M184.894 218.14C184.894 218.204 173.772 215.324 160.106 211.716C146.44 208.107 135.355 205.128 135.397 205.065C135.439 205.001 146.519 207.881 160.19 211.489C173.861 215.098 184.915 218.064 184.894 218.14Z" fill="#263238"/>
<path d="M183.967 219.989C183.967 220.053 172.845 217.177 159.179 213.569C145.514 209.961 134.465 206.981 134.465 206.918C134.465 206.855 145.582 209.73 159.253 213.343C172.924 216.956 183.999 219.931 183.967 219.989Z" fill="#263238"/>
<path d="M183.277 222.02C183.277 222.079 172.155 219.203 158.489 215.595C144.824 211.987 133.739 209.007 133.781 208.944C133.823 208.881 144.897 211.756 158.568 215.369C172.239 218.981 183.298 221.957 183.277 222.02Z" fill="#263238"/>
<path d="M182.576 224.045C182.576 224.109 171.454 221.228 157.789 217.62C144.123 214.012 133.038 211.033 133.08 210.969C133.122 210.906 144.202 213.786 157.873 217.394C171.544 221.002 182.598 223.982 182.576 224.045Z" fill="#263238"/>
<path d="M181.86 226.071C181.834 226.134 170.738 223.259 157.073 219.646C143.407 216.033 132.322 213.058 132.364 212.999C132.406 212.941 143.502 215.803 157.173 219.42C170.844 223.037 181.903 226.008 181.86 226.071Z" fill="#263238"/>
<path d="M171.228 182.344C171.226 182.448 171.208 182.552 171.175 182.652C171.144 182.86 171.038 183.145 170.923 183.524C170.686 184.275 170.317 185.333 169.843 186.689C168.895 189.352 167.537 193.019 166.015 197.043C164.493 201.067 163.076 204.73 162.044 207.361C161.517 208.659 161.112 209.717 160.806 210.477C160.664 210.825 160.543 211.105 160.454 211.322C160.42 211.422 160.374 211.519 160.317 211.611C160.332 211.507 160.36 211.404 160.401 211.304L160.706 210.449C160.985 209.681 161.38 208.614 161.86 207.312L165.751 196.971C167.273 192.951 168.648 189.285 169.653 186.64C170.143 185.337 170.538 184.27 170.823 183.506C170.949 183.135 171.07 182.846 171.123 182.652C171.151 182.548 171.186 182.445 171.228 182.344Z" fill="#E0E0E0"/>
<path d="M186.289 154.438C186.289 154.501 185.931 154.488 185.526 154.406C185.12 154.325 184.804 154.208 184.82 154.144C184.836 154.081 185.178 154.095 185.589 154.176C186 154.257 186.305 154.375 186.289 154.438Z" fill="#263238"/>
<path d="M196.105 189.013C196.079 189.072 184.983 186.142 171.317 182.466C157.652 178.79 146.567 175.761 146.609 175.684C146.651 175.607 157.726 178.551 171.396 182.227C185.067 185.903 196.126 188.95 196.105 189.013Z" fill="#EBEBEB"/>
<path d="M167.642 204.223C167.752 204.159 167.882 204.123 168.016 204.119C168.384 204.088 168.755 204.162 169.069 204.332C169.31 204.453 169.508 204.627 169.645 204.836C169.782 205.045 169.852 205.281 169.848 205.521C169.854 205.819 169.752 206.112 169.556 206.358C169.361 206.605 169.081 206.793 168.756 206.898C168.431 207.003 168.076 207.019 167.74 206.944C167.404 206.869 167.103 206.707 166.878 206.48C166.687 206.3 166.555 206.079 166.498 205.84C166.441 205.601 166.459 205.354 166.552 205.123C166.656 204.821 166.877 204.558 167.178 204.377C167.281 204.302 167.407 204.254 167.542 204.242C167.542 204.242 167.421 204.309 167.247 204.45C166.99 204.637 166.806 204.888 166.72 205.168C166.655 205.367 166.651 205.577 166.708 205.777C166.766 205.978 166.882 206.162 167.047 206.312C167.239 206.503 167.496 206.639 167.781 206.701C168.066 206.764 168.367 206.75 168.642 206.661C168.918 206.572 169.156 206.414 169.323 206.206C169.491 205.998 169.58 205.751 169.58 205.499C169.588 205.292 169.535 205.088 169.424 204.905C169.313 204.722 169.149 204.566 168.948 204.454C168.674 204.29 168.349 204.201 168.016 204.196C167.763 204.21 167.642 204.246 167.642 204.223Z" fill="#E0E0E0"/>
<path d="M172.344 192.111C172.455 192.045 172.585 192.009 172.718 192.007C173.087 191.976 173.457 192.051 173.772 192.219C174.011 192.341 174.209 192.516 174.345 192.724C174.481 192.933 174.55 193.169 174.546 193.408C174.551 193.707 174.449 193.999 174.254 194.245C174.058 194.492 173.779 194.68 173.454 194.785C173.129 194.89 172.774 194.906 172.437 194.832C172.101 194.757 171.8 194.594 171.576 194.367C171.384 194.187 171.253 193.966 171.196 193.727C171.138 193.489 171.157 193.241 171.249 193.011C171.357 192.722 171.569 192.47 171.855 192.292C171.958 192.219 172.085 192.173 172.218 192.161C172.218 192.161 172.102 192.228 171.923 192.364C171.667 192.555 171.484 192.807 171.397 193.087C171.329 193.286 171.324 193.495 171.38 193.696C171.436 193.897 171.553 194.081 171.718 194.231C171.919 194.407 172.173 194.533 172.451 194.594C172.73 194.655 173.022 194.65 173.298 194.579C173.567 194.482 173.798 194.32 173.964 194.113C174.13 193.907 174.224 193.664 174.235 193.413C174.245 193.208 174.192 193.004 174.083 192.822C173.973 192.639 173.809 192.485 173.608 192.373C173.332 192.21 173.006 192.119 172.671 192.111C172.487 192.097 172.35 192.133 172.344 192.111Z" fill="#E0E0E0"/>
<path d="M164.846 172.546C164.956 172.482 165.086 172.446 165.219 172.442C165.588 172.41 165.959 172.485 166.273 172.655C166.513 172.776 166.712 172.95 166.849 173.159C166.986 173.368 167.056 173.604 167.052 173.844C167.058 174.142 166.956 174.434 166.76 174.681C166.565 174.927 166.285 175.116 165.96 175.221C165.635 175.326 165.28 175.342 164.944 175.267C164.608 175.192 164.307 175.03 164.082 174.802C163.891 174.622 163.759 174.401 163.702 174.163C163.644 173.924 163.663 173.676 163.755 173.446C163.86 173.144 164.081 172.881 164.382 172.7C164.485 172.625 164.611 172.577 164.746 172.564C164.746 172.564 164.63 172.632 164.451 172.768C164.195 172.959 164.012 173.21 163.924 173.491C163.859 173.69 163.855 173.9 163.912 174.1C163.969 174.3 164.086 174.485 164.25 174.635C164.443 174.826 164.7 174.962 164.985 175.024C165.27 175.086 165.571 175.072 165.846 174.984C166.122 174.895 166.359 174.736 166.527 174.529C166.695 174.321 166.784 174.074 166.784 173.821C166.792 173.615 166.739 173.411 166.628 173.228C166.517 173.044 166.353 172.889 166.152 172.777C165.878 172.613 165.553 172.523 165.219 172.519C165.009 172.533 164.851 172.569 164.846 172.546Z" fill="#E0E0E0"/>
<path d="M164.024 163.472C164.092 163.472 162.871 166.949 161.296 171.194C159.722 175.44 158.379 178.881 158.305 178.849C158.231 178.817 159.453 175.372 161.033 171.122C162.613 166.872 163.955 163.454 164.024 163.472Z" fill="#EBEBEB"/>
<g opacity="0.3">
<path opacity="0.3" d="M136.272 202.691C136.272 202.691 143.449 184.528 146.198 175.562C142.57 179.288 138.478 183.565 136.345 188.059C134.199 192.758 134.173 197.976 136.272 202.691Z" fill="#272830"/>
</g>
<path d="M144.129 250.957C143.447 251.09 142.853 251.448 142.475 251.954C142.097 252.459 141.965 253.072 142.108 253.66C142.251 254.248 142.657 254.764 143.238 255.098C143.82 255.431 144.531 255.556 145.218 255.444C145.906 255.333 146.514 254.994 146.914 254.501C147.313 254.008 147.471 253.4 147.354 252.808C147.237 252.215 146.854 251.687 146.287 251.334C145.72 250.982 145.015 250.835 144.323 250.925" fill="#082567"/>
<defs>
<linearGradient id="paint0_linear_152_34502" x1="138" y1="245.696" x2="55" y2="292.196" gradientUnits="userSpaceOnUse">
<stop stop-color="#96E7E5"/>
<stop offset="1" stop-color="#96E7E5" stop-opacity="0"/>
</linearGradient>
<linearGradient id="paint1_linear_152_34502" x1="89.4636" y1="200.475" x2="56" y2="316.562" gradientUnits="userSpaceOnUse">
<stop stop-color="#263238"/>
<stop offset="1" stop-color="white" stop-opacity="0"/>
</linearGradient>
<linearGradient id="paint2_linear_152_34502" x1="128" y1="234.196" x2="22.0001" y2="296.196" gradientUnits="userSpaceOnUse">
<stop stop-color="#96E7E5"/>
<stop offset="1" stop-color="#96E7E5" stop-opacity="0"/>
</linearGradient>
</defs>
</svg>
