<svg width="57" height="55" viewBox="0 0 57 55" fill="none" xmlns="http://www.w3.org/2000/svg">
<path d="M38.9148 54.2111C38.5326 54.0776 36.958 53.6348 35.6136 53.1653C27.3376 50.5966 11.3987 41.2607 5.13241 35.4062C4.15514 34.5291 1.87656 32.2218 1.12351 30.7725C0.462716 29.3554 0.159074 27.8524 0.219585 26.2549C0.39471 24.2169 1.24824 22.2496 2.63633 20.7424C3.61609 19.7319 6.85305 17.3626 6.91649 17.333C10.4888 14.8073 16.6472 11.4626 23.653 8.19578C30.328 5.08319 36.5904 2.63591 40.8207 1.36737C40.915 1.40401 45.6762 0.0437311 47.5545 0.108393C50.9886 0.232252 54.0013 2.1972 55.3826 5.15937L55.502 5.41541C56.3336 7.37627 56.5034 12.2362 56.44 12.2658C56.7112 20.4429 53.9361 38.1183 50.4445 46.3302C50.4445 46.3302 49.6094 48.5738 48.953 49.686C48.048 51.3657 46.5693 52.6786 44.8519 53.4795C42.9351 54.3733 40.88 54.6276 38.9148 54.2111Z" fill="#1E2875"/>
</svg>
