<svg width="20" height="20" viewBox="0 0 20 20" fill="none" xmlns="http://www.w3.org/2000/svg">
<circle cx="10" cy="10" r="10" fill="#EA4335"/>
<path d="M11.024 4.8135V9.3895C11.024 9.8695 11.0027 10.3415 10.96 10.8055C10.9173 11.2642 10.8613 11.7602 10.792 12.2935H9.632C9.55733 11.7602 9.49867 11.2642 9.456 10.8055C9.41867 10.3415 9.4 9.8695 9.4 9.3895V4.8135H11.024ZM9.072 15.3415C9.072 15.1868 9.09867 15.0428 9.152 14.9095C9.21067 14.7708 9.29067 14.6508 9.392 14.5495C9.49333 14.4482 9.61067 14.3682 9.744 14.3095C9.87733 14.2508 10.024 14.2215 10.184 14.2215C10.3387 14.2215 10.4827 14.2508 10.616 14.3095C10.7547 14.3682 10.872 14.4482 10.968 14.5495C11.0693 14.6508 11.1493 14.7708 11.208 14.9095C11.2667 15.0428 11.296 15.1868 11.296 15.3415C11.296 15.5015 11.2667 15.6482 11.208 15.7815C11.1493 15.9148 11.0693 16.0322 10.968 16.1335C10.872 16.2348 10.7547 16.3122 10.616 16.3655C10.4827 16.4242 10.3387 16.4535 10.184 16.4535C10.024 16.4535 9.87733 16.4242 9.744 16.3655C9.61067 16.3122 9.49333 16.2348 9.392 16.1335C9.29067 16.0322 9.21067 15.9148 9.152 15.7815C9.09867 15.6482 9.072 15.5015 9.072 15.3415Z" fill="white"/>
</svg>
