<svg width="21" height="21" viewBox="0 0 21 21" fill="none" xmlns="http://www.w3.org/2000/svg">
<path d="M13.0726 8.5627L10.9619 11.2937L8.58323 9.42235L8.58325 9.42232L8.5778 9.41814C8.30228 9.20746 7.9736 9.12395 7.65102 9.15782L7.63983 9.15899L7.6287 9.16067C7.2982 9.21049 7.00319 9.39005 6.80499 9.65123C6.80456 9.6518 6.80413 9.65236 6.8037 9.65293L3.84268 13.5065L3.83362 13.5183L3.82527 13.5306L3.76418 13.6208L3.74929 13.6427L3.73682 13.6662C3.45529 14.1944 3.58239 14.88 4.09182 15.2553L4.10463 15.2647L4.118 15.2733C4.30764 15.3952 4.54769 15.5004 4.83841 15.5029C5.25404 15.5169 5.61652 15.3009 5.83784 15.0053L8.04663 12.162L10.5075 14.0106L10.5203 14.0203L10.5337 14.029L10.6238 14.0881L10.643 14.1007L10.6633 14.1115C11.1961 14.3946 11.8642 14.2622 12.2454 13.7648C12.2458 13.7643 12.2462 13.7638 12.2466 13.7632L15.1388 10.0315L15.1252 10.0149C15.3749 9.65432 15.4187 9.19748 15.2419 8.79429C15.0613 8.3799 14.6642 8.09306 14.2205 8.05563C13.7743 8.00919 13.3371 8.20567 13.0726 8.5627ZM13.4184 2.96455C13.4144 3.04821 13.4123 3.13192 13.4123 3.21565C13.4123 5.74445 15.4582 7.79062 17.9783 7.79062C18.0601 7.79062 18.1404 7.78793 18.2194 7.78312V15.3024C18.2194 16.9023 17.7494 18.1149 16.9385 18.927C16.1276 19.739 14.9155 20.2113 13.3114 20.2113H5.91161C4.30698 20.2113 3.09462 19.739 2.28369 18.927C1.47266 18.1149 1.00269 16.9023 1.00269 15.3024V7.8925C1.00269 6.28765 1.4729 5.07003 2.28438 4.25428C3.09549 3.4389 4.30768 2.96455 5.91161 2.96455H13.4184ZM18.1186 1.18164C19.1744 1.18164 20.0321 2.03937 20.0321 3.09518C20.0321 4.15098 19.1744 5.00871 18.1186 5.00871C17.0628 5.00871 16.2051 4.15099 16.2051 3.09518C16.2051 2.03937 17.0628 1.18164 18.1186 1.18164Z" stroke="#373B5C"/>
</svg>
